<?xml version="1.0" encoding="utf-8" standalone="no"?>
<!DOCTYPE svg PUBLIC "-//W3C//DTD SVG 1.1//EN"
  "http://www.w3.org/Graphics/SVG/1.1/DTD/svg11.dtd">
<svg xmlns:xlink="http://www.w3.org/1999/xlink" width="460.8pt" height="345.6pt" viewBox="0 0 460.8 345.6" xmlns="http://www.w3.org/2000/svg" version="1.1">
 <metadata>
  <rdf:RDF xmlns:dc="http://purl.org/dc/elements/1.1/" xmlns:cc="http://creativecommons.org/ns#" xmlns:rdf="http://www.w3.org/1999/02/22-rdf-syntax-ns#">
   <cc:Work>
    <dc:type rdf:resource="http://purl.org/dc/dcmitype/StillImage"/>
    <dc:date>2024-05-15T14:07:41.423626</dc:date>
    <dc:format>image/svg+xml</dc:format>
    <dc:creator>
     <cc:Agent>
      <dc:title>Matplotlib v3.7.5, https://matplotlib.org/</dc:title>
     </cc:Agent>
    </dc:creator>
   </cc:Work>
  </rdf:RDF>
 </metadata>
 <defs>
  <style type="text/css">*{stroke-linejoin: round; stroke-linecap: butt}</style>
 </defs>
 <g id="figure_1">
  <g id="patch_1">
   <path d="M 0 345.6 
L 460.8 345.6 
L 460.8 0 
L 0 0 
z
" style="fill: #ffffff"/>
  </g>
  <g id="axes_1">
   <g id="patch_2">
    <path d="M 57.6 119.740235 
L 414.72 119.740235 
L 414.72 41.472 
L 57.6 41.472 
z
" style="fill: #ffffff"/>
   </g>
   <g id="patch_3">
    <path d="M 73.832727 112.624941 
L 109.905455 112.624941 
L 109.905455 48.587294 
L 73.832727 48.587294 
z
" clip-path="url(#p6bccc6c7a8)" style="fill: #a9a9a9; opacity: 0.2; stroke: #000000; stroke-width: 1.5; stroke-linejoin: miter"/>
   </g>
   <g id="patch_4">
    <path d="M 145.978182 89.500235 
L 182.050909 89.500235 
L 182.050909 71.712 
L 145.978182 71.712 
z
" clip-path="url(#p6bccc6c7a8)" style="fill: #a9a9a9; opacity: 0.2; stroke: #000000; stroke-width: 1.5; stroke-linejoin: miter"/>
   </g>
   <g id="patch_5">
    <path d="M 145.978182 89.500235 
L 182.050909 89.500235 
L 182.050909 71.712 
L 145.978182 71.712 
z
" clip-path="url(#p6bccc6c7a8)" style="fill: #a9a9a9; opacity: 0.2; stroke: #000000; stroke-width: 1.5; stroke-linejoin: miter"/>
   </g>
   <g id="patch_6">
    <path d="M 218.123636 99.777882 
L 254.196364 99.777882 
L 254.196364 61.434353 
L 218.123636 61.434353 
z
" clip-path="url(#p6bccc6c7a8)" style="fill: #a9a9a9; opacity: 0.2; stroke: #000000; stroke-width: 1.5; stroke-linejoin: miter"/>
   </g>
   <g id="patch_7">
    <path d="M 218.123636 99.777882 
L 254.196364 99.777882 
L 254.196364 61.434353 
L 218.123636 61.434353 
z
" clip-path="url(#p6bccc6c7a8)" style="fill: #a9a9a9; opacity: 0.2; stroke: #000000; stroke-width: 1.5; stroke-linejoin: miter"/>
   </g>
   <g id="patch_8">
    <path d="M 290.269091 89.500235 
L 326.341818 89.500235 
L 326.341818 71.712 
L 290.269091 71.712 
z
" clip-path="url(#p6bccc6c7a8)" style="fill: #a9a9a9; opacity: 0.2; stroke: #000000; stroke-width: 1.5; stroke-linejoin: miter"/>
   </g>
   <g id="patch_9">
    <path d="M 290.269091 89.500235 
L 326.341818 89.500235 
L 326.341818 71.712 
L 290.269091 71.712 
z
" clip-path="url(#p6bccc6c7a8)" style="fill: #a9a9a9; opacity: 0.2; stroke: #000000; stroke-width: 1.5; stroke-linejoin: miter"/>
   </g>
   <g id="patch_10">
    <path d="M 362.414545 107.486118 
L 398.487273 107.486118 
L 398.487273 53.726118 
L 362.414545 53.726118 
z
" clip-path="url(#p6bccc6c7a8)" style="fill: #a9a9a9; opacity: 0.2; stroke: #000000; stroke-width: 1.5; stroke-linejoin: miter"/>
   </g>
   <g id="matplotlib.axis_1">
    <g id="xtick_1">
     <g id="line2d_1">
      <defs>
       <path id="m859f60060e" d="M 0 0 
L 0 3.5 
" style="stroke: #000000; stroke-width: 0.8"/>
      </defs>
      <g>
       <use xlink:href="#m859f60060e" x="91.869091" y="119.740235" style="stroke: #000000; stroke-width: 0.8"/>
      </g>
     </g>
    </g>
    <g id="xtick_2">
     <g id="line2d_2">
      <g>
       <use xlink:href="#m859f60060e" x="164.014545" y="119.740235" style="stroke: #000000; stroke-width: 0.8"/>
      </g>
     </g>
    </g>
    <g id="xtick_3">
     <g id="line2d_3">
      <g>
       <use xlink:href="#m859f60060e" x="236.16" y="119.740235" style="stroke: #000000; stroke-width: 0.8"/>
      </g>
     </g>
    </g>
    <g id="xtick_4">
     <g id="line2d_4">
      <g>
       <use xlink:href="#m859f60060e" x="308.305455" y="119.740235" style="stroke: #000000; stroke-width: 0.8"/>
      </g>
     </g>
    </g>
    <g id="xtick_5">
     <g id="line2d_5">
      <g>
       <use xlink:href="#m859f60060e" x="380.450909" y="119.740235" style="stroke: #000000; stroke-width: 0.8"/>
      </g>
     </g>
    </g>
   </g>
   <g id="matplotlib.axis_2">
    <g id="ytick_1">
     <g id="line2d_6">
      <defs>
       <path id="m6c690154bd" d="M 0 0 
L -3.5 0 
" style="stroke: #000000; stroke-width: 0.8"/>
      </defs>
      <g>
       <use xlink:href="#m6c690154bd" x="57.6" y="116.182588" style="stroke: #000000; stroke-width: 0.8"/>
      </g>
     </g>
     <g id="text_1">
      <!-- −1 -->
      <g transform="translate(35.857813 119.981807) scale(0.1 -0.1)">
       <defs>
        <path id="DejaVuSans-2212" d="M 678 2272 
L 4684 2272 
L 4684 1741 
L 678 1741 
L 678 2272 
z
" transform="scale(0.015625)"/>
        <path id="DejaVuSans-31" d="M 794 531 
L 1825 531 
L 1825 4091 
L 703 3866 
L 703 4441 
L 1819 4666 
L 2450 4666 
L 2450 531 
L 3481 531 
L 3481 0 
L 794 0 
L 794 531 
z
" transform="scale(0.015625)"/>
       </defs>
       <use xlink:href="#DejaVuSans-2212"/>
       <use xlink:href="#DejaVuSans-31" x="83.789062"/>
      </g>
     </g>
    </g>
    <g id="ytick_2">
     <g id="line2d_7">
      <g>
       <use xlink:href="#m6c690154bd" x="57.6" y="80.606118" style="stroke: #000000; stroke-width: 0.8"/>
      </g>
     </g>
     <g id="text_2">
      <!-- 0 -->
      <g transform="translate(44.2375 84.405336) scale(0.1 -0.1)">
       <defs>
        <path id="DejaVuSans-30" d="M 2034 4250 
Q 1547 4250 1301 3770 
Q 1056 3291 1056 2328 
Q 1056 1369 1301 889 
Q 1547 409 2034 409 
Q 2525 409 2770 889 
Q 3016 1369 3016 2328 
Q 3016 3291 2770 3770 
Q 2525 4250 2034 4250 
z
M 2034 4750 
Q 2819 4750 3233 4129 
Q 3647 3509 3647 2328 
Q 3647 1150 3233 529 
Q 2819 -91 2034 -91 
Q 1250 -91 836 529 
Q 422 1150 422 2328 
Q 422 3509 836 4129 
Q 1250 4750 2034 4750 
z
" transform="scale(0.015625)"/>
       </defs>
       <use xlink:href="#DejaVuSans-30"/>
      </g>
     </g>
    </g>
    <g id="ytick_3">
     <g id="line2d_8">
      <g>
       <use xlink:href="#m6c690154bd" x="57.6" y="45.029647" style="stroke: #000000; stroke-width: 0.8"/>
      </g>
     </g>
     <g id="text_3">
      <!-- 1 -->
      <g transform="translate(44.2375 48.828866) scale(0.1 -0.1)">
       <use xlink:href="#DejaVuSans-31"/>
      </g>
     </g>
    </g>
   </g>
   <g id="line2d_9">
    <path d="M 109.905455 77.048471 
L 117.12 84.163765 
" clip-path="url(#p6bccc6c7a8)" style="fill: none; stroke: #000000; stroke-opacity: 0.2; stroke-width: 1.5; stroke-linecap: square"/>
   </g>
   <g id="line2d_10">
    <path d="M 117.12 84.163765 
L 124.334545 77.048471 
" clip-path="url(#p6bccc6c7a8)" style="fill: none; stroke: #000000; stroke-opacity: 0.2; stroke-width: 1.5; stroke-linecap: square"/>
   </g>
   <g id="line2d_11">
    <path d="M 124.334545 77.048471 
L 131.549091 84.163765 
" clip-path="url(#p6bccc6c7a8)" style="fill: none; stroke: #000000; stroke-opacity: 0.2; stroke-width: 1.5; stroke-linecap: square"/>
   </g>
   <g id="line2d_12">
    <path d="M 131.549091 84.163765 
L 138.763636 77.048471 
" clip-path="url(#p6bccc6c7a8)" style="fill: none; stroke: #000000; stroke-opacity: 0.2; stroke-width: 1.5; stroke-linecap: square"/>
   </g>
   <g id="line2d_13">
    <path d="M 138.763636 77.048471 
L 145.978182 84.163765 
" clip-path="url(#p6bccc6c7a8)" style="fill: none; stroke: #000000; stroke-opacity: 0.2; stroke-width: 1.5; stroke-linecap: square"/>
   </g>
   <g id="line2d_14">
    <path d="M 182.050909 77.048471 
L 189.265455 84.163765 
" clip-path="url(#p6bccc6c7a8)" style="fill: none; stroke: #000000; stroke-opacity: 0.2; stroke-width: 1.5; stroke-linecap: square"/>
   </g>
   <g id="line2d_15">
    <path d="M 189.265455 84.163765 
L 196.48 77.048471 
" clip-path="url(#p6bccc6c7a8)" style="fill: none; stroke: #000000; stroke-opacity: 0.2; stroke-width: 1.5; stroke-linecap: square"/>
   </g>
   <g id="line2d_16">
    <path d="M 196.48 77.048471 
L 203.694545 84.163765 
" clip-path="url(#p6bccc6c7a8)" style="fill: none; stroke: #000000; stroke-opacity: 0.2; stroke-width: 1.5; stroke-linecap: square"/>
   </g>
   <g id="line2d_17">
    <path d="M 203.694545 84.163765 
L 210.909091 77.048471 
" clip-path="url(#p6bccc6c7a8)" style="fill: none; stroke: #000000; stroke-opacity: 0.2; stroke-width: 1.5; stroke-linecap: square"/>
   </g>
   <g id="line2d_18">
    <path d="M 210.909091 77.048471 
L 218.123636 84.163765 
" clip-path="url(#p6bccc6c7a8)" style="fill: none; stroke: #000000; stroke-opacity: 0.2; stroke-width: 1.5; stroke-linecap: square"/>
   </g>
   <g id="line2d_19">
    <path d="M 254.196364 77.048471 
L 261.410909 84.163765 
" clip-path="url(#p6bccc6c7a8)" style="fill: none; stroke: #000000; stroke-opacity: 0.2; stroke-width: 1.5; stroke-linecap: square"/>
   </g>
   <g id="line2d_20">
    <path d="M 261.410909 84.163765 
L 268.625455 77.048471 
" clip-path="url(#p6bccc6c7a8)" style="fill: none; stroke: #000000; stroke-opacity: 0.2; stroke-width: 1.5; stroke-linecap: square"/>
   </g>
   <g id="line2d_21">
    <path d="M 268.625455 77.048471 
L 275.84 84.163765 
" clip-path="url(#p6bccc6c7a8)" style="fill: none; stroke: #000000; stroke-opacity: 0.2; stroke-width: 1.5; stroke-linecap: square"/>
   </g>
   <g id="line2d_22">
    <path d="M 275.84 84.163765 
L 283.054545 77.048471 
" clip-path="url(#p6bccc6c7a8)" style="fill: none; stroke: #000000; stroke-opacity: 0.2; stroke-width: 1.5; stroke-linecap: square"/>
   </g>
   <g id="line2d_23">
    <path d="M 283.054545 77.048471 
L 290.269091 84.163765 
" clip-path="url(#p6bccc6c7a8)" style="fill: none; stroke: #000000; stroke-opacity: 0.2; stroke-width: 1.5; stroke-linecap: square"/>
   </g>
   <g id="line2d_24">
    <path d="M 326.341818 77.048471 
L 333.556364 84.163765 
" clip-path="url(#p6bccc6c7a8)" style="fill: none; stroke: #000000; stroke-opacity: 0.2; stroke-width: 1.5; stroke-linecap: square"/>
   </g>
   <g id="line2d_25">
    <path d="M 333.556364 84.163765 
L 340.770909 77.048471 
" clip-path="url(#p6bccc6c7a8)" style="fill: none; stroke: #000000; stroke-opacity: 0.2; stroke-width: 1.5; stroke-linecap: square"/>
   </g>
   <g id="line2d_26">
    <path d="M 340.770909 77.048471 
L 347.985455 84.163765 
" clip-path="url(#p6bccc6c7a8)" style="fill: none; stroke: #000000; stroke-opacity: 0.2; stroke-width: 1.5; stroke-linecap: square"/>
   </g>
   <g id="line2d_27">
    <path d="M 347.985455 84.163765 
L 355.2 77.048471 
" clip-path="url(#p6bccc6c7a8)" style="fill: none; stroke: #000000; stroke-opacity: 0.2; stroke-width: 1.5; stroke-linecap: square"/>
   </g>
   <g id="line2d_28">
    <path d="M 355.2 77.048471 
L 362.414545 84.163765 
" clip-path="url(#p6bccc6c7a8)" style="fill: none; stroke: #000000; stroke-opacity: 0.2; stroke-width: 1.5; stroke-linecap: square"/>
   </g>
   <g id="line2d_29">
    <path d="M 91.869091 64.69656 
L 164.014545 64.690858 
L 236.16 64.696718 
L 308.305455 64.698947 
L 380.450909 64.6961 
" clip-path="url(#p6bccc6c7a8)" style="fill: none; stroke: #ff0000; stroke-width: 1.5; stroke-linecap: square"/>
   </g>
   <g id="line2d_30">
    <path d="M 91.869091 80.60603 
L 91.869091 80.606206 
" clip-path="url(#p6bccc6c7a8)" style="fill: none; stroke-dasharray: 5.55,2.4; stroke-dashoffset: 0; stroke: #000000; stroke-width: 1.5"/>
   </g>
   <g id="line2d_31">
    <path d="M 164.014545 80.60603 
L 164.014545 80.606206 
" clip-path="url(#p6bccc6c7a8)" style="fill: none; stroke-dasharray: 5.55,2.4; stroke-dashoffset: 0; stroke: #000000; stroke-width: 1.5"/>
   </g>
   <g id="line2d_32">
    <path d="M 236.16 80.60603 
L 236.16 80.606206 
" clip-path="url(#p6bccc6c7a8)" style="fill: none; stroke-dasharray: 5.55,2.4; stroke-dashoffset: 0; stroke: #000000; stroke-width: 1.5"/>
   </g>
   <g id="line2d_33">
    <path d="M 308.305455 80.60603 
L 308.305455 80.606206 
" clip-path="url(#p6bccc6c7a8)" style="fill: none; stroke-dasharray: 5.55,2.4; stroke-dashoffset: 0; stroke: #000000; stroke-width: 1.5"/>
   </g>
   <g id="line2d_34">
    <path d="M 380.450909 80.60603 
L 380.450909 80.606206 
" clip-path="url(#p6bccc6c7a8)" style="fill: none; stroke-dasharray: 5.55,2.4; stroke-dashoffset: 0; stroke: #000000; stroke-width: 1.5"/>
   </g>
   <g id="patch_11">
    <path d="M 57.6 119.740235 
L 57.6 41.472 
" style="fill: none; stroke: #000000; stroke-width: 0.8; stroke-linejoin: miter; stroke-linecap: square"/>
   </g>
   <g id="patch_12">
    <path d="M 414.72 119.740235 
L 414.72 41.472 
" style="fill: none; stroke: #000000; stroke-width: 0.8; stroke-linejoin: miter; stroke-linecap: square"/>
   </g>
   <g id="patch_13">
    <path d="M 57.6 119.740235 
L 414.72 119.740235 
" style="fill: none; stroke: #000000; stroke-width: 0.8; stroke-linejoin: miter; stroke-linecap: square"/>
   </g>
   <g id="patch_14">
    <path d="M 57.6 41.472 
L 414.72 41.472 
" style="fill: none; stroke: #000000; stroke-width: 0.8; stroke-linejoin: miter; stroke-linecap: square"/>
   </g>
  </g>
  <g id="axes_2">
   <g id="patch_15">
    <path d="M 57.6 213.662118 
L 414.72 213.662118 
L 414.72 135.393882 
L 57.6 135.393882 
z
" style="fill: #ffffff"/>
   </g>
   <g id="patch_16">
    <path d="M 73.832727 206.546824 
L 109.905455 206.546824 
L 109.905455 142.509176 
L 73.832727 142.509176 
z
" clip-path="url(#p9b1df41fe1)" style="fill: #a9a9a9; opacity: 0.2; stroke: #000000; stroke-width: 1.5; stroke-linejoin: miter"/>
   </g>
   <g id="patch_17">
    <path d="M 145.978182 183.422118 
L 182.050909 183.422118 
L 182.050909 165.633882 
L 145.978182 165.633882 
z
" clip-path="url(#p9b1df41fe1)" style="fill: #a9a9a9; opacity: 0.2; stroke: #000000; stroke-width: 1.5; stroke-linejoin: miter"/>
   </g>
   <g id="patch_18">
    <path d="M 145.978182 183.422118 
L 182.050909 183.422118 
L 182.050909 165.633882 
L 145.978182 165.633882 
z
" clip-path="url(#p9b1df41fe1)" style="fill: #a9a9a9; opacity: 0.2; stroke: #000000; stroke-width: 1.5; stroke-linejoin: miter"/>
   </g>
   <g id="patch_19">
    <path d="M 218.123636 193.699765 
L 254.196364 193.699765 
L 254.196364 155.356235 
L 218.123636 155.356235 
z
" clip-path="url(#p9b1df41fe1)" style="fill: #a9a9a9; opacity: 0.2; stroke: #000000; stroke-width: 1.5; stroke-linejoin: miter"/>
   </g>
   <g id="patch_20">
    <path d="M 218.123636 193.699765 
L 254.196364 193.699765 
L 254.196364 155.356235 
L 218.123636 155.356235 
z
" clip-path="url(#p9b1df41fe1)" style="fill: #a9a9a9; opacity: 0.2; stroke: #000000; stroke-width: 1.5; stroke-linejoin: miter"/>
   </g>
   <g id="patch_21">
    <path d="M 290.269091 183.422118 
L 326.341818 183.422118 
L 326.341818 165.633882 
L 290.269091 165.633882 
z
" clip-path="url(#p9b1df41fe1)" style="fill: #a9a9a9; opacity: 0.2; stroke: #000000; stroke-width: 1.5; stroke-linejoin: miter"/>
   </g>
   <g id="patch_22">
    <path d="M 290.269091 183.422118 
L 326.341818 183.422118 
L 326.341818 165.633882 
L 290.269091 165.633882 
z
" clip-path="url(#p9b1df41fe1)" style="fill: #a9a9a9; opacity: 0.2; stroke: #000000; stroke-width: 1.5; stroke-linejoin: miter"/>
   </g>
   <g id="patch_23">
    <path d="M 362.414545 201.408 
L 398.487273 201.408 
L 398.487273 147.648 
L 362.414545 147.648 
z
" clip-path="url(#p9b1df41fe1)" style="fill: #a9a9a9; opacity: 0.2; stroke: #000000; stroke-width: 1.5; stroke-linejoin: miter"/>
   </g>
   <g id="matplotlib.axis_3">
    <g id="xtick_6">
     <g id="line2d_35">
      <g>
       <use xlink:href="#m859f60060e" x="91.869091" y="213.662118" style="stroke: #000000; stroke-width: 0.8"/>
      </g>
     </g>
    </g>
    <g id="xtick_7">
     <g id="line2d_36">
      <g>
       <use xlink:href="#m859f60060e" x="164.014545" y="213.662118" style="stroke: #000000; stroke-width: 0.8"/>
      </g>
     </g>
    </g>
    <g id="xtick_8">
     <g id="line2d_37">
      <g>
       <use xlink:href="#m859f60060e" x="236.16" y="213.662118" style="stroke: #000000; stroke-width: 0.8"/>
      </g>
     </g>
    </g>
    <g id="xtick_9">
     <g id="line2d_38">
      <g>
       <use xlink:href="#m859f60060e" x="308.305455" y="213.662118" style="stroke: #000000; stroke-width: 0.8"/>
      </g>
     </g>
    </g>
    <g id="xtick_10">
     <g id="line2d_39">
      <g>
       <use xlink:href="#m859f60060e" x="380.450909" y="213.662118" style="stroke: #000000; stroke-width: 0.8"/>
      </g>
     </g>
    </g>
   </g>
   <g id="matplotlib.axis_4">
    <g id="ytick_4">
     <g id="line2d_40">
      <g>
       <use xlink:href="#m6c690154bd" x="57.6" y="210.104471" style="stroke: #000000; stroke-width: 0.8"/>
      </g>
     </g>
     <g id="text_4">
      <!-- −1 -->
      <g transform="translate(35.857813 213.903689) scale(0.1 -0.1)">
       <use xlink:href="#DejaVuSans-2212"/>
       <use xlink:href="#DejaVuSans-31" x="83.789062"/>
      </g>
     </g>
    </g>
    <g id="ytick_5">
     <g id="line2d_41">
      <g>
       <use xlink:href="#m6c690154bd" x="57.6" y="174.528" style="stroke: #000000; stroke-width: 0.8"/>
      </g>
     </g>
     <g id="text_5">
      <!-- 0 -->
      <g transform="translate(44.2375 178.327219) scale(0.1 -0.1)">
       <use xlink:href="#DejaVuSans-30"/>
      </g>
     </g>
    </g>
    <g id="ytick_6">
     <g id="line2d_42">
      <g>
       <use xlink:href="#m6c690154bd" x="57.6" y="138.951529" style="stroke: #000000; stroke-width: 0.8"/>
      </g>
     </g>
     <g id="text_6">
      <!-- 1 -->
      <g transform="translate(44.2375 142.750748) scale(0.1 -0.1)">
       <use xlink:href="#DejaVuSans-31"/>
      </g>
     </g>
    </g>
   </g>
   <g id="line2d_43">
    <path d="M 109.905455 170.970353 
L 117.12 178.085647 
" clip-path="url(#p9b1df41fe1)" style="fill: none; stroke: #000000; stroke-opacity: 0.2; stroke-width: 1.5; stroke-linecap: square"/>
   </g>
   <g id="line2d_44">
    <path d="M 117.12 178.085647 
L 124.334545 170.970353 
" clip-path="url(#p9b1df41fe1)" style="fill: none; stroke: #000000; stroke-opacity: 0.2; stroke-width: 1.5; stroke-linecap: square"/>
   </g>
   <g id="line2d_45">
    <path d="M 124.334545 170.970353 
L 131.549091 178.085647 
" clip-path="url(#p9b1df41fe1)" style="fill: none; stroke: #000000; stroke-opacity: 0.2; stroke-width: 1.5; stroke-linecap: square"/>
   </g>
   <g id="line2d_46">
    <path d="M 131.549091 178.085647 
L 138.763636 170.970353 
" clip-path="url(#p9b1df41fe1)" style="fill: none; stroke: #000000; stroke-opacity: 0.2; stroke-width: 1.5; stroke-linecap: square"/>
   </g>
   <g id="line2d_47">
    <path d="M 138.763636 170.970353 
L 145.978182 178.085647 
" clip-path="url(#p9b1df41fe1)" style="fill: none; stroke: #000000; stroke-opacity: 0.2; stroke-width: 1.5; stroke-linecap: square"/>
   </g>
   <g id="line2d_48">
    <path d="M 182.050909 170.970353 
L 189.265455 178.085647 
" clip-path="url(#p9b1df41fe1)" style="fill: none; stroke: #000000; stroke-opacity: 0.2; stroke-width: 1.5; stroke-linecap: square"/>
   </g>
   <g id="line2d_49">
    <path d="M 189.265455 178.085647 
L 196.48 170.970353 
" clip-path="url(#p9b1df41fe1)" style="fill: none; stroke: #000000; stroke-opacity: 0.2; stroke-width: 1.5; stroke-linecap: square"/>
   </g>
   <g id="line2d_50">
    <path d="M 196.48 170.970353 
L 203.694545 178.085647 
" clip-path="url(#p9b1df41fe1)" style="fill: none; stroke: #000000; stroke-opacity: 0.2; stroke-width: 1.5; stroke-linecap: square"/>
   </g>
   <g id="line2d_51">
    <path d="M 203.694545 178.085647 
L 210.909091 170.970353 
" clip-path="url(#p9b1df41fe1)" style="fill: none; stroke: #000000; stroke-opacity: 0.2; stroke-width: 1.5; stroke-linecap: square"/>
   </g>
   <g id="line2d_52">
    <path d="M 210.909091 170.970353 
L 218.123636 178.085647 
" clip-path="url(#p9b1df41fe1)" style="fill: none; stroke: #000000; stroke-opacity: 0.2; stroke-width: 1.5; stroke-linecap: square"/>
   </g>
   <g id="line2d_53">
    <path d="M 254.196364 170.970353 
L 261.410909 178.085647 
" clip-path="url(#p9b1df41fe1)" style="fill: none; stroke: #000000; stroke-opacity: 0.2; stroke-width: 1.5; stroke-linecap: square"/>
   </g>
   <g id="line2d_54">
    <path d="M 261.410909 178.085647 
L 268.625455 170.970353 
" clip-path="url(#p9b1df41fe1)" style="fill: none; stroke: #000000; stroke-opacity: 0.2; stroke-width: 1.5; stroke-linecap: square"/>
   </g>
   <g id="line2d_55">
    <path d="M 268.625455 170.970353 
L 275.84 178.085647 
" clip-path="url(#p9b1df41fe1)" style="fill: none; stroke: #000000; stroke-opacity: 0.2; stroke-width: 1.5; stroke-linecap: square"/>
   </g>
   <g id="line2d_56">
    <path d="M 275.84 178.085647 
L 283.054545 170.970353 
" clip-path="url(#p9b1df41fe1)" style="fill: none; stroke: #000000; stroke-opacity: 0.2; stroke-width: 1.5; stroke-linecap: square"/>
   </g>
   <g id="line2d_57">
    <path d="M 283.054545 170.970353 
L 290.269091 178.085647 
" clip-path="url(#p9b1df41fe1)" style="fill: none; stroke: #000000; stroke-opacity: 0.2; stroke-width: 1.5; stroke-linecap: square"/>
   </g>
   <g id="line2d_58">
    <path d="M 326.341818 170.970353 
L 333.556364 178.085647 
" clip-path="url(#p9b1df41fe1)" style="fill: none; stroke: #000000; stroke-opacity: 0.2; stroke-width: 1.5; stroke-linecap: square"/>
   </g>
   <g id="line2d_59">
    <path d="M 333.556364 178.085647 
L 340.770909 170.970353 
" clip-path="url(#p9b1df41fe1)" style="fill: none; stroke: #000000; stroke-opacity: 0.2; stroke-width: 1.5; stroke-linecap: square"/>
   </g>
   <g id="line2d_60">
    <path d="M 340.770909 170.970353 
L 347.985455 178.085647 
" clip-path="url(#p9b1df41fe1)" style="fill: none; stroke: #000000; stroke-opacity: 0.2; stroke-width: 1.5; stroke-linecap: square"/>
   </g>
   <g id="line2d_61">
    <path d="M 347.985455 178.085647 
L 355.2 170.970353 
" clip-path="url(#p9b1df41fe1)" style="fill: none; stroke: #000000; stroke-opacity: 0.2; stroke-width: 1.5; stroke-linecap: square"/>
   </g>
   <g id="line2d_62">
    <path d="M 355.2 170.970353 
L 362.414545 178.085647 
" clip-path="url(#p9b1df41fe1)" style="fill: none; stroke: #000000; stroke-opacity: 0.2; stroke-width: 1.5; stroke-linecap: square"/>
   </g>
   <g id="line2d_63">
    <path d="M 91.869091 195.142871 
L 164.014545 183.921163 
L 236.16 172.188138 
L 308.305455 161.091966 
L 380.450909 150.727184 
" clip-path="url(#p9b1df41fe1)" style="fill: none; stroke: #ff0000; stroke-width: 1.5; stroke-linecap: square"/>
   </g>
   <g id="line2d_64">
    <path d="M 91.869091 153.913205 
L 91.869091 195.142795 
" clip-path="url(#p9b1df41fe1)" style="fill: none; stroke-dasharray: 5.55,2.4; stroke-dashoffset: 0; stroke: #000000; stroke-width: 1.5"/>
   </g>
   <g id="line2d_65">
    <path d="M 164.014545 165.134871 
L 164.014545 183.921129 
" clip-path="url(#p9b1df41fe1)" style="fill: none; stroke-dasharray: 5.55,2.4; stroke-dashoffset: 0; stroke: #000000; stroke-width: 1.5"/>
   </g>
   <g id="line2d_66">
    <path d="M 236.16 172.188147 
L 236.16 176.867853 
" clip-path="url(#p9b1df41fe1)" style="fill: none; stroke-dasharray: 5.55,2.4; stroke-dashoffset: 0; stroke: #000000; stroke-width: 1.5"/>
   </g>
   <g id="line2d_67">
    <path d="M 308.305455 161.092015 
L 308.305455 187.963985 
" clip-path="url(#p9b1df41fe1)" style="fill: none; stroke-dasharray: 5.55,2.4; stroke-dashoffset: 0; stroke: #000000; stroke-width: 1.5"/>
   </g>
   <g id="line2d_68">
    <path d="M 380.450909 150.727271 
L 380.450909 198.328729 
" clip-path="url(#p9b1df41fe1)" style="fill: none; stroke-dasharray: 5.55,2.4; stroke-dashoffset: 0; stroke: #000000; stroke-width: 1.5"/>
   </g>
   <g id="patch_24">
    <path d="M 57.6 213.662118 
L 57.6 135.393882 
" style="fill: none; stroke: #000000; stroke-width: 0.8; stroke-linejoin: miter; stroke-linecap: square"/>
   </g>
   <g id="patch_25">
    <path d="M 414.72 213.662118 
L 414.72 135.393882 
" style="fill: none; stroke: #000000; stroke-width: 0.8; stroke-linejoin: miter; stroke-linecap: square"/>
   </g>
   <g id="patch_26">
    <path d="M 57.6 213.662118 
L 414.72 213.662118 
" style="fill: none; stroke: #000000; stroke-width: 0.8; stroke-linejoin: miter; stroke-linecap: square"/>
   </g>
   <g id="patch_27">
    <path d="M 57.6 135.393882 
L 414.72 135.393882 
" style="fill: none; stroke: #000000; stroke-width: 0.8; stroke-linejoin: miter; stroke-linecap: square"/>
   </g>
  </g>
  <g id="axes_3">
   <g id="patch_28">
    <path d="M 57.6 307.584 
L 414.72 307.584 
L 414.72 229.315765 
L 57.6 229.315765 
z
" style="fill: #ffffff"/>
   </g>
   <g id="patch_29">
    <path d="M 73.832727 300.468706 
L 109.905455 300.468706 
L 109.905455 236.431059 
L 73.832727 236.431059 
z
" clip-path="url(#p2e01fa0d6d)" style="fill: #a9a9a9; opacity: 0.2; stroke: #000000; stroke-width: 1.5; stroke-linejoin: miter"/>
   </g>
   <g id="patch_30">
    <path d="M 145.978182 277.344 
L 182.050909 277.344 
L 182.050909 259.555765 
L 145.978182 259.555765 
z
" clip-path="url(#p2e01fa0d6d)" style="fill: #a9a9a9; opacity: 0.2; stroke: #000000; stroke-width: 1.5; stroke-linejoin: miter"/>
   </g>
   <g id="patch_31">
    <path d="M 145.978182 277.344 
L 182.050909 277.344 
L 182.050909 259.555765 
L 145.978182 259.555765 
z
" clip-path="url(#p2e01fa0d6d)" style="fill: #a9a9a9; opacity: 0.2; stroke: #000000; stroke-width: 1.5; stroke-linejoin: miter"/>
   </g>
   <g id="patch_32">
    <path d="M 218.123636 287.621647 
L 254.196364 287.621647 
L 254.196364 249.278118 
L 218.123636 249.278118 
z
" clip-path="url(#p2e01fa0d6d)" style="fill: #a9a9a9; opacity: 0.2; stroke: #000000; stroke-width: 1.5; stroke-linejoin: miter"/>
   </g>
   <g id="patch_33">
    <path d="M 218.123636 287.621647 
L 254.196364 287.621647 
L 254.196364 249.278118 
L 218.123636 249.278118 
z
" clip-path="url(#p2e01fa0d6d)" style="fill: #a9a9a9; opacity: 0.2; stroke: #000000; stroke-width: 1.5; stroke-linejoin: miter"/>
   </g>
   <g id="patch_34">
    <path d="M 290.269091 277.344 
L 326.341818 277.344 
L 326.341818 259.555765 
L 290.269091 259.555765 
z
" clip-path="url(#p2e01fa0d6d)" style="fill: #a9a9a9; opacity: 0.2; stroke: #000000; stroke-width: 1.5; stroke-linejoin: miter"/>
   </g>
   <g id="patch_35">
    <path d="M 290.269091 277.344 
L 326.341818 277.344 
L 326.341818 259.555765 
L 290.269091 259.555765 
z
" clip-path="url(#p2e01fa0d6d)" style="fill: #a9a9a9; opacity: 0.2; stroke: #000000; stroke-width: 1.5; stroke-linejoin: miter"/>
   </g>
   <g id="patch_36">
    <path d="M 362.414545 295.329882 
L 398.487273 295.329882 
L 398.487273 241.569882 
L 362.414545 241.569882 
z
" clip-path="url(#p2e01fa0d6d)" style="fill: #a9a9a9; opacity: 0.2; stroke: #000000; stroke-width: 1.5; stroke-linejoin: miter"/>
   </g>
   <g id="matplotlib.axis_5">
    <g id="xtick_11">
     <g id="line2d_69">
      <g>
       <use xlink:href="#m859f60060e" x="91.869091" y="307.584" style="stroke: #000000; stroke-width: 0.8"/>
      </g>
     </g>
     <g id="text_7">
      <!-- 0 -->
      <g transform="translate(88.687841 322.182437) scale(0.1 -0.1)">
       <use xlink:href="#DejaVuSans-30"/>
      </g>
     </g>
    </g>
    <g id="xtick_12">
     <g id="line2d_70">
      <g>
       <use xlink:href="#m859f60060e" x="164.014545" y="307.584" style="stroke: #000000; stroke-width: 0.8"/>
      </g>
     </g>
     <g id="text_8">
      <!-- 1 -->
      <g transform="translate(160.833295 322.182437) scale(0.1 -0.1)">
       <use xlink:href="#DejaVuSans-31"/>
      </g>
     </g>
    </g>
    <g id="xtick_13">
     <g id="line2d_71">
      <g>
       <use xlink:href="#m859f60060e" x="236.16" y="307.584" style="stroke: #000000; stroke-width: 0.8"/>
      </g>
     </g>
     <g id="text_9">
      <!-- 2 -->
      <g transform="translate(232.97875 322.182437) scale(0.1 -0.1)">
       <defs>
        <path id="DejaVuSans-32" d="M 1228 531 
L 3431 531 
L 3431 0 
L 469 0 
L 469 531 
Q 828 903 1448 1529 
Q 2069 2156 2228 2338 
Q 2531 2678 2651 2914 
Q 2772 3150 2772 3378 
Q 2772 3750 2511 3984 
Q 2250 4219 1831 4219 
Q 1534 4219 1204 4116 
Q 875 4013 500 3803 
L 500 4441 
Q 881 4594 1212 4672 
Q 1544 4750 1819 4750 
Q 2544 4750 2975 4387 
Q 3406 4025 3406 3419 
Q 3406 3131 3298 2873 
Q 3191 2616 2906 2266 
Q 2828 2175 2409 1742 
Q 1991 1309 1228 531 
z
" transform="scale(0.015625)"/>
       </defs>
       <use xlink:href="#DejaVuSans-32"/>
      </g>
     </g>
    </g>
    <g id="xtick_14">
     <g id="line2d_72">
      <g>
       <use xlink:href="#m859f60060e" x="308.305455" y="307.584" style="stroke: #000000; stroke-width: 0.8"/>
      </g>
     </g>
     <g id="text_10">
      <!-- 3 -->
      <g transform="translate(305.124205 322.182437) scale(0.1 -0.1)">
       <defs>
        <path id="DejaVuSans-33" d="M 2597 2516 
Q 3050 2419 3304 2112 
Q 3559 1806 3559 1356 
Q 3559 666 3084 287 
Q 2609 -91 1734 -91 
Q 1441 -91 1130 -33 
Q 819 25 488 141 
L 488 750 
Q 750 597 1062 519 
Q 1375 441 1716 441 
Q 2309 441 2620 675 
Q 2931 909 2931 1356 
Q 2931 1769 2642 2001 
Q 2353 2234 1838 2234 
L 1294 2234 
L 1294 2753 
L 1863 2753 
Q 2328 2753 2575 2939 
Q 2822 3125 2822 3475 
Q 2822 3834 2567 4026 
Q 2313 4219 1838 4219 
Q 1578 4219 1281 4162 
Q 984 4106 628 3988 
L 628 4550 
Q 988 4650 1302 4700 
Q 1616 4750 1894 4750 
Q 2613 4750 3031 4423 
Q 3450 4097 3450 3541 
Q 3450 3153 3228 2886 
Q 3006 2619 2597 2516 
z
" transform="scale(0.015625)"/>
       </defs>
       <use xlink:href="#DejaVuSans-33"/>
      </g>
     </g>
    </g>
    <g id="xtick_15">
     <g id="line2d_73">
      <g>
       <use xlink:href="#m859f60060e" x="380.450909" y="307.584" style="stroke: #000000; stroke-width: 0.8"/>
      </g>
     </g>
     <g id="text_11">
      <!-- 4 -->
      <g transform="translate(377.269659 322.182437) scale(0.1 -0.1)">
       <defs>
        <path id="DejaVuSans-34" d="M 2419 4116 
L 825 1625 
L 2419 1625 
L 2419 4116 
z
M 2253 4666 
L 3047 4666 
L 3047 1625 
L 3713 1625 
L 3713 1100 
L 3047 1100 
L 3047 0 
L 2419 0 
L 2419 1100 
L 313 1100 
L 313 1709 
L 2253 4666 
z
" transform="scale(0.015625)"/>
       </defs>
       <use xlink:href="#DejaVuSans-34"/>
      </g>
     </g>
    </g>
   </g>
   <g id="matplotlib.axis_6">
    <g id="ytick_7">
     <g id="line2d_74">
      <g>
       <use xlink:href="#m6c690154bd" x="57.6" y="304.026353" style="stroke: #000000; stroke-width: 0.8"/>
      </g>
     </g>
     <g id="text_12">
      <!-- −1 -->
      <g transform="translate(35.857813 307.825572) scale(0.1 -0.1)">
       <use xlink:href="#DejaVuSans-2212"/>
       <use xlink:href="#DejaVuSans-31" x="83.789062"/>
      </g>
     </g>
    </g>
    <g id="ytick_8">
     <g id="line2d_75">
      <g>
       <use xlink:href="#m6c690154bd" x="57.6" y="268.449882" style="stroke: #000000; stroke-width: 0.8"/>
      </g>
     </g>
     <g id="text_13">
      <!-- 0 -->
      <g transform="translate(44.2375 272.249101) scale(0.1 -0.1)">
       <use xlink:href="#DejaVuSans-30"/>
      </g>
     </g>
    </g>
    <g id="ytick_9">
     <g id="line2d_76">
      <g>
       <use xlink:href="#m6c690154bd" x="57.6" y="232.873412" style="stroke: #000000; stroke-width: 0.8"/>
      </g>
     </g>
     <g id="text_14">
      <!-- 1 -->
      <g transform="translate(44.2375 236.672631) scale(0.1 -0.1)">
       <use xlink:href="#DejaVuSans-31"/>
      </g>
     </g>
    </g>
   </g>
   <g id="line2d_77">
    <path d="M 109.905455 264.892235 
L 117.12 272.007529 
" clip-path="url(#p2e01fa0d6d)" style="fill: none; stroke: #000000; stroke-opacity: 0.2; stroke-width: 1.5; stroke-linecap: square"/>
   </g>
   <g id="line2d_78">
    <path d="M 117.12 272.007529 
L 124.334545 264.892235 
" clip-path="url(#p2e01fa0d6d)" style="fill: none; stroke: #000000; stroke-opacity: 0.2; stroke-width: 1.5; stroke-linecap: square"/>
   </g>
   <g id="line2d_79">
    <path d="M 124.334545 264.892235 
L 131.549091 272.007529 
" clip-path="url(#p2e01fa0d6d)" style="fill: none; stroke: #000000; stroke-opacity: 0.2; stroke-width: 1.5; stroke-linecap: square"/>
   </g>
   <g id="line2d_80">
    <path d="M 131.549091 272.007529 
L 138.763636 264.892235 
" clip-path="url(#p2e01fa0d6d)" style="fill: none; stroke: #000000; stroke-opacity: 0.2; stroke-width: 1.5; stroke-linecap: square"/>
   </g>
   <g id="line2d_81">
    <path d="M 138.763636 264.892235 
L 145.978182 272.007529 
" clip-path="url(#p2e01fa0d6d)" style="fill: none; stroke: #000000; stroke-opacity: 0.2; stroke-width: 1.5; stroke-linecap: square"/>
   </g>
   <g id="line2d_82">
    <path d="M 182.050909 264.892235 
L 189.265455 272.007529 
" clip-path="url(#p2e01fa0d6d)" style="fill: none; stroke: #000000; stroke-opacity: 0.2; stroke-width: 1.5; stroke-linecap: square"/>
   </g>
   <g id="line2d_83">
    <path d="M 189.265455 272.007529 
L 196.48 264.892235 
" clip-path="url(#p2e01fa0d6d)" style="fill: none; stroke: #000000; stroke-opacity: 0.2; stroke-width: 1.5; stroke-linecap: square"/>
   </g>
   <g id="line2d_84">
    <path d="M 196.48 264.892235 
L 203.694545 272.007529 
" clip-path="url(#p2e01fa0d6d)" style="fill: none; stroke: #000000; stroke-opacity: 0.2; stroke-width: 1.5; stroke-linecap: square"/>
   </g>
   <g id="line2d_85">
    <path d="M 203.694545 272.007529 
L 210.909091 264.892235 
" clip-path="url(#p2e01fa0d6d)" style="fill: none; stroke: #000000; stroke-opacity: 0.2; stroke-width: 1.5; stroke-linecap: square"/>
   </g>
   <g id="line2d_86">
    <path d="M 210.909091 264.892235 
L 218.123636 272.007529 
" clip-path="url(#p2e01fa0d6d)" style="fill: none; stroke: #000000; stroke-opacity: 0.2; stroke-width: 1.5; stroke-linecap: square"/>
   </g>
   <g id="line2d_87">
    <path d="M 254.196364 264.892235 
L 261.410909 272.007529 
" clip-path="url(#p2e01fa0d6d)" style="fill: none; stroke: #000000; stroke-opacity: 0.2; stroke-width: 1.5; stroke-linecap: square"/>
   </g>
   <g id="line2d_88">
    <path d="M 261.410909 272.007529 
L 268.625455 264.892235 
" clip-path="url(#p2e01fa0d6d)" style="fill: none; stroke: #000000; stroke-opacity: 0.2; stroke-width: 1.5; stroke-linecap: square"/>
   </g>
   <g id="line2d_89">
    <path d="M 268.625455 264.892235 
L 275.84 272.007529 
" clip-path="url(#p2e01fa0d6d)" style="fill: none; stroke: #000000; stroke-opacity: 0.2; stroke-width: 1.5; stroke-linecap: square"/>
   </g>
   <g id="line2d_90">
    <path d="M 275.84 272.007529 
L 283.054545 264.892235 
" clip-path="url(#p2e01fa0d6d)" style="fill: none; stroke: #000000; stroke-opacity: 0.2; stroke-width: 1.5; stroke-linecap: square"/>
   </g>
   <g id="line2d_91">
    <path d="M 283.054545 264.892235 
L 290.269091 272.007529 
" clip-path="url(#p2e01fa0d6d)" style="fill: none; stroke: #000000; stroke-opacity: 0.2; stroke-width: 1.5; stroke-linecap: square"/>
   </g>
   <g id="line2d_92">
    <path d="M 326.341818 264.892235 
L 333.556364 272.007529 
" clip-path="url(#p2e01fa0d6d)" style="fill: none; stroke: #000000; stroke-opacity: 0.2; stroke-width: 1.5; stroke-linecap: square"/>
   </g>
   <g id="line2d_93">
    <path d="M 333.556364 272.007529 
L 340.770909 264.892235 
" clip-path="url(#p2e01fa0d6d)" style="fill: none; stroke: #000000; stroke-opacity: 0.2; stroke-width: 1.5; stroke-linecap: square"/>
   </g>
   <g id="line2d_94">
    <path d="M 340.770909 264.892235 
L 347.985455 272.007529 
" clip-path="url(#p2e01fa0d6d)" style="fill: none; stroke: #000000; stroke-opacity: 0.2; stroke-width: 1.5; stroke-linecap: square"/>
   </g>
   <g id="line2d_95">
    <path d="M 347.985455 272.007529 
L 355.2 264.892235 
" clip-path="url(#p2e01fa0d6d)" style="fill: none; stroke: #000000; stroke-opacity: 0.2; stroke-width: 1.5; stroke-linecap: square"/>
   </g>
   <g id="line2d_96">
    <path d="M 355.2 264.892235 
L 362.414545 272.007529 
" clip-path="url(#p2e01fa0d6d)" style="fill: none; stroke: #000000; stroke-opacity: 0.2; stroke-width: 1.5; stroke-linecap: square"/>
   </g>
   <g id="line2d_97">
    <path d="M 91.869091 276.566243 
L 164.014545 256.586628 
L 236.16 239.527328 
L 308.305455 258.066587 
L 380.450909 279.161847 
" clip-path="url(#p2e01fa0d6d)" style="fill: none; stroke: #ff0000; stroke-width: 1.5; stroke-linecap: square"/>
   </g>
   <g id="line2d_98">
    <path d="M 91.869091 260.333528 
L 91.869091 276.566236 
" clip-path="url(#p2e01fa0d6d)" style="fill: none; stroke-dasharray: 5.55,2.4; stroke-dashoffset: 0; stroke: #000000; stroke-width: 1.5"/>
   </g>
   <g id="line2d_99">
    <path d="M 164.014545 256.586638 
L 164.014545 280.313127 
" clip-path="url(#p2e01fa0d6d)" style="fill: none; stroke-dasharray: 5.55,2.4; stroke-dashoffset: 0; stroke: #000000; stroke-width: 1.5"/>
   </g>
   <g id="line2d_100">
    <path d="M 236.16 239.527352 
L 236.16 297.372413 
" clip-path="url(#p2e01fa0d6d)" style="fill: none; stroke-dasharray: 5.55,2.4; stroke-dashoffset: 0; stroke: #000000; stroke-width: 1.5"/>
   </g>
   <g id="line2d_101">
    <path d="M 308.305455 258.066595 
L 308.305455 278.833169 
" clip-path="url(#p2e01fa0d6d)" style="fill: none; stroke-dasharray: 5.55,2.4; stroke-dashoffset: 0; stroke: #000000; stroke-width: 1.5"/>
   </g>
   <g id="line2d_102">
    <path d="M 380.450909 257.737927 
L 380.450909 279.161838 
" clip-path="url(#p2e01fa0d6d)" style="fill: none; stroke-dasharray: 5.55,2.4; stroke-dashoffset: 0; stroke: #000000; stroke-width: 1.5"/>
   </g>
   <g id="patch_37">
    <path d="M 57.6 307.584 
L 57.6 229.315765 
" style="fill: none; stroke: #000000; stroke-width: 0.8; stroke-linejoin: miter; stroke-linecap: square"/>
   </g>
   <g id="patch_38">
    <path d="M 414.72 307.584 
L 414.72 229.315765 
" style="fill: none; stroke: #000000; stroke-width: 0.8; stroke-linejoin: miter; stroke-linecap: square"/>
   </g>
   <g id="patch_39">
    <path d="M 57.6 307.584 
L 414.72 307.584 
" style="fill: none; stroke: #000000; stroke-width: 0.8; stroke-linejoin: miter; stroke-linecap: square"/>
   </g>
   <g id="patch_40">
    <path d="M 57.6 229.315765 
L 414.72 229.315765 
" style="fill: none; stroke: #000000; stroke-width: 0.8; stroke-linejoin: miter; stroke-linecap: square"/>
   </g>
  </g>
 </g>
 <defs>
  <clipPath id="p6bccc6c7a8">
   <rect x="57.6" y="41.472" width="357.12" height="78.268235"/>
  </clipPath>
  <clipPath id="p9b1df41fe1">
   <rect x="57.6" y="135.393882" width="357.12" height="78.268235"/>
  </clipPath>
  <clipPath id="p2e01fa0d6d">
   <rect x="57.6" y="229.315765" width="357.12" height="78.268235"/>
  </clipPath>
 </defs>
</svg>
