<?xml version="1.0" encoding="utf-8" standalone="no"?>
<!DOCTYPE svg PUBLIC "-//W3C//DTD SVG 1.1//EN"
  "http://www.w3.org/Graphics/SVG/1.1/DTD/svg11.dtd">
<svg xmlns:xlink="http://www.w3.org/1999/xlink" width="576pt" height="576pt" viewBox="0 0 576 576" xmlns="http://www.w3.org/2000/svg" version="1.1">
 <metadata>
  <rdf:RDF xmlns:dc="http://purl.org/dc/elements/1.1/" xmlns:cc="http://creativecommons.org/ns#" xmlns:rdf="http://www.w3.org/1999/02/22-rdf-syntax-ns#">
   <cc:Work>
    <dc:type rdf:resource="http://purl.org/dc/dcmitype/StillImage"/>
    <dc:date>2024-05-16T12:06:00.127557</dc:date>
    <dc:format>image/svg+xml</dc:format>
    <dc:creator>
     <cc:Agent>
      <dc:title>Matplotlib v3.7.5, https://matplotlib.org/</dc:title>
     </cc:Agent>
    </dc:creator>
   </cc:Work>
  </rdf:RDF>
 </metadata>
 <defs>
  <style type="text/css">*{stroke-linejoin: round; stroke-linecap: butt}</style>
 </defs>
 <g id="figure_1">
  <g id="patch_1">
   <path d="M 0 576 
L 576 576 
L 576 0 
L 0 0 
z
" style="fill: #ffffff"/>
  </g>
  <g id="axes_1">
   <g id="patch_2">
    <path d="M 65.45 110.14 
L 547.83 110.14 
L 547.83 26.88 
L 65.45 26.88 
z
" style="fill: #ffffff"/>
   </g>
   <g id="matplotlib.axis_1">
    <g id="xtick_1">
     <g id="line2d_1">
      <defs>
       <path id="m7bb7ce4319" d="M 0 0 
L 0 3.5 
" style="stroke: #000000; stroke-width: 0.8"/>
      </defs>
      <g>
       <use xlink:href="#m7bb7ce4319" x="87.376364" y="110.14" style="stroke: #000000; stroke-width: 0.8"/>
      </g>
     </g>
     <g id="text_1">
      <!-- 0.0000 -->
      <g transform="translate(69.881051 124.738437) scale(0.1 -0.1)">
       <defs>
        <path id="DejaVuSans-30" d="M 2034 4250 
Q 1547 4250 1301 3770 
Q 1056 3291 1056 2328 
Q 1056 1369 1301 889 
Q 1547 409 2034 409 
Q 2525 409 2770 889 
Q 3016 1369 3016 2328 
Q 3016 3291 2770 3770 
Q 2525 4250 2034 4250 
z
M 2034 4750 
Q 2819 4750 3233 4129 
Q 3647 3509 3647 2328 
Q 3647 1150 3233 529 
Q 2819 -91 2034 -91 
Q 1250 -91 836 529 
Q 422 1150 422 2328 
Q 422 3509 836 4129 
Q 1250 4750 2034 4750 
z
" transform="scale(0.015625)"/>
        <path id="DejaVuSans-2e" d="M 684 794 
L 1344 794 
L 1344 0 
L 684 0 
L 684 794 
z
" transform="scale(0.015625)"/>
       </defs>
       <use xlink:href="#DejaVuSans-30"/>
       <use xlink:href="#DejaVuSans-2e" x="63.623047"/>
       <use xlink:href="#DejaVuSans-30" x="95.410156"/>
       <use xlink:href="#DejaVuSans-30" x="159.033203"/>
       <use xlink:href="#DejaVuSans-30" x="222.65625"/>
       <use xlink:href="#DejaVuSans-30" x="286.279297"/>
      </g>
     </g>
    </g>
    <g id="xtick_2">
     <g id="line2d_2">
      <g>
       <use xlink:href="#m7bb7ce4319" x="153.155455" y="110.14" style="stroke: #000000; stroke-width: 0.8"/>
      </g>
     </g>
     <g id="text_2">
      <!-- 0.0025 -->
      <g transform="translate(135.660142 124.738437) scale(0.1 -0.1)">
       <defs>
        <path id="DejaVuSans-32" d="M 1228 531 
L 3431 531 
L 3431 0 
L 469 0 
L 469 531 
Q 828 903 1448 1529 
Q 2069 2156 2228 2338 
Q 2531 2678 2651 2914 
Q 2772 3150 2772 3378 
Q 2772 3750 2511 3984 
Q 2250 4219 1831 4219 
Q 1534 4219 1204 4116 
Q 875 4013 500 3803 
L 500 4441 
Q 881 4594 1212 4672 
Q 1544 4750 1819 4750 
Q 2544 4750 2975 4387 
Q 3406 4025 3406 3419 
Q 3406 3131 3298 2873 
Q 3191 2616 2906 2266 
Q 2828 2175 2409 1742 
Q 1991 1309 1228 531 
z
" transform="scale(0.015625)"/>
        <path id="DejaVuSans-35" d="M 691 4666 
L 3169 4666 
L 3169 4134 
L 1269 4134 
L 1269 2991 
Q 1406 3038 1543 3061 
Q 1681 3084 1819 3084 
Q 2600 3084 3056 2656 
Q 3513 2228 3513 1497 
Q 3513 744 3044 326 
Q 2575 -91 1722 -91 
Q 1428 -91 1123 -41 
Q 819 9 494 109 
L 494 744 
Q 775 591 1075 516 
Q 1375 441 1709 441 
Q 2250 441 2565 725 
Q 2881 1009 2881 1497 
Q 2881 1984 2565 2268 
Q 2250 2553 1709 2553 
Q 1456 2553 1204 2497 
Q 953 2441 691 2322 
L 691 4666 
z
" transform="scale(0.015625)"/>
       </defs>
       <use xlink:href="#DejaVuSans-30"/>
       <use xlink:href="#DejaVuSans-2e" x="63.623047"/>
       <use xlink:href="#DejaVuSans-30" x="95.410156"/>
       <use xlink:href="#DejaVuSans-30" x="159.033203"/>
       <use xlink:href="#DejaVuSans-32" x="222.65625"/>
       <use xlink:href="#DejaVuSans-35" x="286.279297"/>
      </g>
     </g>
    </g>
    <g id="xtick_3">
     <g id="line2d_3">
      <g>
       <use xlink:href="#m7bb7ce4319" x="218.934545" y="110.14" style="stroke: #000000; stroke-width: 0.8"/>
      </g>
     </g>
     <g id="text_3">
      <!-- 0.0050 -->
      <g transform="translate(201.439233 124.738437) scale(0.1 -0.1)">
       <use xlink:href="#DejaVuSans-30"/>
       <use xlink:href="#DejaVuSans-2e" x="63.623047"/>
       <use xlink:href="#DejaVuSans-30" x="95.410156"/>
       <use xlink:href="#DejaVuSans-30" x="159.033203"/>
       <use xlink:href="#DejaVuSans-35" x="222.65625"/>
       <use xlink:href="#DejaVuSans-30" x="286.279297"/>
      </g>
     </g>
    </g>
    <g id="xtick_4">
     <g id="line2d_4">
      <g>
       <use xlink:href="#m7bb7ce4319" x="284.713636" y="110.14" style="stroke: #000000; stroke-width: 0.8"/>
      </g>
     </g>
     <g id="text_4">
      <!-- 0.0075 -->
      <g transform="translate(267.218324 124.738437) scale(0.1 -0.1)">
       <defs>
        <path id="DejaVuSans-37" d="M 525 4666 
L 3525 4666 
L 3525 4397 
L 1831 0 
L 1172 0 
L 2766 4134 
L 525 4134 
L 525 4666 
z
" transform="scale(0.015625)"/>
       </defs>
       <use xlink:href="#DejaVuSans-30"/>
       <use xlink:href="#DejaVuSans-2e" x="63.623047"/>
       <use xlink:href="#DejaVuSans-30" x="95.410156"/>
       <use xlink:href="#DejaVuSans-30" x="159.033203"/>
       <use xlink:href="#DejaVuSans-37" x="222.65625"/>
       <use xlink:href="#DejaVuSans-35" x="286.279297"/>
      </g>
     </g>
    </g>
    <g id="xtick_5">
     <g id="line2d_5">
      <g>
       <use xlink:href="#m7bb7ce4319" x="350.492727" y="110.14" style="stroke: #000000; stroke-width: 0.8"/>
      </g>
     </g>
     <g id="text_5">
      <!-- 0.0100 -->
      <g transform="translate(332.997415 124.738437) scale(0.1 -0.1)">
       <defs>
        <path id="DejaVuSans-31" d="M 794 531 
L 1825 531 
L 1825 4091 
L 703 3866 
L 703 4441 
L 1819 4666 
L 2450 4666 
L 2450 531 
L 3481 531 
L 3481 0 
L 794 0 
L 794 531 
z
" transform="scale(0.015625)"/>
       </defs>
       <use xlink:href="#DejaVuSans-30"/>
       <use xlink:href="#DejaVuSans-2e" x="63.623047"/>
       <use xlink:href="#DejaVuSans-30" x="95.410156"/>
       <use xlink:href="#DejaVuSans-31" x="159.033203"/>
       <use xlink:href="#DejaVuSans-30" x="222.65625"/>
       <use xlink:href="#DejaVuSans-30" x="286.279297"/>
      </g>
     </g>
    </g>
    <g id="xtick_6">
     <g id="line2d_6">
      <g>
       <use xlink:href="#m7bb7ce4319" x="416.271818" y="110.14" style="stroke: #000000; stroke-width: 0.8"/>
      </g>
     </g>
     <g id="text_6">
      <!-- 0.0125 -->
      <g transform="translate(398.776506 124.738437) scale(0.1 -0.1)">
       <use xlink:href="#DejaVuSans-30"/>
       <use xlink:href="#DejaVuSans-2e" x="63.623047"/>
       <use xlink:href="#DejaVuSans-30" x="95.410156"/>
       <use xlink:href="#DejaVuSans-31" x="159.033203"/>
       <use xlink:href="#DejaVuSans-32" x="222.65625"/>
       <use xlink:href="#DejaVuSans-35" x="286.279297"/>
      </g>
     </g>
    </g>
    <g id="xtick_7">
     <g id="line2d_7">
      <g>
       <use xlink:href="#m7bb7ce4319" x="482.050909" y="110.14" style="stroke: #000000; stroke-width: 0.8"/>
      </g>
     </g>
     <g id="text_7">
      <!-- 0.0150 -->
      <g transform="translate(464.555597 124.738437) scale(0.1 -0.1)">
       <use xlink:href="#DejaVuSans-30"/>
       <use xlink:href="#DejaVuSans-2e" x="63.623047"/>
       <use xlink:href="#DejaVuSans-30" x="95.410156"/>
       <use xlink:href="#DejaVuSans-31" x="159.033203"/>
       <use xlink:href="#DejaVuSans-35" x="222.65625"/>
       <use xlink:href="#DejaVuSans-30" x="286.279297"/>
      </g>
     </g>
    </g>
    <g id="xtick_8">
     <g id="line2d_8">
      <g>
       <use xlink:href="#m7bb7ce4319" x="547.83" y="110.14" style="stroke: #000000; stroke-width: 0.8"/>
      </g>
     </g>
     <g id="text_8">
      <!-- 0.0175 -->
      <g transform="translate(530.334687 124.738437) scale(0.1 -0.1)">
       <use xlink:href="#DejaVuSans-30"/>
       <use xlink:href="#DejaVuSans-2e" x="63.623047"/>
       <use xlink:href="#DejaVuSans-30" x="95.410156"/>
       <use xlink:href="#DejaVuSans-31" x="159.033203"/>
       <use xlink:href="#DejaVuSans-37" x="222.65625"/>
       <use xlink:href="#DejaVuSans-35" x="286.279297"/>
      </g>
     </g>
    </g>
    <g id="text_9">
     <!-- Time (s) -->
     <g transform="translate(286.311094 138.416562) scale(0.1 -0.1)">
      <defs>
       <path id="DejaVuSans-54" d="M -19 4666 
L 3928 4666 
L 3928 4134 
L 2272 4134 
L 2272 0 
L 1638 0 
L 1638 4134 
L -19 4134 
L -19 4666 
z
" transform="scale(0.015625)"/>
       <path id="DejaVuSans-69" d="M 603 3500 
L 1178 3500 
L 1178 0 
L 603 0 
L 603 3500 
z
M 603 4863 
L 1178 4863 
L 1178 4134 
L 603 4134 
L 603 4863 
z
" transform="scale(0.015625)"/>
       <path id="DejaVuSans-6d" d="M 3328 2828 
Q 3544 3216 3844 3400 
Q 4144 3584 4550 3584 
Q 5097 3584 5394 3201 
Q 5691 2819 5691 2113 
L 5691 0 
L 5113 0 
L 5113 2094 
Q 5113 2597 4934 2840 
Q 4756 3084 4391 3084 
Q 3944 3084 3684 2787 
Q 3425 2491 3425 1978 
L 3425 0 
L 2847 0 
L 2847 2094 
Q 2847 2600 2669 2842 
Q 2491 3084 2119 3084 
Q 1678 3084 1418 2786 
Q 1159 2488 1159 1978 
L 1159 0 
L 581 0 
L 581 3500 
L 1159 3500 
L 1159 2956 
Q 1356 3278 1631 3431 
Q 1906 3584 2284 3584 
Q 2666 3584 2933 3390 
Q 3200 3197 3328 2828 
z
" transform="scale(0.015625)"/>
       <path id="DejaVuSans-65" d="M 3597 1894 
L 3597 1613 
L 953 1613 
Q 991 1019 1311 708 
Q 1631 397 2203 397 
Q 2534 397 2845 478 
Q 3156 559 3463 722 
L 3463 178 
Q 3153 47 2828 -22 
Q 2503 -91 2169 -91 
Q 1331 -91 842 396 
Q 353 884 353 1716 
Q 353 2575 817 3079 
Q 1281 3584 2069 3584 
Q 2775 3584 3186 3129 
Q 3597 2675 3597 1894 
z
M 3022 2063 
Q 3016 2534 2758 2815 
Q 2500 3097 2075 3097 
Q 1594 3097 1305 2825 
Q 1016 2553 972 2059 
L 3022 2063 
z
" transform="scale(0.015625)"/>
       <path id="DejaVuSans-20" transform="scale(0.015625)"/>
       <path id="DejaVuSans-28" d="M 1984 4856 
Q 1566 4138 1362 3434 
Q 1159 2731 1159 2009 
Q 1159 1288 1364 580 
Q 1569 -128 1984 -844 
L 1484 -844 
Q 1016 -109 783 600 
Q 550 1309 550 2009 
Q 550 2706 781 3412 
Q 1013 4119 1484 4856 
L 1984 4856 
z
" transform="scale(0.015625)"/>
       <path id="DejaVuSans-73" d="M 2834 3397 
L 2834 2853 
Q 2591 2978 2328 3040 
Q 2066 3103 1784 3103 
Q 1356 3103 1142 2972 
Q 928 2841 928 2578 
Q 928 2378 1081 2264 
Q 1234 2150 1697 2047 
L 1894 2003 
Q 2506 1872 2764 1633 
Q 3022 1394 3022 966 
Q 3022 478 2636 193 
Q 2250 -91 1575 -91 
Q 1294 -91 989 -36 
Q 684 19 347 128 
L 347 722 
Q 666 556 975 473 
Q 1284 391 1588 391 
Q 1994 391 2212 530 
Q 2431 669 2431 922 
Q 2431 1156 2273 1281 
Q 2116 1406 1581 1522 
L 1381 1569 
Q 847 1681 609 1914 
Q 372 2147 372 2553 
Q 372 3047 722 3315 
Q 1072 3584 1716 3584 
Q 2034 3584 2315 3537 
Q 2597 3491 2834 3397 
z
" transform="scale(0.015625)"/>
       <path id="DejaVuSans-29" d="M 513 4856 
L 1013 4856 
Q 1481 4119 1714 3412 
Q 1947 2706 1947 2009 
Q 1947 1309 1714 600 
Q 1481 -109 1013 -844 
L 513 -844 
Q 928 -128 1133 580 
Q 1338 1288 1338 2009 
Q 1338 2731 1133 3434 
Q 928 4138 513 4856 
z
" transform="scale(0.015625)"/>
      </defs>
      <use xlink:href="#DejaVuSans-54"/>
      <use xlink:href="#DejaVuSans-69" x="57.958984"/>
      <use xlink:href="#DejaVuSans-6d" x="85.742188"/>
      <use xlink:href="#DejaVuSans-65" x="183.154297"/>
      <use xlink:href="#DejaVuSans-20" x="244.677734"/>
      <use xlink:href="#DejaVuSans-28" x="276.464844"/>
      <use xlink:href="#DejaVuSans-73" x="315.478516"/>
      <use xlink:href="#DejaVuSans-29" x="367.578125"/>
     </g>
    </g>
   </g>
   <g id="matplotlib.axis_2">
    <g id="ytick_1">
     <g id="line2d_9">
      <defs>
       <path id="mebeb97cec8" d="M 0 0 
L -3.5 0 
" style="stroke: #000000; stroke-width: 0.8"/>
      </defs>
      <g>
       <use xlink:href="#mebeb97cec8" x="65.45" y="103.767093" style="stroke: #000000; stroke-width: 0.8"/>
      </g>
     </g>
     <g id="text_10">
      <!-- −2000 -->
      <g transform="translate(24.620313 107.566312) scale(0.1 -0.1)">
       <defs>
        <path id="DejaVuSans-2212" d="M 678 2272 
L 4684 2272 
L 4684 1741 
L 678 1741 
L 678 2272 
z
" transform="scale(0.015625)"/>
       </defs>
       <use xlink:href="#DejaVuSans-2212"/>
       <use xlink:href="#DejaVuSans-32" x="83.789062"/>
       <use xlink:href="#DejaVuSans-30" x="147.412109"/>
       <use xlink:href="#DejaVuSans-30" x="211.035156"/>
       <use xlink:href="#DejaVuSans-30" x="274.658203"/>
      </g>
     </g>
    </g>
    <g id="ytick_2">
     <g id="line2d_10">
      <g>
       <use xlink:href="#mebeb97cec8" x="65.45" y="67.917902" style="stroke: #000000; stroke-width: 0.8"/>
      </g>
     </g>
     <g id="text_11">
      <!-- 0 -->
      <g transform="translate(52.0875 71.717121) scale(0.1 -0.1)">
       <use xlink:href="#DejaVuSans-30"/>
      </g>
     </g>
    </g>
    <g id="ytick_3">
     <g id="line2d_11">
      <g>
       <use xlink:href="#mebeb97cec8" x="65.45" y="32.068711" style="stroke: #000000; stroke-width: 0.8"/>
      </g>
     </g>
     <g id="text_12">
      <!-- 2000 -->
      <g transform="translate(33 35.86793) scale(0.1 -0.1)">
       <use xlink:href="#DejaVuSans-32"/>
       <use xlink:href="#DejaVuSans-30" x="63.623047"/>
       <use xlink:href="#DejaVuSans-30" x="127.246094"/>
       <use xlink:href="#DejaVuSans-30" x="190.869141"/>
      </g>
     </g>
    </g>
    <g id="text_13">
     <!-- Torque (Nm) -->
     <g transform="translate(18.540625 99.262344) rotate(-90) scale(0.1 -0.1)">
      <defs>
       <path id="DejaVuSans-6f" d="M 1959 3097 
Q 1497 3097 1228 2736 
Q 959 2375 959 1747 
Q 959 1119 1226 758 
Q 1494 397 1959 397 
Q 2419 397 2687 759 
Q 2956 1122 2956 1747 
Q 2956 2369 2687 2733 
Q 2419 3097 1959 3097 
z
M 1959 3584 
Q 2709 3584 3137 3096 
Q 3566 2609 3566 1747 
Q 3566 888 3137 398 
Q 2709 -91 1959 -91 
Q 1206 -91 779 398 
Q 353 888 353 1747 
Q 353 2609 779 3096 
Q 1206 3584 1959 3584 
z
" transform="scale(0.015625)"/>
       <path id="DejaVuSans-72" d="M 2631 2963 
Q 2534 3019 2420 3045 
Q 2306 3072 2169 3072 
Q 1681 3072 1420 2755 
Q 1159 2438 1159 1844 
L 1159 0 
L 581 0 
L 581 3500 
L 1159 3500 
L 1159 2956 
Q 1341 3275 1631 3429 
Q 1922 3584 2338 3584 
Q 2397 3584 2469 3576 
Q 2541 3569 2628 3553 
L 2631 2963 
z
" transform="scale(0.015625)"/>
       <path id="DejaVuSans-71" d="M 947 1747 
Q 947 1113 1208 752 
Q 1469 391 1925 391 
Q 2381 391 2643 752 
Q 2906 1113 2906 1747 
Q 2906 2381 2643 2742 
Q 2381 3103 1925 3103 
Q 1469 3103 1208 2742 
Q 947 2381 947 1747 
z
M 2906 525 
Q 2725 213 2448 61 
Q 2172 -91 1784 -91 
Q 1150 -91 751 415 
Q 353 922 353 1747 
Q 353 2572 751 3078 
Q 1150 3584 1784 3584 
Q 2172 3584 2448 3432 
Q 2725 3281 2906 2969 
L 2906 3500 
L 3481 3500 
L 3481 -1331 
L 2906 -1331 
L 2906 525 
z
" transform="scale(0.015625)"/>
       <path id="DejaVuSans-75" d="M 544 1381 
L 544 3500 
L 1119 3500 
L 1119 1403 
Q 1119 906 1312 657 
Q 1506 409 1894 409 
Q 2359 409 2629 706 
Q 2900 1003 2900 1516 
L 2900 3500 
L 3475 3500 
L 3475 0 
L 2900 0 
L 2900 538 
Q 2691 219 2414 64 
Q 2138 -91 1772 -91 
Q 1169 -91 856 284 
Q 544 659 544 1381 
z
M 1991 3584 
L 1991 3584 
z
" transform="scale(0.015625)"/>
       <path id="DejaVuSans-4e" d="M 628 4666 
L 1478 4666 
L 3547 763 
L 3547 4666 
L 4159 4666 
L 4159 0 
L 3309 0 
L 1241 3903 
L 1241 0 
L 628 0 
L 628 4666 
z
" transform="scale(0.015625)"/>
      </defs>
      <use xlink:href="#DejaVuSans-54"/>
      <use xlink:href="#DejaVuSans-6f" x="44.083984"/>
      <use xlink:href="#DejaVuSans-72" x="105.265625"/>
      <use xlink:href="#DejaVuSans-71" x="144.628906"/>
      <use xlink:href="#DejaVuSans-75" x="208.105469"/>
      <use xlink:href="#DejaVuSans-65" x="271.484375"/>
      <use xlink:href="#DejaVuSans-20" x="333.007812"/>
      <use xlink:href="#DejaVuSans-28" x="364.794922"/>
      <use xlink:href="#DejaVuSans-4e" x="403.808594"/>
      <use xlink:href="#DejaVuSans-6d" x="478.613281"/>
      <use xlink:href="#DejaVuSans-29" x="576.025391"/>
     </g>
    </g>
   </g>
   <g id="line2d_12">
    <path d="M 87.376364 30.664545 
L 91.783673 30.738797 
L 98.394637 31.127808 
L 105.005601 31.846658 
L 111.616565 32.888902 
L 118.227529 34.245197 
L 124.838492 35.903382 
L 131.449456 37.848591 
L 138.06042 40.063384 
L 144.671384 42.527906 
L 151.282348 45.220059 
L 157.893312 48.115709 
L 166.707931 52.248021 
L 175.522549 56.629942 
L 186.540822 62.351731 
L 219.595642 79.764899 
L 228.41026 84.119365 
L 237.224879 88.215754 
L 243.835843 91.079244 
L 250.446807 93.735083 
L 257.057771 96.159459 
L 263.668735 98.330638 
L 270.279698 100.229153 
L 276.890662 101.837984 
L 283.501626 103.142706 
L 290.11259 104.131623 
L 296.723554 104.795868 
L 303.334518 105.129486 
L 307.741827 105.166616 
L 312.149137 105.055262 
L 318.760101 104.610956 
L 325.371064 103.83768 
L 331.982028 102.742368 
L 338.592992 101.334839 
L 345.203956 99.627713 
L 351.81492 97.636295 
L 358.425884 95.378438 
L 365.036848 92.874386 
L 371.647812 90.146588 
L 378.258776 87.2195 
L 387.073394 83.052296 
L 395.888013 78.644012 
L 409.109941 71.733944 
L 435.553796 57.756316 
L 446.572069 52.248021 
L 455.386688 48.115709 
L 461.997652 45.220059 
L 468.608616 42.527906 
L 475.21958 40.063384 
L 481.830544 37.848591 
L 488.441508 35.903382 
L 495.052471 34.245197 
L 501.663435 32.888902 
L 508.274399 31.846658 
L 514.885363 31.127808 
L 521.496327 30.738797 
L 525.903636 30.664545 
L 525.903636 30.664545 
" clip-path="url(#p35e614e742)" style="fill: none; stroke-dasharray: 5.55,2.4; stroke-dashoffset: 0; stroke: #808080; stroke-width: 1.5"/>
   </g>
   <g id="line2d_13">
    <path d="M 87.376364 69.096987 
L 102.801946 68.983658 
L 120.431183 68.606425 
L 146.875039 67.760157 
L 171.11524 67.048764 
L 186.540822 66.791462 
L 201.966405 66.750698 
L 217.391987 66.934309 
L 235.021224 67.371857 
L 290.11259 68.967204 
L 305.538173 69.096399 
L 320.963755 68.999049 
L 338.592992 68.636299 
L 362.833193 67.871379 
L 389.277049 67.07435 
L 406.906286 66.781026 
L 422.331868 66.756551 
L 437.757451 66.955326 
L 455.386688 67.405119 
L 508.274399 68.949704 
L 523.699982 69.094637 
L 525.903636 69.096987 
L 525.903636 69.096987 
" clip-path="url(#p35e614e742)" style="fill: none; stroke-dasharray: 5.55,2.4; stroke-dashoffset: 0; stroke: #808080; stroke-width: 1.5"/>
   </g>
   <g id="line2d_14">
    <path d="M 87.376364 67.906411 
L 525.903636 67.906411 
L 525.903636 67.906411 
" clip-path="url(#p35e614e742)" style="fill: none; stroke-dasharray: 5.55,2.4; stroke-dashoffset: 0; stroke: #808080; stroke-width: 1.5"/>
   </g>
   <g id="line2d_15">
    <path d="M 87.376364 67.916763 
L 525.903636 67.916763 
L 525.903636 67.916763 
" clip-path="url(#p35e614e742)" style="fill: none; stroke-dasharray: 5.55,2.4; stroke-dashoffset: 0; stroke: #808080; stroke-width: 1.5"/>
   </g>
   <g id="line2d_16">
    <path d="M 87.376364 31.831001 
L 93.987328 31.977444 
L 100.598291 32.415983 
L 107.209255 33.144236 
L 113.820219 34.158204 
L 120.431183 35.45223 
L 127.042147 37.018934 
L 133.653111 38.849155 
L 140.264075 40.931864 
L 146.875039 43.254088 
L 153.486003 45.800836 
L 160.096967 48.555025 
L 168.911585 52.516429 
L 177.726204 56.760645 
L 188.744477 62.374141 
L 204.170059 70.575077 
L 224.002951 81.116025 
L 232.81757 85.582145 
L 241.632188 89.797248 
L 248.243152 92.745447 
L 254.854116 95.474808 
L 261.46508 97.954717 
L 268.076044 100.156877 
L 274.687008 102.055782 
L 281.297972 103.629162 
L 285.705281 104.487869 
L 290.11259 105.188971 
L 294.519899 105.72873 
L 298.927209 106.104259 
L 303.334518 106.313542 
L 307.741827 106.355455 
L 312.149137 106.229772 
L 316.556446 105.93717 
L 320.963755 105.479219 
L 325.371064 104.858373 
L 329.778374 104.07795 
L 334.185683 103.142101 
L 340.796647 101.457954 
L 347.407611 99.455322 
L 354.018575 97.157598 
L 360.629539 94.591269 
L 367.240503 91.785461 
L 373.851466 88.771446 
L 382.666085 84.485955 
L 393.684358 78.814504 
L 411.313595 69.391466 
L 426.739178 61.229349 
L 437.757451 55.676153 
L 446.572069 51.497433 
L 455.386688 47.615055 
L 461.997652 44.927984 
L 468.608616 42.454283 
L 475.21958 40.210333 
L 481.830544 38.210444 
L 488.441508 36.46693 
L 495.052471 34.99019 
L 501.663435 33.788783 
L 508.274399 32.869507 
L 514.885363 32.237462 
L 521.496327 31.896103 
L 525.903636 31.831001 
L 525.903636 31.831001 
" clip-path="url(#p35e614e742)" style="fill: none; stroke: #ff0000; stroke-width: 1.5; stroke-linecap: square"/>
   </g>
   <g id="patch_3">
    <path d="M 65.45 110.14 
L 65.45 26.88 
" style="fill: none; stroke: #000000; stroke-width: 0.8; stroke-linejoin: miter; stroke-linecap: square"/>
   </g>
   <g id="patch_4">
    <path d="M 547.83 110.14 
L 547.83 26.88 
" style="fill: none; stroke: #000000; stroke-width: 0.8; stroke-linejoin: miter; stroke-linecap: square"/>
   </g>
   <g id="patch_5">
    <path d="M 65.45 110.14 
L 547.83 110.14 
" style="fill: none; stroke: #000000; stroke-width: 0.8; stroke-linejoin: miter; stroke-linecap: square"/>
   </g>
   <g id="patch_6">
    <path d="M 65.45 26.88 
L 547.83 26.88 
" style="fill: none; stroke: #000000; stroke-width: 0.8; stroke-linejoin: miter; stroke-linecap: square"/>
   </g>
   <g id="text_14">
    <!-- Torque at shaft 1 -->
    <g transform="translate(256.1275 20.88) scale(0.12 -0.12)">
     <defs>
      <path id="DejaVuSans-61" d="M 2194 1759 
Q 1497 1759 1228 1600 
Q 959 1441 959 1056 
Q 959 750 1161 570 
Q 1363 391 1709 391 
Q 2188 391 2477 730 
Q 2766 1069 2766 1631 
L 2766 1759 
L 2194 1759 
z
M 3341 1997 
L 3341 0 
L 2766 0 
L 2766 531 
Q 2569 213 2275 61 
Q 1981 -91 1556 -91 
Q 1019 -91 701 211 
Q 384 513 384 1019 
Q 384 1609 779 1909 
Q 1175 2209 1959 2209 
L 2766 2209 
L 2766 2266 
Q 2766 2663 2505 2880 
Q 2244 3097 1772 3097 
Q 1472 3097 1187 3025 
Q 903 2953 641 2809 
L 641 3341 
Q 956 3463 1253 3523 
Q 1550 3584 1831 3584 
Q 2591 3584 2966 3190 
Q 3341 2797 3341 1997 
z
" transform="scale(0.015625)"/>
      <path id="DejaVuSans-74" d="M 1172 4494 
L 1172 3500 
L 2356 3500 
L 2356 3053 
L 1172 3053 
L 1172 1153 
Q 1172 725 1289 603 
Q 1406 481 1766 481 
L 2356 481 
L 2356 0 
L 1766 0 
Q 1100 0 847 248 
Q 594 497 594 1153 
L 594 3053 
L 172 3053 
L 172 3500 
L 594 3500 
L 594 4494 
L 1172 4494 
z
" transform="scale(0.015625)"/>
      <path id="DejaVuSans-68" d="M 3513 2113 
L 3513 0 
L 2938 0 
L 2938 2094 
Q 2938 2591 2744 2837 
Q 2550 3084 2163 3084 
Q 1697 3084 1428 2787 
Q 1159 2491 1159 1978 
L 1159 0 
L 581 0 
L 581 4863 
L 1159 4863 
L 1159 2956 
Q 1366 3272 1645 3428 
Q 1925 3584 2291 3584 
Q 2894 3584 3203 3211 
Q 3513 2838 3513 2113 
z
" transform="scale(0.015625)"/>
      <path id="DejaVuSans-66" d="M 2375 4863 
L 2375 4384 
L 1825 4384 
Q 1516 4384 1395 4259 
Q 1275 4134 1275 3809 
L 1275 3500 
L 2222 3500 
L 2222 3053 
L 1275 3053 
L 1275 0 
L 697 0 
L 697 3053 
L 147 3053 
L 147 3500 
L 697 3500 
L 697 3744 
Q 697 4328 969 4595 
Q 1241 4863 1831 4863 
L 2375 4863 
z
" transform="scale(0.015625)"/>
     </defs>
     <use xlink:href="#DejaVuSans-54"/>
     <use xlink:href="#DejaVuSans-6f" x="44.083984"/>
     <use xlink:href="#DejaVuSans-72" x="105.265625"/>
     <use xlink:href="#DejaVuSans-71" x="144.628906"/>
     <use xlink:href="#DejaVuSans-75" x="208.105469"/>
     <use xlink:href="#DejaVuSans-65" x="271.484375"/>
     <use xlink:href="#DejaVuSans-20" x="333.007812"/>
     <use xlink:href="#DejaVuSans-61" x="364.794922"/>
     <use xlink:href="#DejaVuSans-74" x="426.074219"/>
     <use xlink:href="#DejaVuSans-20" x="465.283203"/>
     <use xlink:href="#DejaVuSans-73" x="497.070312"/>
     <use xlink:href="#DejaVuSans-68" x="549.169922"/>
     <use xlink:href="#DejaVuSans-61" x="612.548828"/>
     <use xlink:href="#DejaVuSans-66" x="673.828125"/>
     <use xlink:href="#DejaVuSans-74" x="707.283203"/>
     <use xlink:href="#DejaVuSans-20" x="746.492188"/>
     <use xlink:href="#DejaVuSans-31" x="778.279297"/>
    </g>
   </g>
  </g>
  <g id="axes_2">
   <g id="patch_7">
    <path d="M 65.45 251.44 
L 547.83 251.44 
L 547.83 168.18 
L 65.45 168.18 
z
" style="fill: #ffffff"/>
   </g>
   <g id="matplotlib.axis_3">
    <g id="xtick_9">
     <g id="line2d_17">
      <g>
       <use xlink:href="#m7bb7ce4319" x="87.376364" y="251.44" style="stroke: #000000; stroke-width: 0.8"/>
      </g>
     </g>
     <g id="text_15">
      <!-- 0.0000 -->
      <g transform="translate(69.881051 266.038438) scale(0.1 -0.1)">
       <use xlink:href="#DejaVuSans-30"/>
       <use xlink:href="#DejaVuSans-2e" x="63.623047"/>
       <use xlink:href="#DejaVuSans-30" x="95.410156"/>
       <use xlink:href="#DejaVuSans-30" x="159.033203"/>
       <use xlink:href="#DejaVuSans-30" x="222.65625"/>
       <use xlink:href="#DejaVuSans-30" x="286.279297"/>
      </g>
     </g>
    </g>
    <g id="xtick_10">
     <g id="line2d_18">
      <g>
       <use xlink:href="#m7bb7ce4319" x="153.155455" y="251.44" style="stroke: #000000; stroke-width: 0.8"/>
      </g>
     </g>
     <g id="text_16">
      <!-- 0.0025 -->
      <g transform="translate(135.660142 266.038438) scale(0.1 -0.1)">
       <use xlink:href="#DejaVuSans-30"/>
       <use xlink:href="#DejaVuSans-2e" x="63.623047"/>
       <use xlink:href="#DejaVuSans-30" x="95.410156"/>
       <use xlink:href="#DejaVuSans-30" x="159.033203"/>
       <use xlink:href="#DejaVuSans-32" x="222.65625"/>
       <use xlink:href="#DejaVuSans-35" x="286.279297"/>
      </g>
     </g>
    </g>
    <g id="xtick_11">
     <g id="line2d_19">
      <g>
       <use xlink:href="#m7bb7ce4319" x="218.934545" y="251.44" style="stroke: #000000; stroke-width: 0.8"/>
      </g>
     </g>
     <g id="text_17">
      <!-- 0.0050 -->
      <g transform="translate(201.439233 266.038438) scale(0.1 -0.1)">
       <use xlink:href="#DejaVuSans-30"/>
       <use xlink:href="#DejaVuSans-2e" x="63.623047"/>
       <use xlink:href="#DejaVuSans-30" x="95.410156"/>
       <use xlink:href="#DejaVuSans-30" x="159.033203"/>
       <use xlink:href="#DejaVuSans-35" x="222.65625"/>
       <use xlink:href="#DejaVuSans-30" x="286.279297"/>
      </g>
     </g>
    </g>
    <g id="xtick_12">
     <g id="line2d_20">
      <g>
       <use xlink:href="#m7bb7ce4319" x="284.713636" y="251.44" style="stroke: #000000; stroke-width: 0.8"/>
      </g>
     </g>
     <g id="text_18">
      <!-- 0.0075 -->
      <g transform="translate(267.218324 266.038438) scale(0.1 -0.1)">
       <use xlink:href="#DejaVuSans-30"/>
       <use xlink:href="#DejaVuSans-2e" x="63.623047"/>
       <use xlink:href="#DejaVuSans-30" x="95.410156"/>
       <use xlink:href="#DejaVuSans-30" x="159.033203"/>
       <use xlink:href="#DejaVuSans-37" x="222.65625"/>
       <use xlink:href="#DejaVuSans-35" x="286.279297"/>
      </g>
     </g>
    </g>
    <g id="xtick_13">
     <g id="line2d_21">
      <g>
       <use xlink:href="#m7bb7ce4319" x="350.492727" y="251.44" style="stroke: #000000; stroke-width: 0.8"/>
      </g>
     </g>
     <g id="text_19">
      <!-- 0.0100 -->
      <g transform="translate(332.997415 266.038438) scale(0.1 -0.1)">
       <use xlink:href="#DejaVuSans-30"/>
       <use xlink:href="#DejaVuSans-2e" x="63.623047"/>
       <use xlink:href="#DejaVuSans-30" x="95.410156"/>
       <use xlink:href="#DejaVuSans-31" x="159.033203"/>
       <use xlink:href="#DejaVuSans-30" x="222.65625"/>
       <use xlink:href="#DejaVuSans-30" x="286.279297"/>
      </g>
     </g>
    </g>
    <g id="xtick_14">
     <g id="line2d_22">
      <g>
       <use xlink:href="#m7bb7ce4319" x="416.271818" y="251.44" style="stroke: #000000; stroke-width: 0.8"/>
      </g>
     </g>
     <g id="text_20">
      <!-- 0.0125 -->
      <g transform="translate(398.776506 266.038438) scale(0.1 -0.1)">
       <use xlink:href="#DejaVuSans-30"/>
       <use xlink:href="#DejaVuSans-2e" x="63.623047"/>
       <use xlink:href="#DejaVuSans-30" x="95.410156"/>
       <use xlink:href="#DejaVuSans-31" x="159.033203"/>
       <use xlink:href="#DejaVuSans-32" x="222.65625"/>
       <use xlink:href="#DejaVuSans-35" x="286.279297"/>
      </g>
     </g>
    </g>
    <g id="xtick_15">
     <g id="line2d_23">
      <g>
       <use xlink:href="#m7bb7ce4319" x="482.050909" y="251.44" style="stroke: #000000; stroke-width: 0.8"/>
      </g>
     </g>
     <g id="text_21">
      <!-- 0.0150 -->
      <g transform="translate(464.555597 266.038438) scale(0.1 -0.1)">
       <use xlink:href="#DejaVuSans-30"/>
       <use xlink:href="#DejaVuSans-2e" x="63.623047"/>
       <use xlink:href="#DejaVuSans-30" x="95.410156"/>
       <use xlink:href="#DejaVuSans-31" x="159.033203"/>
       <use xlink:href="#DejaVuSans-35" x="222.65625"/>
       <use xlink:href="#DejaVuSans-30" x="286.279297"/>
      </g>
     </g>
    </g>
    <g id="xtick_16">
     <g id="line2d_24">
      <g>
       <use xlink:href="#m7bb7ce4319" x="547.83" y="251.44" style="stroke: #000000; stroke-width: 0.8"/>
      </g>
     </g>
     <g id="text_22">
      <!-- 0.0175 -->
      <g transform="translate(530.334687 266.038438) scale(0.1 -0.1)">
       <use xlink:href="#DejaVuSans-30"/>
       <use xlink:href="#DejaVuSans-2e" x="63.623047"/>
       <use xlink:href="#DejaVuSans-30" x="95.410156"/>
       <use xlink:href="#DejaVuSans-31" x="159.033203"/>
       <use xlink:href="#DejaVuSans-37" x="222.65625"/>
       <use xlink:href="#DejaVuSans-35" x="286.279297"/>
      </g>
     </g>
    </g>
    <g id="text_23">
     <!-- Time (s) -->
     <g transform="translate(286.311094 279.716563) scale(0.1 -0.1)">
      <use xlink:href="#DejaVuSans-54"/>
      <use xlink:href="#DejaVuSans-69" x="57.958984"/>
      <use xlink:href="#DejaVuSans-6d" x="85.742188"/>
      <use xlink:href="#DejaVuSans-65" x="183.154297"/>
      <use xlink:href="#DejaVuSans-20" x="244.677734"/>
      <use xlink:href="#DejaVuSans-28" x="276.464844"/>
      <use xlink:href="#DejaVuSans-73" x="315.478516"/>
      <use xlink:href="#DejaVuSans-29" x="367.578125"/>
     </g>
    </g>
   </g>
   <g id="matplotlib.axis_4">
    <g id="ytick_4">
     <g id="line2d_25">
      <g>
       <use xlink:href="#mebeb97cec8" x="65.45" y="243.540283" style="stroke: #000000; stroke-width: 0.8"/>
      </g>
     </g>
     <g id="text_24">
      <!-- −2000 -->
      <g transform="translate(24.620313 247.339502) scale(0.1 -0.1)">
       <use xlink:href="#DejaVuSans-2212"/>
       <use xlink:href="#DejaVuSans-32" x="83.789062"/>
       <use xlink:href="#DejaVuSans-30" x="147.412109"/>
       <use xlink:href="#DejaVuSans-30" x="211.035156"/>
       <use xlink:href="#DejaVuSans-30" x="274.658203"/>
      </g>
     </g>
    </g>
    <g id="ytick_5">
     <g id="line2d_26">
      <g>
       <use xlink:href="#mebeb97cec8" x="65.45" y="209.3591" style="stroke: #000000; stroke-width: 0.8"/>
      </g>
     </g>
     <g id="text_25">
      <!-- 0 -->
      <g transform="translate(52.0875 213.158319) scale(0.1 -0.1)">
       <use xlink:href="#DejaVuSans-30"/>
      </g>
     </g>
    </g>
    <g id="ytick_6">
     <g id="line2d_27">
      <g>
       <use xlink:href="#mebeb97cec8" x="65.45" y="175.177916" style="stroke: #000000; stroke-width: 0.8"/>
      </g>
     </g>
     <g id="text_26">
      <!-- 2000 -->
      <g transform="translate(33 178.977135) scale(0.1 -0.1)">
       <use xlink:href="#DejaVuSans-32"/>
       <use xlink:href="#DejaVuSans-30" x="63.623047"/>
       <use xlink:href="#DejaVuSans-30" x="127.246094"/>
       <use xlink:href="#DejaVuSans-30" x="190.869141"/>
      </g>
     </g>
    </g>
    <g id="text_27">
     <!-- Torque (Nm) -->
     <g transform="translate(18.540625 240.562344) rotate(-90) scale(0.1 -0.1)">
      <use xlink:href="#DejaVuSans-54"/>
      <use xlink:href="#DejaVuSans-6f" x="44.083984"/>
      <use xlink:href="#DejaVuSans-72" x="105.265625"/>
      <use xlink:href="#DejaVuSans-71" x="144.628906"/>
      <use xlink:href="#DejaVuSans-75" x="208.105469"/>
      <use xlink:href="#DejaVuSans-65" x="271.484375"/>
      <use xlink:href="#DejaVuSans-20" x="333.007812"/>
      <use xlink:href="#DejaVuSans-28" x="364.794922"/>
      <use xlink:href="#DejaVuSans-4e" x="403.808594"/>
      <use xlink:href="#DejaVuSans-6d" x="478.613281"/>
      <use xlink:href="#DejaVuSans-29" x="576.025391"/>
     </g>
    </g>
   </g>
   <g id="line2d_28">
    <path d="M 87.376364 171.964545 
L 91.783673 172.039078 
L 98.394637 172.429563 
L 105.005601 173.151138 
L 111.616565 174.197333 
L 118.227529 175.558768 
L 124.838492 177.223238 
L 131.449456 179.17582 
L 138.06042 181.399008 
L 144.671384 183.87287 
L 151.282348 186.575228 
L 157.893312 189.481853 
L 166.707931 193.629826 
L 175.522549 198.028356 
L 186.540822 203.771832 
L 219.595642 221.250999 
L 228.41026 225.62197 
L 237.224879 229.733885 
L 243.835843 232.608228 
L 250.446807 235.274133 
L 257.057771 237.707698 
L 263.668735 239.887106 
L 270.279698 241.792817 
L 276.890662 243.407746 
L 283.501626 244.717413 
L 290.11259 245.710078 
L 296.723554 246.376841 
L 303.334518 246.711723 
L 307.741827 246.748994 
L 312.149137 246.637218 
L 318.760101 246.191228 
L 325.371064 245.415021 
L 331.982028 244.315558 
L 338.592992 242.902694 
L 345.203956 241.189098 
L 351.81492 239.190132 
L 358.425884 236.923717 
L 365.036848 234.410174 
L 371.647812 231.672037 
L 378.258776 228.733855 
L 387.073394 224.550856 
L 395.888013 220.125864 
L 409.109941 213.189605 
L 435.553796 199.158999 
L 446.572069 193.629826 
L 455.386688 189.481853 
L 461.997652 186.575228 
L 468.608616 183.87287 
L 475.21958 181.399008 
L 481.830544 179.17582 
L 488.441508 177.223238 
L 495.052471 175.558768 
L 501.663435 174.197333 
L 508.274399 173.151138 
L 514.885363 172.429563 
L 521.496327 172.039078 
L 525.903636 171.964545 
L 525.903636 171.964545 
" clip-path="url(#p23ba6048d9)" style="fill: none; stroke-dasharray: 5.55,2.4; stroke-dashoffset: 0; stroke: #808080; stroke-width: 1.5"/>
   </g>
   <g id="line2d_29">
    <path d="M 87.376364 210.254649 
L 105.005601 210.142784 
L 124.838492 209.786316 
L 184.337168 208.521939 
L 201.966405 208.472574 
L 219.595642 208.644686 
L 241.632188 209.10125 
L 285.705281 210.098278 
L 303.334518 210.250635 
L 320.963755 210.180263 
L 340.796647 209.858842 
L 409.109941 208.482344 
L 426.739178 208.503536 
L 444.368415 208.738469 
L 470.81227 209.352031 
L 501.663435 210.047146 
L 519.292672 210.238627 
L 525.903636 210.254649 
L 525.903636 210.254649 
" clip-path="url(#p23ba6048d9)" style="fill: none; stroke-dasharray: 5.55,2.4; stroke-dashoffset: 0; stroke: #808080; stroke-width: 1.5"/>
   </g>
   <g id="line2d_30">
    <path d="M 87.376364 209.344108 
L 525.903636 209.344108 
L 525.903636 209.344108 
" clip-path="url(#p23ba6048d9)" style="fill: none; stroke-dasharray: 5.55,2.4; stroke-dashoffset: 0; stroke: #808080; stroke-width: 1.5"/>
   </g>
   <g id="line2d_31">
    <path d="M 87.376364 209.355475 
L 525.903636 209.355475 
L 525.903636 209.355475 
" clip-path="url(#p23ba6048d9)" style="fill: none; stroke-dasharray: 5.55,2.4; stroke-dashoffset: 0; stroke: #808080; stroke-width: 1.5"/>
   </g>
   <g id="line2d_32">
    <path d="M 87.376364 172.841479 
L 93.987328 172.993944 
L 100.598291 173.450327 
L 107.209255 174.207585 
L 113.820219 175.260657 
L 120.431183 176.602469 
L 127.042147 178.223942 
L 133.653111 180.113999 
L 140.264075 182.259574 
L 146.875039 184.645613 
L 153.486003 187.255076 
L 160.096967 190.068945 
L 168.911585 194.102173 
L 177.726204 198.406136 
L 188.744477 204.073288 
L 206.373714 213.489498 
L 221.799296 221.67171 
L 230.613915 226.15185 
L 239.428534 230.39038 
L 246.039497 233.364019 
L 252.650461 236.126868 
L 259.261425 238.64941 
L 265.872389 240.904314 
L 272.483353 242.866851 
L 279.094317 244.515285 
L 285.705281 245.831208 
L 290.11259 246.516302 
L 294.519899 247.043523 
L 298.927209 247.410218 
L 303.334518 247.614539 
L 307.741827 247.655455 
L 312.149137 247.532759 
L 316.556446 247.247071 
L 320.963755 246.799831 
L 325.371064 246.193292 
L 329.778374 245.430503 
L 336.389338 244.001916 
L 343.000302 242.246565 
L 349.611265 240.184001 
L 356.222229 237.837 
L 362.833193 235.231202 
L 369.444157 232.394715 
L 376.055121 229.357686 
L 384.86974 225.05138 
L 395.888013 219.365858 
L 413.51725 209.936465 
L 428.942832 201.775273 
L 439.961106 196.223992 
L 448.775724 192.04813 
L 457.590343 188.171317 
L 464.201307 185.491508 
L 470.81227 183.029002 
L 477.423234 180.801502 
L 484.034198 178.824722 
L 490.645162 177.112393 
L 497.256126 175.676253 
L 503.86709 174.526049 
L 510.478054 173.669524 
L 517.089018 173.112412 
L 523.699982 172.858428 
L 525.903636 172.841479 
L 525.903636 172.841479 
" clip-path="url(#p23ba6048d9)" style="fill: none; stroke: #ff0000; stroke-width: 1.5; stroke-linecap: square"/>
   </g>
   <g id="patch_8">
    <path d="M 65.45 251.44 
L 65.45 168.18 
" style="fill: none; stroke: #000000; stroke-width: 0.8; stroke-linejoin: miter; stroke-linecap: square"/>
   </g>
   <g id="patch_9">
    <path d="M 547.83 251.44 
L 547.83 168.18 
" style="fill: none; stroke: #000000; stroke-width: 0.8; stroke-linejoin: miter; stroke-linecap: square"/>
   </g>
   <g id="patch_10">
    <path d="M 65.45 251.44 
L 547.83 251.44 
" style="fill: none; stroke: #000000; stroke-width: 0.8; stroke-linejoin: miter; stroke-linecap: square"/>
   </g>
   <g id="patch_11">
    <path d="M 65.45 168.18 
L 547.83 168.18 
" style="fill: none; stroke: #000000; stroke-width: 0.8; stroke-linejoin: miter; stroke-linecap: square"/>
   </g>
   <g id="text_28">
    <!-- Torque at shaft 2 -->
    <g transform="translate(256.1275 162.18) scale(0.12 -0.12)">
     <use xlink:href="#DejaVuSans-54"/>
     <use xlink:href="#DejaVuSans-6f" x="44.083984"/>
     <use xlink:href="#DejaVuSans-72" x="105.265625"/>
     <use xlink:href="#DejaVuSans-71" x="144.628906"/>
     <use xlink:href="#DejaVuSans-75" x="208.105469"/>
     <use xlink:href="#DejaVuSans-65" x="271.484375"/>
     <use xlink:href="#DejaVuSans-20" x="333.007812"/>
     <use xlink:href="#DejaVuSans-61" x="364.794922"/>
     <use xlink:href="#DejaVuSans-74" x="426.074219"/>
     <use xlink:href="#DejaVuSans-20" x="465.283203"/>
     <use xlink:href="#DejaVuSans-73" x="497.070312"/>
     <use xlink:href="#DejaVuSans-68" x="549.169922"/>
     <use xlink:href="#DejaVuSans-61" x="612.548828"/>
     <use xlink:href="#DejaVuSans-66" x="673.828125"/>
     <use xlink:href="#DejaVuSans-74" x="707.283203"/>
     <use xlink:href="#DejaVuSans-20" x="746.492188"/>
     <use xlink:href="#DejaVuSans-32" x="778.279297"/>
    </g>
   </g>
  </g>
  <g id="axes_3">
   <g id="patch_12">
    <path d="M 65.45 392.74 
L 547.83 392.74 
L 547.83 309.48 
L 65.45 309.48 
z
" style="fill: #ffffff"/>
   </g>
   <g id="matplotlib.axis_5">
    <g id="xtick_17">
     <g id="line2d_33">
      <g>
       <use xlink:href="#m7bb7ce4319" x="87.376364" y="392.74" style="stroke: #000000; stroke-width: 0.8"/>
      </g>
     </g>
     <g id="text_29">
      <!-- 0.0000 -->
      <g transform="translate(69.881051 407.338437) scale(0.1 -0.1)">
       <use xlink:href="#DejaVuSans-30"/>
       <use xlink:href="#DejaVuSans-2e" x="63.623047"/>
       <use xlink:href="#DejaVuSans-30" x="95.410156"/>
       <use xlink:href="#DejaVuSans-30" x="159.033203"/>
       <use xlink:href="#DejaVuSans-30" x="222.65625"/>
       <use xlink:href="#DejaVuSans-30" x="286.279297"/>
      </g>
     </g>
    </g>
    <g id="xtick_18">
     <g id="line2d_34">
      <g>
       <use xlink:href="#m7bb7ce4319" x="153.155455" y="392.74" style="stroke: #000000; stroke-width: 0.8"/>
      </g>
     </g>
     <g id="text_30">
      <!-- 0.0025 -->
      <g transform="translate(135.660142 407.338437) scale(0.1 -0.1)">
       <use xlink:href="#DejaVuSans-30"/>
       <use xlink:href="#DejaVuSans-2e" x="63.623047"/>
       <use xlink:href="#DejaVuSans-30" x="95.410156"/>
       <use xlink:href="#DejaVuSans-30" x="159.033203"/>
       <use xlink:href="#DejaVuSans-32" x="222.65625"/>
       <use xlink:href="#DejaVuSans-35" x="286.279297"/>
      </g>
     </g>
    </g>
    <g id="xtick_19">
     <g id="line2d_35">
      <g>
       <use xlink:href="#m7bb7ce4319" x="218.934545" y="392.74" style="stroke: #000000; stroke-width: 0.8"/>
      </g>
     </g>
     <g id="text_31">
      <!-- 0.0050 -->
      <g transform="translate(201.439233 407.338437) scale(0.1 -0.1)">
       <use xlink:href="#DejaVuSans-30"/>
       <use xlink:href="#DejaVuSans-2e" x="63.623047"/>
       <use xlink:href="#DejaVuSans-30" x="95.410156"/>
       <use xlink:href="#DejaVuSans-30" x="159.033203"/>
       <use xlink:href="#DejaVuSans-35" x="222.65625"/>
       <use xlink:href="#DejaVuSans-30" x="286.279297"/>
      </g>
     </g>
    </g>
    <g id="xtick_20">
     <g id="line2d_36">
      <g>
       <use xlink:href="#m7bb7ce4319" x="284.713636" y="392.74" style="stroke: #000000; stroke-width: 0.8"/>
      </g>
     </g>
     <g id="text_32">
      <!-- 0.0075 -->
      <g transform="translate(267.218324 407.338437) scale(0.1 -0.1)">
       <use xlink:href="#DejaVuSans-30"/>
       <use xlink:href="#DejaVuSans-2e" x="63.623047"/>
       <use xlink:href="#DejaVuSans-30" x="95.410156"/>
       <use xlink:href="#DejaVuSans-30" x="159.033203"/>
       <use xlink:href="#DejaVuSans-37" x="222.65625"/>
       <use xlink:href="#DejaVuSans-35" x="286.279297"/>
      </g>
     </g>
    </g>
    <g id="xtick_21">
     <g id="line2d_37">
      <g>
       <use xlink:href="#m7bb7ce4319" x="350.492727" y="392.74" style="stroke: #000000; stroke-width: 0.8"/>
      </g>
     </g>
     <g id="text_33">
      <!-- 0.0100 -->
      <g transform="translate(332.997415 407.338437) scale(0.1 -0.1)">
       <use xlink:href="#DejaVuSans-30"/>
       <use xlink:href="#DejaVuSans-2e" x="63.623047"/>
       <use xlink:href="#DejaVuSans-30" x="95.410156"/>
       <use xlink:href="#DejaVuSans-31" x="159.033203"/>
       <use xlink:href="#DejaVuSans-30" x="222.65625"/>
       <use xlink:href="#DejaVuSans-30" x="286.279297"/>
      </g>
     </g>
    </g>
    <g id="xtick_22">
     <g id="line2d_38">
      <g>
       <use xlink:href="#m7bb7ce4319" x="416.271818" y="392.74" style="stroke: #000000; stroke-width: 0.8"/>
      </g>
     </g>
     <g id="text_34">
      <!-- 0.0125 -->
      <g transform="translate(398.776506 407.338437) scale(0.1 -0.1)">
       <use xlink:href="#DejaVuSans-30"/>
       <use xlink:href="#DejaVuSans-2e" x="63.623047"/>
       <use xlink:href="#DejaVuSans-30" x="95.410156"/>
       <use xlink:href="#DejaVuSans-31" x="159.033203"/>
       <use xlink:href="#DejaVuSans-32" x="222.65625"/>
       <use xlink:href="#DejaVuSans-35" x="286.279297"/>
      </g>
     </g>
    </g>
    <g id="xtick_23">
     <g id="line2d_39">
      <g>
       <use xlink:href="#m7bb7ce4319" x="482.050909" y="392.74" style="stroke: #000000; stroke-width: 0.8"/>
      </g>
     </g>
     <g id="text_35">
      <!-- 0.0150 -->
      <g transform="translate(464.555597 407.338437) scale(0.1 -0.1)">
       <use xlink:href="#DejaVuSans-30"/>
       <use xlink:href="#DejaVuSans-2e" x="63.623047"/>
       <use xlink:href="#DejaVuSans-30" x="95.410156"/>
       <use xlink:href="#DejaVuSans-31" x="159.033203"/>
       <use xlink:href="#DejaVuSans-35" x="222.65625"/>
       <use xlink:href="#DejaVuSans-30" x="286.279297"/>
      </g>
     </g>
    </g>
    <g id="xtick_24">
     <g id="line2d_40">
      <g>
       <use xlink:href="#m7bb7ce4319" x="547.83" y="392.74" style="stroke: #000000; stroke-width: 0.8"/>
      </g>
     </g>
     <g id="text_36">
      <!-- 0.0175 -->
      <g transform="translate(530.334687 407.338437) scale(0.1 -0.1)">
       <use xlink:href="#DejaVuSans-30"/>
       <use xlink:href="#DejaVuSans-2e" x="63.623047"/>
       <use xlink:href="#DejaVuSans-30" x="95.410156"/>
       <use xlink:href="#DejaVuSans-31" x="159.033203"/>
       <use xlink:href="#DejaVuSans-37" x="222.65625"/>
       <use xlink:href="#DejaVuSans-35" x="286.279297"/>
      </g>
     </g>
    </g>
    <g id="text_37">
     <!-- Time (s) -->
     <g transform="translate(286.311094 421.016562) scale(0.1 -0.1)">
      <use xlink:href="#DejaVuSans-54"/>
      <use xlink:href="#DejaVuSans-69" x="57.958984"/>
      <use xlink:href="#DejaVuSans-6d" x="85.742188"/>
      <use xlink:href="#DejaVuSans-65" x="183.154297"/>
      <use xlink:href="#DejaVuSans-20" x="244.677734"/>
      <use xlink:href="#DejaVuSans-28" x="276.464844"/>
      <use xlink:href="#DejaVuSans-73" x="315.478516"/>
      <use xlink:href="#DejaVuSans-29" x="367.578125"/>
     </g>
    </g>
   </g>
   <g id="matplotlib.axis_6">
    <g id="ytick_7">
     <g id="line2d_41">
      <g>
       <use xlink:href="#mebeb97cec8" x="65.45" y="386.945834" style="stroke: #000000; stroke-width: 0.8"/>
      </g>
     </g>
     <g id="text_38">
      <!-- −2000 -->
      <g transform="translate(24.620313 390.745053) scale(0.1 -0.1)">
       <use xlink:href="#DejaVuSans-2212"/>
       <use xlink:href="#DejaVuSans-32" x="83.789062"/>
       <use xlink:href="#DejaVuSans-30" x="147.412109"/>
       <use xlink:href="#DejaVuSans-30" x="211.035156"/>
       <use xlink:href="#DejaVuSans-30" x="274.658203"/>
      </g>
     </g>
    </g>
    <g id="ytick_8">
     <g id="line2d_42">
      <g>
       <use xlink:href="#mebeb97cec8" x="65.45" y="351.76218" style="stroke: #000000; stroke-width: 0.8"/>
      </g>
     </g>
     <g id="text_39">
      <!-- 0 -->
      <g transform="translate(52.0875 355.561399) scale(0.1 -0.1)">
       <use xlink:href="#DejaVuSans-30"/>
      </g>
     </g>
    </g>
    <g id="ytick_9">
     <g id="line2d_43">
      <g>
       <use xlink:href="#mebeb97cec8" x="65.45" y="316.578526" style="stroke: #000000; stroke-width: 0.8"/>
      </g>
     </g>
     <g id="text_40">
      <!-- 2000 -->
      <g transform="translate(33 320.377745) scale(0.1 -0.1)">
       <use xlink:href="#DejaVuSans-32"/>
       <use xlink:href="#DejaVuSans-30" x="63.623047"/>
       <use xlink:href="#DejaVuSans-30" x="127.246094"/>
       <use xlink:href="#DejaVuSans-30" x="190.869141"/>
      </g>
     </g>
    </g>
    <g id="text_41">
     <!-- Torque (Nm) -->
     <g transform="translate(18.540625 381.862344) rotate(-90) scale(0.1 -0.1)">
      <use xlink:href="#DejaVuSans-54"/>
      <use xlink:href="#DejaVuSans-6f" x="44.083984"/>
      <use xlink:href="#DejaVuSans-72" x="105.265625"/>
      <use xlink:href="#DejaVuSans-71" x="144.628906"/>
      <use xlink:href="#DejaVuSans-75" x="208.105469"/>
      <use xlink:href="#DejaVuSans-65" x="271.484375"/>
      <use xlink:href="#DejaVuSans-20" x="333.007812"/>
      <use xlink:href="#DejaVuSans-28" x="364.794922"/>
      <use xlink:href="#DejaVuSans-4e" x="403.808594"/>
      <use xlink:href="#DejaVuSans-6d" x="478.613281"/>
      <use xlink:href="#DejaVuSans-29" x="576.025391"/>
     </g>
    </g>
   </g>
   <g id="line2d_44">
    <path d="M 87.376364 314.564271 
L 91.783673 314.638411 
L 98.394637 315.026843 
L 105.005601 315.744623 
L 111.616565 316.785316 
L 118.227529 318.139592 
L 124.838492 319.795309 
L 131.449456 321.737623 
L 138.06042 323.94912 
L 144.671384 326.409974 
L 151.282348 329.09812 
L 157.893312 331.98946 
L 166.707931 336.115621 
L 175.522549 340.491021 
L 186.540822 346.204294 
L 219.595642 363.591545 
L 228.41026 367.93953 
L 237.224879 372.029821 
L 243.835843 374.88905 
L 250.446807 377.540935 
L 257.057771 379.961703 
L 263.668735 382.12965 
L 270.279698 384.02534 
L 276.890662 385.631776 
L 283.501626 386.934557 
L 290.11259 387.922002 
L 296.723554 388.585258 
L 303.334518 388.918379 
L 307.741827 388.955455 
L 314.352791 388.733189 
L 320.963755 388.179462 
L 327.574719 387.299239 
L 334.185683 386.10041 
L 340.796647 384.593724 
L 347.407611 382.792689 
L 354.018575 380.713452 
L 360.629539 378.374654 
L 367.240503 375.797264 
L 373.851466 373.004389 
L 382.666085 368.988885 
L 391.480704 364.698972 
L 402.498977 359.055126 
L 422.331868 348.536419 
L 435.553796 341.615718 
L 446.572069 336.115621 
L 455.386688 331.98946 
L 461.997652 329.09812 
L 468.608616 326.409974 
L 475.21958 323.94912 
L 481.830544 321.737623 
L 488.441508 319.795309 
L 495.052471 318.139592 
L 501.663435 316.785316 
L 508.274399 315.744623 
L 514.885363 315.026843 
L 521.496327 314.638411 
L 525.903636 314.564271 
L 525.903636 314.564271 
" clip-path="url(#p1a26601365)" style="fill: none; stroke-dasharray: 5.55,2.4; stroke-dashoffset: 0; stroke: #808080; stroke-width: 1.5"/>
   </g>
   <g id="line2d_45">
    <path d="M 87.376364 350.459007 
L 102.801946 350.584263 
L 118.227529 350.935953 
L 140.264075 351.690211 
L 168.911585 352.6653 
L 184.337168 352.980387 
L 199.76275 353.061295 
L 215.188333 352.892471 
L 232.81757 352.437376 
L 265.872389 351.251623 
L 285.705281 350.686553 
L 301.130863 350.475213 
L 316.556446 350.511269 
L 331.982028 350.787791 
L 351.81492 351.406714 
L 391.480704 352.750108 
L 406.906286 353.018703 
L 422.331868 353.045753 
L 437.757451 352.826059 
L 455.386688 352.328929 
L 508.274399 350.621791 
L 523.699982 350.461605 
L 525.903636 350.459007 
L 525.903636 350.459007 
" clip-path="url(#p1a26601365)" style="fill: none; stroke-dasharray: 5.55,2.4; stroke-dashoffset: 0; stroke: #808080; stroke-width: 1.5"/>
   </g>
   <g id="line2d_46">
    <path d="M 87.376364 351.765456 
L 525.903636 351.765456 
L 525.903636 351.765456 
" clip-path="url(#p1a26601365)" style="fill: none; stroke-dasharray: 5.55,2.4; stroke-dashoffset: 0; stroke: #808080; stroke-width: 1.5"/>
   </g>
   <g id="line2d_47">
    <path d="M 87.376364 351.762352 
L 525.903636 351.762352 
L 525.903636 351.762352 
" clip-path="url(#p1a26601365)" style="fill: none; stroke-dasharray: 5.55,2.4; stroke-dashoffset: 0; stroke: #808080; stroke-width: 1.5"/>
   </g>
   <g id="line2d_48">
    <path d="M 87.376364 313.264545 
L 91.783673 313.349002 
L 96.190982 313.601912 
L 100.598291 314.021904 
L 105.005601 314.606705 
L 109.41291 315.353157 
L 113.820219 316.257244 
L 120.431183 317.898134 
L 127.042147 319.863009 
L 133.653111 322.128619 
L 140.264075 324.668487 
L 146.875039 327.453366 
L 153.486003 330.451725 
L 162.300621 334.723883 
L 173.318894 340.389071 
L 190.948132 349.819309 
L 206.373714 357.996703 
L 217.391987 363.562017 
L 226.206606 367.750157 
L 235.021224 371.641734 
L 241.632188 374.335933 
L 248.243152 376.817487 
L 254.854116 379.070663 
L 261.46508 381.081917 
L 268.076044 382.839774 
L 274.687008 384.334693 
L 281.297972 385.558929 
L 287.908936 386.506396 
L 294.519899 387.172549 
L 301.130863 387.554277 
L 307.741827 387.64983 
L 314.352791 387.458773 
L 320.963755 386.981976 
L 327.574719 386.221637 
L 334.185683 385.181334 
L 340.796647 383.866115 
L 347.407611 382.282604 
L 354.018575 380.439128 
L 360.629539 378.345859 
L 367.240503 376.014947 
L 373.851466 373.460652 
L 380.46243 370.699459 
L 389.277049 366.72884 
L 398.091667 362.475115 
L 409.109941 356.849517 
L 424.535523 348.633985 
L 442.16476 339.234125 
L 453.183033 333.63027 
L 461.997652 329.430577 
L 468.608616 326.499755 
L 475.21958 323.793145 
L 481.830544 321.341573 
L 488.441508 319.173417 
L 495.052471 317.314125 
L 501.663435 315.78578 
L 506.070745 314.959955 
L 510.478054 314.29388 
L 514.885363 313.791144 
L 519.292672 313.454464 
L 523.699982 313.285667 
L 525.903636 313.264545 
L 525.903636 313.264545 
" clip-path="url(#p1a26601365)" style="fill: none; stroke: #ff0000; stroke-width: 1.5; stroke-linecap: square"/>
   </g>
   <g id="patch_13">
    <path d="M 65.45 392.74 
L 65.45 309.48 
" style="fill: none; stroke: #000000; stroke-width: 0.8; stroke-linejoin: miter; stroke-linecap: square"/>
   </g>
   <g id="patch_14">
    <path d="M 547.83 392.74 
L 547.83 309.48 
" style="fill: none; stroke: #000000; stroke-width: 0.8; stroke-linejoin: miter; stroke-linecap: square"/>
   </g>
   <g id="patch_15">
    <path d="M 65.45 392.74 
L 547.83 392.74 
" style="fill: none; stroke: #000000; stroke-width: 0.8; stroke-linejoin: miter; stroke-linecap: square"/>
   </g>
   <g id="patch_16">
    <path d="M 65.45 309.48 
L 547.83 309.48 
" style="fill: none; stroke: #000000; stroke-width: 0.8; stroke-linejoin: miter; stroke-linecap: square"/>
   </g>
   <g id="text_42">
    <!-- Torque at shaft 3 -->
    <g transform="translate(256.1275 303.48) scale(0.12 -0.12)">
     <defs>
      <path id="DejaVuSans-33" d="M 2597 2516 
Q 3050 2419 3304 2112 
Q 3559 1806 3559 1356 
Q 3559 666 3084 287 
Q 2609 -91 1734 -91 
Q 1441 -91 1130 -33 
Q 819 25 488 141 
L 488 750 
Q 750 597 1062 519 
Q 1375 441 1716 441 
Q 2309 441 2620 675 
Q 2931 909 2931 1356 
Q 2931 1769 2642 2001 
Q 2353 2234 1838 2234 
L 1294 2234 
L 1294 2753 
L 1863 2753 
Q 2328 2753 2575 2939 
Q 2822 3125 2822 3475 
Q 2822 3834 2567 4026 
Q 2313 4219 1838 4219 
Q 1578 4219 1281 4162 
Q 984 4106 628 3988 
L 628 4550 
Q 988 4650 1302 4700 
Q 1616 4750 1894 4750 
Q 2613 4750 3031 4423 
Q 3450 4097 3450 3541 
Q 3450 3153 3228 2886 
Q 3006 2619 2597 2516 
z
" transform="scale(0.015625)"/>
     </defs>
     <use xlink:href="#DejaVuSans-54"/>
     <use xlink:href="#DejaVuSans-6f" x="44.083984"/>
     <use xlink:href="#DejaVuSans-72" x="105.265625"/>
     <use xlink:href="#DejaVuSans-71" x="144.628906"/>
     <use xlink:href="#DejaVuSans-75" x="208.105469"/>
     <use xlink:href="#DejaVuSans-65" x="271.484375"/>
     <use xlink:href="#DejaVuSans-20" x="333.007812"/>
     <use xlink:href="#DejaVuSans-61" x="364.794922"/>
     <use xlink:href="#DejaVuSans-74" x="426.074219"/>
     <use xlink:href="#DejaVuSans-20" x="465.283203"/>
     <use xlink:href="#DejaVuSans-73" x="497.070312"/>
     <use xlink:href="#DejaVuSans-68" x="549.169922"/>
     <use xlink:href="#DejaVuSans-61" x="612.548828"/>
     <use xlink:href="#DejaVuSans-66" x="673.828125"/>
     <use xlink:href="#DejaVuSans-74" x="707.283203"/>
     <use xlink:href="#DejaVuSans-20" x="746.492188"/>
     <use xlink:href="#DejaVuSans-33" x="778.279297"/>
    </g>
   </g>
  </g>
  <g id="axes_4">
   <g id="patch_17">
    <path d="M 65.45 534.04 
L 547.83 534.04 
L 547.83 450.78 
L 65.45 450.78 
z
" style="fill: #ffffff"/>
   </g>
   <g id="matplotlib.axis_7">
    <g id="xtick_25">
     <g id="line2d_49">
      <g>
       <use xlink:href="#m7bb7ce4319" x="87.376364" y="534.04" style="stroke: #000000; stroke-width: 0.8"/>
      </g>
     </g>
     <g id="text_43">
      <!-- 0.0000 -->
      <g transform="translate(69.881051 548.638438) scale(0.1 -0.1)">
       <use xlink:href="#DejaVuSans-30"/>
       <use xlink:href="#DejaVuSans-2e" x="63.623047"/>
       <use xlink:href="#DejaVuSans-30" x="95.410156"/>
       <use xlink:href="#DejaVuSans-30" x="159.033203"/>
       <use xlink:href="#DejaVuSans-30" x="222.65625"/>
       <use xlink:href="#DejaVuSans-30" x="286.279297"/>
      </g>
     </g>
    </g>
    <g id="xtick_26">
     <g id="line2d_50">
      <g>
       <use xlink:href="#m7bb7ce4319" x="153.155455" y="534.04" style="stroke: #000000; stroke-width: 0.8"/>
      </g>
     </g>
     <g id="text_44">
      <!-- 0.0025 -->
      <g transform="translate(135.660142 548.638438) scale(0.1 -0.1)">
       <use xlink:href="#DejaVuSans-30"/>
       <use xlink:href="#DejaVuSans-2e" x="63.623047"/>
       <use xlink:href="#DejaVuSans-30" x="95.410156"/>
       <use xlink:href="#DejaVuSans-30" x="159.033203"/>
       <use xlink:href="#DejaVuSans-32" x="222.65625"/>
       <use xlink:href="#DejaVuSans-35" x="286.279297"/>
      </g>
     </g>
    </g>
    <g id="xtick_27">
     <g id="line2d_51">
      <g>
       <use xlink:href="#m7bb7ce4319" x="218.934545" y="534.04" style="stroke: #000000; stroke-width: 0.8"/>
      </g>
     </g>
     <g id="text_45">
      <!-- 0.0050 -->
      <g transform="translate(201.439233 548.638438) scale(0.1 -0.1)">
       <use xlink:href="#DejaVuSans-30"/>
       <use xlink:href="#DejaVuSans-2e" x="63.623047"/>
       <use xlink:href="#DejaVuSans-30" x="95.410156"/>
       <use xlink:href="#DejaVuSans-30" x="159.033203"/>
       <use xlink:href="#DejaVuSans-35" x="222.65625"/>
       <use xlink:href="#DejaVuSans-30" x="286.279297"/>
      </g>
     </g>
    </g>
    <g id="xtick_28">
     <g id="line2d_52">
      <g>
       <use xlink:href="#m7bb7ce4319" x="284.713636" y="534.04" style="stroke: #000000; stroke-width: 0.8"/>
      </g>
     </g>
     <g id="text_46">
      <!-- 0.0075 -->
      <g transform="translate(267.218324 548.638438) scale(0.1 -0.1)">
       <use xlink:href="#DejaVuSans-30"/>
       <use xlink:href="#DejaVuSans-2e" x="63.623047"/>
       <use xlink:href="#DejaVuSans-30" x="95.410156"/>
       <use xlink:href="#DejaVuSans-30" x="159.033203"/>
       <use xlink:href="#DejaVuSans-37" x="222.65625"/>
       <use xlink:href="#DejaVuSans-35" x="286.279297"/>
      </g>
     </g>
    </g>
    <g id="xtick_29">
     <g id="line2d_53">
      <g>
       <use xlink:href="#m7bb7ce4319" x="350.492727" y="534.04" style="stroke: #000000; stroke-width: 0.8"/>
      </g>
     </g>
     <g id="text_47">
      <!-- 0.0100 -->
      <g transform="translate(332.997415 548.638438) scale(0.1 -0.1)">
       <use xlink:href="#DejaVuSans-30"/>
       <use xlink:href="#DejaVuSans-2e" x="63.623047"/>
       <use xlink:href="#DejaVuSans-30" x="95.410156"/>
       <use xlink:href="#DejaVuSans-31" x="159.033203"/>
       <use xlink:href="#DejaVuSans-30" x="222.65625"/>
       <use xlink:href="#DejaVuSans-30" x="286.279297"/>
      </g>
     </g>
    </g>
    <g id="xtick_30">
     <g id="line2d_54">
      <g>
       <use xlink:href="#m7bb7ce4319" x="416.271818" y="534.04" style="stroke: #000000; stroke-width: 0.8"/>
      </g>
     </g>
     <g id="text_48">
      <!-- 0.0125 -->
      <g transform="translate(398.776506 548.638438) scale(0.1 -0.1)">
       <use xlink:href="#DejaVuSans-30"/>
       <use xlink:href="#DejaVuSans-2e" x="63.623047"/>
       <use xlink:href="#DejaVuSans-30" x="95.410156"/>
       <use xlink:href="#DejaVuSans-31" x="159.033203"/>
       <use xlink:href="#DejaVuSans-32" x="222.65625"/>
       <use xlink:href="#DejaVuSans-35" x="286.279297"/>
      </g>
     </g>
    </g>
    <g id="xtick_31">
     <g id="line2d_55">
      <g>
       <use xlink:href="#m7bb7ce4319" x="482.050909" y="534.04" style="stroke: #000000; stroke-width: 0.8"/>
      </g>
     </g>
     <g id="text_49">
      <!-- 0.0150 -->
      <g transform="translate(464.555597 548.638438) scale(0.1 -0.1)">
       <use xlink:href="#DejaVuSans-30"/>
       <use xlink:href="#DejaVuSans-2e" x="63.623047"/>
       <use xlink:href="#DejaVuSans-30" x="95.410156"/>
       <use xlink:href="#DejaVuSans-31" x="159.033203"/>
       <use xlink:href="#DejaVuSans-35" x="222.65625"/>
       <use xlink:href="#DejaVuSans-30" x="286.279297"/>
      </g>
     </g>
    </g>
    <g id="xtick_32">
     <g id="line2d_56">
      <g>
       <use xlink:href="#m7bb7ce4319" x="547.83" y="534.04" style="stroke: #000000; stroke-width: 0.8"/>
      </g>
     </g>
     <g id="text_50">
      <!-- 0.0175 -->
      <g transform="translate(530.334687 548.638438) scale(0.1 -0.1)">
       <use xlink:href="#DejaVuSans-30"/>
       <use xlink:href="#DejaVuSans-2e" x="63.623047"/>
       <use xlink:href="#DejaVuSans-30" x="95.410156"/>
       <use xlink:href="#DejaVuSans-31" x="159.033203"/>
       <use xlink:href="#DejaVuSans-37" x="222.65625"/>
       <use xlink:href="#DejaVuSans-35" x="286.279297"/>
      </g>
     </g>
    </g>
    <g id="text_51">
     <!-- Time (s) -->
     <g transform="translate(286.311094 562.316562) scale(0.1 -0.1)">
      <use xlink:href="#DejaVuSans-54"/>
      <use xlink:href="#DejaVuSans-69" x="57.958984"/>
      <use xlink:href="#DejaVuSans-6d" x="85.742188"/>
      <use xlink:href="#DejaVuSans-65" x="183.154297"/>
      <use xlink:href="#DejaVuSans-20" x="244.677734"/>
      <use xlink:href="#DejaVuSans-28" x="276.464844"/>
      <use xlink:href="#DejaVuSans-73" x="315.478516"/>
      <use xlink:href="#DejaVuSans-29" x="367.578125"/>
     </g>
    </g>
   </g>
   <g id="matplotlib.axis_8">
    <g id="ytick_10">
     <g id="line2d_57">
      <g>
       <use xlink:href="#mebeb97cec8" x="65.45" y="530.642388" style="stroke: #000000; stroke-width: 0.8"/>
      </g>
     </g>
     <g id="text_52">
      <!-- −2000 -->
      <g transform="translate(24.620313 534.441607) scale(0.1 -0.1)">
       <use xlink:href="#DejaVuSans-2212"/>
       <use xlink:href="#DejaVuSans-32" x="83.789062"/>
       <use xlink:href="#DejaVuSans-30" x="147.412109"/>
       <use xlink:href="#DejaVuSans-30" x="211.035156"/>
       <use xlink:href="#DejaVuSans-30" x="274.658203"/>
      </g>
     </g>
    </g>
    <g id="ytick_11">
     <g id="line2d_58">
      <g>
       <use xlink:href="#mebeb97cec8" x="65.45" y="493.181935" style="stroke: #000000; stroke-width: 0.8"/>
      </g>
     </g>
     <g id="text_53">
      <!-- 0 -->
      <g transform="translate(52.0875 496.981154) scale(0.1 -0.1)">
       <use xlink:href="#DejaVuSans-30"/>
      </g>
     </g>
    </g>
    <g id="ytick_12">
     <g id="line2d_59">
      <g>
       <use xlink:href="#mebeb97cec8" x="65.45" y="455.721483" style="stroke: #000000; stroke-width: 0.8"/>
      </g>
     </g>
     <g id="text_54">
      <!-- 2000 -->
      <g transform="translate(33 459.520701) scale(0.1 -0.1)">
       <use xlink:href="#DejaVuSans-32"/>
       <use xlink:href="#DejaVuSans-30" x="63.623047"/>
       <use xlink:href="#DejaVuSans-30" x="127.246094"/>
       <use xlink:href="#DejaVuSans-30" x="190.869141"/>
      </g>
     </g>
    </g>
    <g id="text_55">
     <!-- Torque (Nm) -->
     <g transform="translate(18.540625 523.162344) rotate(-90) scale(0.1 -0.1)">
      <use xlink:href="#DejaVuSans-54"/>
      <use xlink:href="#DejaVuSans-6f" x="44.083984"/>
      <use xlink:href="#DejaVuSans-72" x="105.265625"/>
      <use xlink:href="#DejaVuSans-71" x="144.628906"/>
      <use xlink:href="#DejaVuSans-75" x="208.105469"/>
      <use xlink:href="#DejaVuSans-65" x="271.484375"/>
      <use xlink:href="#DejaVuSans-20" x="333.007812"/>
      <use xlink:href="#DejaVuSans-28" x="364.794922"/>
      <use xlink:href="#DejaVuSans-4e" x="403.808594"/>
      <use xlink:href="#DejaVuSans-6d" x="478.613281"/>
      <use xlink:href="#DejaVuSans-29" x="576.025391"/>
     </g>
    </g>
   </g>
   <g id="line2d_60">
    <path d="M 87.376364 456.103796 
L 93.987328 456.270007 
L 100.598291 456.767149 
L 107.209255 457.590766 
L 113.820219 458.733473 
L 120.431183 460.185025 
L 127.042147 461.932409 
L 133.653111 463.959959 
L 140.264075 466.249497 
L 146.875039 468.780495 
L 153.486003 471.530263 
L 162.300621 475.494063 
L 171.11524 479.739619 
L 182.133513 485.339413 
L 199.76275 494.644928 
L 215.188333 502.731339 
L 226.206606 508.245147 
L 235.021224 512.392751 
L 241.632188 515.306071 
L 248.243152 518.02104 
L 254.854116 520.513314 
L 261.46508 522.760551 
L 268.076044 524.742603 
L 274.687008 526.4417 
L 281.297972 527.842608 
L 287.908936 528.932769 
L 294.519899 529.702408 
L 301.130863 530.144624 
L 307.741827 530.255455 
L 314.352791 530.033905 
L 320.963755 529.481961 
L 327.574719 528.604571 
L 334.185683 527.409602 
L 340.796647 525.907768 
L 347.407611 524.112532 
L 354.018575 522.03999 
L 360.629539 519.708722 
L 367.240503 517.139631 
L 373.851466 514.355748 
L 382.666085 510.353174 
L 391.480704 506.077073 
L 402.498977 500.451399 
L 422.331868 489.966561 
L 435.553796 483.068143 
L 446.572069 477.585756 
L 455.386688 473.47288 
L 461.997652 470.59085 
L 468.608616 467.911358 
L 475.21958 465.458428 
L 481.830544 463.254052 
L 488.441508 461.317992 
L 495.052471 459.667606 
L 501.663435 458.31769 
L 508.274399 457.280348 
L 514.885363 456.564879 
L 521.496327 456.177698 
L 525.903636 456.103796 
L 525.903636 456.103796 
" clip-path="url(#p698763a132)" style="fill: none; stroke-dasharray: 5.55,2.4; stroke-dashoffset: 0; stroke: #808080; stroke-width: 1.5"/>
   </g>
   <g id="line2d_61">
    <path d="M 87.376364 491.63615 
L 100.598291 491.745781 
L 116.023874 492.128407 
L 133.653111 492.80745 
L 171.11524 494.321379 
L 186.540822 494.658703 
L 199.76275 494.722908 
L 212.984678 494.568533 
L 228.41026 494.142989 
L 248.243152 493.340278 
L 276.890662 492.164641 
L 292.316245 491.764547 
L 305.538173 491.636921 
L 318.760101 491.728447 
L 331.982028 492.026144 
L 349.611265 492.667284 
L 391.480704 494.353786 
L 406.906286 494.672385 
L 420.128214 494.718292 
L 433.350142 494.546273 
L 448.775724 494.104289 
L 470.81227 493.194137 
L 497.256126 492.128407 
L 512.681709 491.745781 
L 525.903636 491.63615 
L 525.903636 491.63615 
" clip-path="url(#p698763a132)" style="fill: none; stroke-dasharray: 5.55,2.4; stroke-dashoffset: 0; stroke: #808080; stroke-width: 1.5"/>
   </g>
   <g id="line2d_62">
    <path d="M 87.376364 493.187623 
L 525.903636 493.187623 
L 525.903636 493.187623 
" clip-path="url(#p698763a132)" style="fill: none; stroke-dasharray: 5.55,2.4; stroke-dashoffset: 0; stroke: #808080; stroke-width: 1.5"/>
   </g>
   <g id="line2d_63">
    <path d="M 87.376364 493.182783 
L 525.903636 493.182783 
L 525.903636 493.182783 
" clip-path="url(#p698763a132)" style="fill: none; stroke-dasharray: 5.55,2.4; stroke-dashoffset: 0; stroke: #808080; stroke-width: 1.5"/>
   </g>
   <g id="line2d_64">
    <path d="M 87.376364 454.564545 
L 91.783673 454.650631 
L 96.190982 454.908401 
L 100.598291 455.336404 
L 105.005601 455.932233 
L 109.41291 456.692548 
L 113.820219 457.6131 
L 120.431183 459.282949 
L 127.042147 461.280897 
L 133.653111 463.582415 
L 140.264075 466.159612 
L 146.875039 468.981738 
L 153.486003 472.015731 
L 162.300621 476.330286 
L 173.318894 482.035619 
L 212.984678 502.986282 
L 221.799296 507.254027 
L 230.613915 511.241255 
L 237.224879 514.017352 
L 243.835843 516.589485 
L 250.446807 518.942087 
L 257.057771 521.061913 
L 263.668735 522.937868 
L 270.279698 524.560827 
L 276.890662 525.923432 
L 283.501626 527.019908 
L 290.11259 527.845874 
L 296.723554 528.398193 
L 303.334518 528.674846 
L 309.945482 528.674846 
L 316.556446 528.398193 
L 323.16741 527.845874 
L 329.778374 527.019908 
L 336.389338 525.923432 
L 343.000302 524.560827 
L 349.611265 522.937868 
L 356.222229 521.061913 
L 362.833193 518.942087 
L 369.444157 516.589485 
L 376.055121 514.017352 
L 382.666085 511.241255 
L 391.480704 507.254027 
L 400.295322 502.986282 
L 411.313595 497.346015 
L 426.739178 489.116938 
L 444.368415 479.721352 
L 453.183033 475.226783 
L 461.997652 470.982979 
L 468.608616 468.015815 
L 475.21958 465.27176 
L 481.830544 462.78317 
L 488.441508 460.579899 
L 495.052471 458.688771 
L 499.459781 457.6131 
L 503.86709 456.692548 
L 508.274399 455.932233 
L 512.681709 455.336404 
L 517.089018 454.908401 
L 521.496327 454.650631 
L 525.903636 454.564545 
L 525.903636 454.564545 
" clip-path="url(#p698763a132)" style="fill: none; stroke: #ff0000; stroke-width: 1.5; stroke-linecap: square"/>
   </g>
   <g id="patch_18">
    <path d="M 65.45 534.04 
L 65.45 450.78 
" style="fill: none; stroke: #000000; stroke-width: 0.8; stroke-linejoin: miter; stroke-linecap: square"/>
   </g>
   <g id="patch_19">
    <path d="M 547.83 534.04 
L 547.83 450.78 
" style="fill: none; stroke: #000000; stroke-width: 0.8; stroke-linejoin: miter; stroke-linecap: square"/>
   </g>
   <g id="patch_20">
    <path d="M 65.45 534.04 
L 547.83 534.04 
" style="fill: none; stroke: #000000; stroke-width: 0.8; stroke-linejoin: miter; stroke-linecap: square"/>
   </g>
   <g id="patch_21">
    <path d="M 65.45 450.78 
L 547.83 450.78 
" style="fill: none; stroke: #000000; stroke-width: 0.8; stroke-linejoin: miter; stroke-linecap: square"/>
   </g>
   <g id="text_56">
    <!-- Torque at shaft 4 -->
    <g transform="translate(256.1275 444.78) scale(0.12 -0.12)">
     <defs>
      <path id="DejaVuSans-34" d="M 2419 4116 
L 825 1625 
L 2419 1625 
L 2419 4116 
z
M 2253 4666 
L 3047 4666 
L 3047 1625 
L 3713 1625 
L 3713 1100 
L 3047 1100 
L 3047 0 
L 2419 0 
L 2419 1100 
L 313 1100 
L 313 1709 
L 2253 4666 
z
" transform="scale(0.015625)"/>
     </defs>
     <use xlink:href="#DejaVuSans-54"/>
     <use xlink:href="#DejaVuSans-6f" x="44.083984"/>
     <use xlink:href="#DejaVuSans-72" x="105.265625"/>
     <use xlink:href="#DejaVuSans-71" x="144.628906"/>
     <use xlink:href="#DejaVuSans-75" x="208.105469"/>
     <use xlink:href="#DejaVuSans-65" x="271.484375"/>
     <use xlink:href="#DejaVuSans-20" x="333.007812"/>
     <use xlink:href="#DejaVuSans-61" x="364.794922"/>
     <use xlink:href="#DejaVuSans-74" x="426.074219"/>
     <use xlink:href="#DejaVuSans-20" x="465.283203"/>
     <use xlink:href="#DejaVuSans-73" x="497.070312"/>
     <use xlink:href="#DejaVuSans-68" x="549.169922"/>
     <use xlink:href="#DejaVuSans-61" x="612.548828"/>
     <use xlink:href="#DejaVuSans-66" x="673.828125"/>
     <use xlink:href="#DejaVuSans-74" x="707.283203"/>
     <use xlink:href="#DejaVuSans-20" x="746.492188"/>
     <use xlink:href="#DejaVuSans-34" x="778.279297"/>
    </g>
   </g>
  </g>
 </g>
 <defs>
  <clipPath id="p35e614e742">
   <rect x="65.45" y="26.88" width="482.38" height="83.26"/>
  </clipPath>
  <clipPath id="p23ba6048d9">
   <rect x="65.45" y="168.18" width="482.38" height="83.26"/>
  </clipPath>
  <clipPath id="p1a26601365">
   <rect x="65.45" y="309.48" width="482.38" height="83.26"/>
  </clipPath>
  <clipPath id="p698763a132">
   <rect x="65.45" y="450.78" width="482.38" height="83.26"/>
  </clipPath>
 </defs>
</svg>
