<?xml version="1.0" encoding="utf-8" standalone="no"?>
<!DOCTYPE svg PUBLIC "-//W3C//DTD SVG 1.1//EN"
  "http://www.w3.org/Graphics/SVG/1.1/DTD/svg11.dtd">
<svg xmlns:xlink="http://www.w3.org/1999/xlink" width="576pt" height="576pt" viewBox="0 0 576 576" xmlns="http://www.w3.org/2000/svg" version="1.1">
 <metadata>
  <rdf:RDF xmlns:dc="http://purl.org/dc/elements/1.1/" xmlns:cc="http://creativecommons.org/ns#" xmlns:rdf="http://www.w3.org/1999/02/22-rdf-syntax-ns#">
   <cc:Work>
    <dc:type rdf:resource="http://purl.org/dc/dcmitype/StillImage"/>
    <dc:date>2024-05-16T12:50:02.264736</dc:date>
    <dc:format>image/svg+xml</dc:format>
    <dc:creator>
     <cc:Agent>
      <dc:title>Matplotlib v3.7.5, https://matplotlib.org/</dc:title>
     </cc:Agent>
    </dc:creator>
   </cc:Work>
  </rdf:RDF>
 </metadata>
 <defs>
  <style type="text/css">*{stroke-linejoin: round; stroke-linecap: butt}</style>
 </defs>
 <g id="figure_1">
  <g id="patch_1">
   <path d="M 0 576 
L 576 576 
L 576 0 
L 0 0 
z
" style="fill: #ffffff"/>
  </g>
  <g id="axes_1">
   <g id="patch_2">
    <path d="M 65.54 110.14 
L 565.2 110.14 
L 565.2 26.88 
L 65.54 26.88 
z
" style="fill: #ffffff"/>
   </g>
   <g id="matplotlib.axis_1">
    <g id="xtick_1">
     <g id="line2d_1">
      <defs>
       <path id="m5505b4800d" d="M 0 0 
L 0 3.5 
" style="stroke: #000000; stroke-width: 0.8"/>
      </defs>
      <g>
       <use xlink:href="#m5505b4800d" x="88.251818" y="110.14" style="stroke: #000000; stroke-width: 0.8"/>
      </g>
     </g>
     <g id="text_1">
      <!-- 0.0 -->
      <g transform="translate(80.300256 124.738437) scale(0.1 -0.1)">
       <defs>
        <path id="DejaVuSans-30" d="M 2034 4250 
Q 1547 4250 1301 3770 
Q 1056 3291 1056 2328 
Q 1056 1369 1301 889 
Q 1547 409 2034 409 
Q 2525 409 2770 889 
Q 3016 1369 3016 2328 
Q 3016 3291 2770 3770 
Q 2525 4250 2034 4250 
z
M 2034 4750 
Q 2819 4750 3233 4129 
Q 3647 3509 3647 2328 
Q 3647 1150 3233 529 
Q 2819 -91 2034 -91 
Q 1250 -91 836 529 
Q 422 1150 422 2328 
Q 422 3509 836 4129 
Q 1250 4750 2034 4750 
z
" transform="scale(0.015625)"/>
        <path id="DejaVuSans-2e" d="M 684 794 
L 1344 794 
L 1344 0 
L 684 0 
L 684 794 
z
" transform="scale(0.015625)"/>
       </defs>
       <use xlink:href="#DejaVuSans-30"/>
       <use xlink:href="#DejaVuSans-2e" x="63.623047"/>
       <use xlink:href="#DejaVuSans-30" x="95.410156"/>
      </g>
     </g>
    </g>
    <g id="xtick_2">
     <g id="line2d_2">
      <g>
       <use xlink:href="#m5505b4800d" x="179.463939" y="110.14" style="stroke: #000000; stroke-width: 0.8"/>
      </g>
     </g>
     <g id="text_2">
      <!-- 0.1 -->
      <g transform="translate(171.512377 124.738437) scale(0.1 -0.1)">
       <defs>
        <path id="DejaVuSans-31" d="M 794 531 
L 1825 531 
L 1825 4091 
L 703 3866 
L 703 4441 
L 1819 4666 
L 2450 4666 
L 2450 531 
L 3481 531 
L 3481 0 
L 794 0 
L 794 531 
z
" transform="scale(0.015625)"/>
       </defs>
       <use xlink:href="#DejaVuSans-30"/>
       <use xlink:href="#DejaVuSans-2e" x="63.623047"/>
       <use xlink:href="#DejaVuSans-31" x="95.410156"/>
      </g>
     </g>
    </g>
    <g id="xtick_3">
     <g id="line2d_3">
      <g>
       <use xlink:href="#m5505b4800d" x="270.676061" y="110.14" style="stroke: #000000; stroke-width: 0.8"/>
      </g>
     </g>
     <g id="text_3">
      <!-- 0.2 -->
      <g transform="translate(262.724498 124.738437) scale(0.1 -0.1)">
       <defs>
        <path id="DejaVuSans-32" d="M 1228 531 
L 3431 531 
L 3431 0 
L 469 0 
L 469 531 
Q 828 903 1448 1529 
Q 2069 2156 2228 2338 
Q 2531 2678 2651 2914 
Q 2772 3150 2772 3378 
Q 2772 3750 2511 3984 
Q 2250 4219 1831 4219 
Q 1534 4219 1204 4116 
Q 875 4013 500 3803 
L 500 4441 
Q 881 4594 1212 4672 
Q 1544 4750 1819 4750 
Q 2544 4750 2975 4387 
Q 3406 4025 3406 3419 
Q 3406 3131 3298 2873 
Q 3191 2616 2906 2266 
Q 2828 2175 2409 1742 
Q 1991 1309 1228 531 
z
" transform="scale(0.015625)"/>
       </defs>
       <use xlink:href="#DejaVuSans-30"/>
       <use xlink:href="#DejaVuSans-2e" x="63.623047"/>
       <use xlink:href="#DejaVuSans-32" x="95.410156"/>
      </g>
     </g>
    </g>
    <g id="xtick_4">
     <g id="line2d_4">
      <g>
       <use xlink:href="#m5505b4800d" x="361.888182" y="110.14" style="stroke: #000000; stroke-width: 0.8"/>
      </g>
     </g>
     <g id="text_4">
      <!-- 0.3 -->
      <g transform="translate(353.936619 124.738437) scale(0.1 -0.1)">
       <defs>
        <path id="DejaVuSans-33" d="M 2597 2516 
Q 3050 2419 3304 2112 
Q 3559 1806 3559 1356 
Q 3559 666 3084 287 
Q 2609 -91 1734 -91 
Q 1441 -91 1130 -33 
Q 819 25 488 141 
L 488 750 
Q 750 597 1062 519 
Q 1375 441 1716 441 
Q 2309 441 2620 675 
Q 2931 909 2931 1356 
Q 2931 1769 2642 2001 
Q 2353 2234 1838 2234 
L 1294 2234 
L 1294 2753 
L 1863 2753 
Q 2328 2753 2575 2939 
Q 2822 3125 2822 3475 
Q 2822 3834 2567 4026 
Q 2313 4219 1838 4219 
Q 1578 4219 1281 4162 
Q 984 4106 628 3988 
L 628 4550 
Q 988 4650 1302 4700 
Q 1616 4750 1894 4750 
Q 2613 4750 3031 4423 
Q 3450 4097 3450 3541 
Q 3450 3153 3228 2886 
Q 3006 2619 2597 2516 
z
" transform="scale(0.015625)"/>
       </defs>
       <use xlink:href="#DejaVuSans-30"/>
       <use xlink:href="#DejaVuSans-2e" x="63.623047"/>
       <use xlink:href="#DejaVuSans-33" x="95.410156"/>
      </g>
     </g>
    </g>
    <g id="xtick_5">
     <g id="line2d_5">
      <g>
       <use xlink:href="#m5505b4800d" x="453.100303" y="110.14" style="stroke: #000000; stroke-width: 0.8"/>
      </g>
     </g>
     <g id="text_5">
      <!-- 0.4 -->
      <g transform="translate(445.148741 124.738437) scale(0.1 -0.1)">
       <defs>
        <path id="DejaVuSans-34" d="M 2419 4116 
L 825 1625 
L 2419 1625 
L 2419 4116 
z
M 2253 4666 
L 3047 4666 
L 3047 1625 
L 3713 1625 
L 3713 1100 
L 3047 1100 
L 3047 0 
L 2419 0 
L 2419 1100 
L 313 1100 
L 313 1709 
L 2253 4666 
z
" transform="scale(0.015625)"/>
       </defs>
       <use xlink:href="#DejaVuSans-30"/>
       <use xlink:href="#DejaVuSans-2e" x="63.623047"/>
       <use xlink:href="#DejaVuSans-34" x="95.410156"/>
      </g>
     </g>
    </g>
    <g id="xtick_6">
     <g id="line2d_6">
      <g>
       <use xlink:href="#m5505b4800d" x="544.312424" y="110.14" style="stroke: #000000; stroke-width: 0.8"/>
      </g>
     </g>
     <g id="text_6">
      <!-- 0.5 -->
      <g transform="translate(536.360862 124.738437) scale(0.1 -0.1)">
       <defs>
        <path id="DejaVuSans-35" d="M 691 4666 
L 3169 4666 
L 3169 4134 
L 1269 4134 
L 1269 2991 
Q 1406 3038 1543 3061 
Q 1681 3084 1819 3084 
Q 2600 3084 3056 2656 
Q 3513 2228 3513 1497 
Q 3513 744 3044 326 
Q 2575 -91 1722 -91 
Q 1428 -91 1123 -41 
Q 819 9 494 109 
L 494 744 
Q 775 591 1075 516 
Q 1375 441 1709 441 
Q 2250 441 2565 725 
Q 2881 1009 2881 1497 
Q 2881 1984 2565 2268 
Q 2250 2553 1709 2553 
Q 1456 2553 1204 2497 
Q 953 2441 691 2322 
L 691 4666 
z
" transform="scale(0.015625)"/>
       </defs>
       <use xlink:href="#DejaVuSans-30"/>
       <use xlink:href="#DejaVuSans-2e" x="63.623047"/>
       <use xlink:href="#DejaVuSans-35" x="95.410156"/>
      </g>
     </g>
    </g>
    <g id="text_7">
     <!-- Time (s) -->
     <g transform="translate(295.041094 138.416562) scale(0.1 -0.1)">
      <defs>
       <path id="DejaVuSans-54" d="M -19 4666 
L 3928 4666 
L 3928 4134 
L 2272 4134 
L 2272 0 
L 1638 0 
L 1638 4134 
L -19 4134 
L -19 4666 
z
" transform="scale(0.015625)"/>
       <path id="DejaVuSans-69" d="M 603 3500 
L 1178 3500 
L 1178 0 
L 603 0 
L 603 3500 
z
M 603 4863 
L 1178 4863 
L 1178 4134 
L 603 4134 
L 603 4863 
z
" transform="scale(0.015625)"/>
       <path id="DejaVuSans-6d" d="M 3328 2828 
Q 3544 3216 3844 3400 
Q 4144 3584 4550 3584 
Q 5097 3584 5394 3201 
Q 5691 2819 5691 2113 
L 5691 0 
L 5113 0 
L 5113 2094 
Q 5113 2597 4934 2840 
Q 4756 3084 4391 3084 
Q 3944 3084 3684 2787 
Q 3425 2491 3425 1978 
L 3425 0 
L 2847 0 
L 2847 2094 
Q 2847 2600 2669 2842 
Q 2491 3084 2119 3084 
Q 1678 3084 1418 2786 
Q 1159 2488 1159 1978 
L 1159 0 
L 581 0 
L 581 3500 
L 1159 3500 
L 1159 2956 
Q 1356 3278 1631 3431 
Q 1906 3584 2284 3584 
Q 2666 3584 2933 3390 
Q 3200 3197 3328 2828 
z
" transform="scale(0.015625)"/>
       <path id="DejaVuSans-65" d="M 3597 1894 
L 3597 1613 
L 953 1613 
Q 991 1019 1311 708 
Q 1631 397 2203 397 
Q 2534 397 2845 478 
Q 3156 559 3463 722 
L 3463 178 
Q 3153 47 2828 -22 
Q 2503 -91 2169 -91 
Q 1331 -91 842 396 
Q 353 884 353 1716 
Q 353 2575 817 3079 
Q 1281 3584 2069 3584 
Q 2775 3584 3186 3129 
Q 3597 2675 3597 1894 
z
M 3022 2063 
Q 3016 2534 2758 2815 
Q 2500 3097 2075 3097 
Q 1594 3097 1305 2825 
Q 1016 2553 972 2059 
L 3022 2063 
z
" transform="scale(0.015625)"/>
       <path id="DejaVuSans-20" transform="scale(0.015625)"/>
       <path id="DejaVuSans-28" d="M 1984 4856 
Q 1566 4138 1362 3434 
Q 1159 2731 1159 2009 
Q 1159 1288 1364 580 
Q 1569 -128 1984 -844 
L 1484 -844 
Q 1016 -109 783 600 
Q 550 1309 550 2009 
Q 550 2706 781 3412 
Q 1013 4119 1484 4856 
L 1984 4856 
z
" transform="scale(0.015625)"/>
       <path id="DejaVuSans-73" d="M 2834 3397 
L 2834 2853 
Q 2591 2978 2328 3040 
Q 2066 3103 1784 3103 
Q 1356 3103 1142 2972 
Q 928 2841 928 2578 
Q 928 2378 1081 2264 
Q 1234 2150 1697 2047 
L 1894 2003 
Q 2506 1872 2764 1633 
Q 3022 1394 3022 966 
Q 3022 478 2636 193 
Q 2250 -91 1575 -91 
Q 1294 -91 989 -36 
Q 684 19 347 128 
L 347 722 
Q 666 556 975 473 
Q 1284 391 1588 391 
Q 1994 391 2212 530 
Q 2431 669 2431 922 
Q 2431 1156 2273 1281 
Q 2116 1406 1581 1522 
L 1381 1569 
Q 847 1681 609 1914 
Q 372 2147 372 2553 
Q 372 3047 722 3315 
Q 1072 3584 1716 3584 
Q 2034 3584 2315 3537 
Q 2597 3491 2834 3397 
z
" transform="scale(0.015625)"/>
       <path id="DejaVuSans-29" d="M 513 4856 
L 1013 4856 
Q 1481 4119 1714 3412 
Q 1947 2706 1947 2009 
Q 1947 1309 1714 600 
Q 1481 -109 1013 -844 
L 513 -844 
Q 928 -128 1133 580 
Q 1338 1288 1338 2009 
Q 1338 2731 1133 3434 
Q 928 4138 513 4856 
z
" transform="scale(0.015625)"/>
      </defs>
      <use xlink:href="#DejaVuSans-54"/>
      <use xlink:href="#DejaVuSans-69" x="57.958984"/>
      <use xlink:href="#DejaVuSans-6d" x="85.742188"/>
      <use xlink:href="#DejaVuSans-65" x="183.154297"/>
      <use xlink:href="#DejaVuSans-20" x="244.677734"/>
      <use xlink:href="#DejaVuSans-28" x="276.464844"/>
      <use xlink:href="#DejaVuSans-73" x="315.478516"/>
      <use xlink:href="#DejaVuSans-29" x="367.578125"/>
     </g>
    </g>
   </g>
   <g id="matplotlib.axis_2">
    <g id="ytick_1">
     <g id="line2d_7">
      <defs>
       <path id="m97679091fe" d="M 0 0 
L -3.5 0 
" style="stroke: #000000; stroke-width: 0.8"/>
      </defs>
      <g>
       <use xlink:href="#m97679091fe" x="65.54" y="91.005505" style="stroke: #000000; stroke-width: 0.8"/>
      </g>
     </g>
     <g id="text_8">
      <!-- −1000 -->
      <g transform="translate(24.710313 94.804724) scale(0.1 -0.1)">
       <defs>
        <path id="DejaVuSans-2212" d="M 678 2272 
L 4684 2272 
L 4684 1741 
L 678 1741 
L 678 2272 
z
" transform="scale(0.015625)"/>
       </defs>
       <use xlink:href="#DejaVuSans-2212"/>
       <use xlink:href="#DejaVuSans-31" x="83.789062"/>
       <use xlink:href="#DejaVuSans-30" x="147.412109"/>
       <use xlink:href="#DejaVuSans-30" x="211.035156"/>
       <use xlink:href="#DejaVuSans-30" x="274.658203"/>
      </g>
     </g>
    </g>
    <g id="ytick_2">
     <g id="line2d_8">
      <g>
       <use xlink:href="#m97679091fe" x="65.54" y="61.621047" style="stroke: #000000; stroke-width: 0.8"/>
      </g>
     </g>
     <g id="text_9">
      <!-- −500 -->
      <g transform="translate(31.072813 65.420266) scale(0.1 -0.1)">
       <use xlink:href="#DejaVuSans-2212"/>
       <use xlink:href="#DejaVuSans-35" x="83.789062"/>
       <use xlink:href="#DejaVuSans-30" x="147.412109"/>
       <use xlink:href="#DejaVuSans-30" x="211.035156"/>
      </g>
     </g>
    </g>
    <g id="ytick_3">
     <g id="line2d_9">
      <g>
       <use xlink:href="#m97679091fe" x="65.54" y="32.23659" style="stroke: #000000; stroke-width: 0.8"/>
      </g>
     </g>
     <g id="text_10">
      <!-- 0 -->
      <g transform="translate(52.1775 36.035808) scale(0.1 -0.1)">
       <use xlink:href="#DejaVuSans-30"/>
      </g>
     </g>
    </g>
    <g id="text_11">
     <!-- Torque (Nm) -->
     <g transform="translate(18.630625 99.262344) rotate(-90) scale(0.1 -0.1)">
      <defs>
       <path id="DejaVuSans-6f" d="M 1959 3097 
Q 1497 3097 1228 2736 
Q 959 2375 959 1747 
Q 959 1119 1226 758 
Q 1494 397 1959 397 
Q 2419 397 2687 759 
Q 2956 1122 2956 1747 
Q 2956 2369 2687 2733 
Q 2419 3097 1959 3097 
z
M 1959 3584 
Q 2709 3584 3137 3096 
Q 3566 2609 3566 1747 
Q 3566 888 3137 398 
Q 2709 -91 1959 -91 
Q 1206 -91 779 398 
Q 353 888 353 1747 
Q 353 2609 779 3096 
Q 1206 3584 1959 3584 
z
" transform="scale(0.015625)"/>
       <path id="DejaVuSans-72" d="M 2631 2963 
Q 2534 3019 2420 3045 
Q 2306 3072 2169 3072 
Q 1681 3072 1420 2755 
Q 1159 2438 1159 1844 
L 1159 0 
L 581 0 
L 581 3500 
L 1159 3500 
L 1159 2956 
Q 1341 3275 1631 3429 
Q 1922 3584 2338 3584 
Q 2397 3584 2469 3576 
Q 2541 3569 2628 3553 
L 2631 2963 
z
" transform="scale(0.015625)"/>
       <path id="DejaVuSans-71" d="M 947 1747 
Q 947 1113 1208 752 
Q 1469 391 1925 391 
Q 2381 391 2643 752 
Q 2906 1113 2906 1747 
Q 2906 2381 2643 2742 
Q 2381 3103 1925 3103 
Q 1469 3103 1208 2742 
Q 947 2381 947 1747 
z
M 2906 525 
Q 2725 213 2448 61 
Q 2172 -91 1784 -91 
Q 1150 -91 751 415 
Q 353 922 353 1747 
Q 353 2572 751 3078 
Q 1150 3584 1784 3584 
Q 2172 3584 2448 3432 
Q 2725 3281 2906 2969 
L 2906 3500 
L 3481 3500 
L 3481 -1331 
L 2906 -1331 
L 2906 525 
z
" transform="scale(0.015625)"/>
       <path id="DejaVuSans-75" d="M 544 1381 
L 544 3500 
L 1119 3500 
L 1119 1403 
Q 1119 906 1312 657 
Q 1506 409 1894 409 
Q 2359 409 2629 706 
Q 2900 1003 2900 1516 
L 2900 3500 
L 3475 3500 
L 3475 0 
L 2900 0 
L 2900 538 
Q 2691 219 2414 64 
Q 2138 -91 1772 -91 
Q 1169 -91 856 284 
Q 544 659 544 1381 
z
M 1991 3584 
L 1991 3584 
z
" transform="scale(0.015625)"/>
       <path id="DejaVuSans-4e" d="M 628 4666 
L 1478 4666 
L 3547 763 
L 3547 4666 
L 4159 4666 
L 4159 0 
L 3309 0 
L 1241 3903 
L 1241 0 
L 628 0 
L 628 4666 
z
" transform="scale(0.015625)"/>
      </defs>
      <use xlink:href="#DejaVuSans-54"/>
      <use xlink:href="#DejaVuSans-6f" x="44.083984"/>
      <use xlink:href="#DejaVuSans-72" x="105.265625"/>
      <use xlink:href="#DejaVuSans-71" x="144.628906"/>
      <use xlink:href="#DejaVuSans-75" x="208.105469"/>
      <use xlink:href="#DejaVuSans-65" x="271.484375"/>
      <use xlink:href="#DejaVuSans-20" x="333.007812"/>
      <use xlink:href="#DejaVuSans-28" x="364.794922"/>
      <use xlink:href="#DejaVuSans-4e" x="403.808594"/>
      <use xlink:href="#DejaVuSans-6d" x="478.613281"/>
      <use xlink:href="#DejaVuSans-29" x="576.025391"/>
     </g>
    </g>
   </g>
   <g id="line2d_10">
    <path d="M 88.251818 32.23659 
L 130.209394 32.23659 
L 132.033636 35.987643 
L 133.857879 46.073655 
L 135.682121 58.939487 
L 137.506364 72.620899 
L 139.330606 87.415077 
L 141.154848 99.999672 
L 142.979091 105.687874 
L 144.803333 106.355455 
L 146.627576 101.339377 
L 148.451818 88.518947 
L 152.100303 58.919946 
L 153.924545 44.962752 
L 155.748788 34.418096 
L 157.57303 31.402688 
L 159.397273 32.38861 
L 163.045758 33.486639 
L 164.87 33.529856 
L 166.694242 32.546628 
L 168.518485 31.338193 
L 170.342727 30.971631 
L 172.16697 31.186882 
L 173.991212 31.600936 
L 177.639697 33.614056 
L 179.463939 33.647836 
L 183.112424 32.010035 
L 186.760909 30.813723 
L 188.585152 31.077623 
L 190.409394 32.316278 
L 192.233636 33.284229 
L 194.057879 33.407807 
L 195.882121 33.2524 
L 197.706364 32.759896 
L 199.530606 31.602827 
L 201.354848 30.714712 
L 203.179091 31.026299 
L 205.003333 31.891391 
L 208.651818 33.263007 
L 210.476061 33.729606 
L 212.300303 33.118687 
L 214.124545 31.863665 
L 215.948788 31.164065 
L 217.77303 31.073277 
L 219.597273 31.211952 
L 221.421515 31.972188 
L 223.245758 33.211453 
L 225.07 33.727069 
L 226.894242 33.204097 
L 230.542727 31.802751 
L 232.36697 30.956982 
L 234.191212 30.759311 
L 236.015455 31.723513 
L 237.839697 32.834352 
L 239.663939 33.274343 
L 241.488182 33.419839 
L 243.312424 33.23233 
L 245.136667 32.184685 
L 246.960909 30.993395 
L 248.785152 30.84796 
L 252.433636 32.0717 
L 256.082121 33.699392 
L 257.906364 33.554787 
L 259.730606 32.436032 
L 261.554848 31.528166 
L 263.379091 31.161303 
L 265.203333 30.98468 
L 267.027576 31.4223 
L 268.851818 32.659903 
L 270.676061 33.575387 
L 272.500303 33.458641 
L 276.148788 32.297899 
L 277.97303 31.307379 
L 279.797273 30.664545 
L 281.621515 31.218106 
L 283.445758 32.301642 
L 285.27 32.964183 
L 287.094242 33.385501 
L 288.918485 33.556799 
L 290.742727 32.781524 
L 292.56697 31.457868 
L 294.391212 30.892098 
L 296.215455 31.175414 
L 298.039697 31.606051 
L 299.863939 32.348166 
L 301.688182 33.440984 
L 303.512424 33.788909 
L 305.336667 32.964737 
L 307.160909 32.0001 
L 310.809394 30.961007 
L 312.633636 30.990077 
L 316.282121 33.219877 
L 318.106364 33.507659 
L 319.930606 33.249686 
L 321.754848 32.794955 
L 325.403333 30.809704 
L 327.227576 30.877252 
L 329.051818 31.772573 
L 330.876061 32.531332 
L 334.524545 33.677937 
L 336.348788 33.299965 
L 338.17303 32.034812 
L 339.997273 31.147996 
L 341.821515 31.073936 
L 343.645758 31.242502 
L 345.47 31.799922 
L 347.294242 32.992866 
L 349.118485 33.786134 
L 350.942727 33.366726 
L 352.76697 32.499731 
L 356.415455 31.149325 
L 358.239697 30.744751 
L 360.063939 31.457521 
L 361.888182 32.720007 
L 363.712424 33.347415 
L 365.536667 33.38984 
L 367.360909 33.210454 
L 369.185152 32.395716 
L 371.009394 31.173255 
L 372.833636 30.750931 
L 374.657879 31.332175 
L 380.130606 33.571648 
L 381.954848 33.658852 
L 385.603333 31.570787 
L 387.427576 31.173127 
L 389.251818 31.04385 
L 391.076061 31.307468 
L 394.724545 33.547859 
L 396.548788 33.580704 
L 400.197273 32.341802 
L 403.845758 30.727167 
L 405.67 30.992235 
L 407.494242 32.156771 
L 409.318485 33.007689 
L 411.142727 33.329346 
L 412.96697 33.473947 
L 414.791212 32.965624 
L 416.615455 31.698879 
L 418.439697 30.855378 
L 420.263939 31.050531 
L 423.912424 32.265958 
L 425.736667 33.250475 
L 427.560909 33.802304 
L 429.385152 33.164524 
L 431.209394 32.088839 
L 433.033636 31.453999 
L 434.857879 31.04651 
L 436.682121 30.951878 
L 438.506364 31.819262 
L 440.330606 33.112536 
L 442.154848 33.576899 
L 443.979091 33.259869 
L 445.803333 32.819167 
L 447.627576 32.023418 
L 449.451818 30.943278 
L 451.276061 30.719056 
L 454.924545 32.54765 
L 458.57303 33.538636 
L 460.397273 33.43173 
L 464.045758 31.171073 
L 465.87 30.970505 
L 467.694242 31.26859 
L 469.518485 31.755214 
L 473.16697 33.7075 
L 474.991212 33.54286 
L 476.815455 32.616675 
L 478.639697 31.867955 
L 480.463939 31.25319 
L 482.288182 30.792707 
L 484.112424 31.274355 
L 485.936667 32.549712 
L 487.760909 33.360381 
L 489.585152 33.395282 
L 491.409394 33.203909 
L 493.233636 32.573349 
L 495.057879 31.36186 
L 496.882121 30.678397 
L 498.706364 31.191994 
L 500.530606 32.046157 
L 504.179091 33.389067 
L 506.003333 33.719229 
L 507.827576 32.899752 
L 509.651818 31.645109 
L 511.476061 31.100804 
L 513.300303 31.100113 
L 515.124545 31.312145 
L 516.948788 32.181687 
L 518.77303 33.388057 
L 520.597273 33.713017 
L 524.245758 32.343902 
L 527.894242 30.859207 
L 529.718485 30.8739 
L 533.36697 32.969541 
L 535.191212 33.3294 
L 537.015455 33.430144 
L 538.839697 33.084242 
L 542.488182 30.874675 
L 542.488182 30.874675 
" clip-path="url(#p305f4883f8)" style="fill: none; stroke: #ff0000; stroke-width: 1.5; stroke-linecap: square"/>
   </g>
   <g id="patch_3">
    <path d="M 65.54 110.14 
L 65.54 26.88 
" style="fill: none; stroke: #000000; stroke-width: 0.8; stroke-linejoin: miter; stroke-linecap: square"/>
   </g>
   <g id="patch_4">
    <path d="M 565.2 110.14 
L 565.2 26.88 
" style="fill: none; stroke: #000000; stroke-width: 0.8; stroke-linejoin: miter; stroke-linecap: square"/>
   </g>
   <g id="patch_5">
    <path d="M 65.54 110.14 
L 565.2 110.14 
" style="fill: none; stroke: #000000; stroke-width: 0.8; stroke-linejoin: miter; stroke-linecap: square"/>
   </g>
   <g id="patch_6">
    <path d="M 65.54 26.88 
L 565.2 26.88 
" style="fill: none; stroke: #000000; stroke-width: 0.8; stroke-linejoin: miter; stroke-linecap: square"/>
   </g>
   <g id="text_12">
    <!-- Torque at shaft 1 -->
    <g transform="translate(264.8575 20.88) scale(0.12 -0.12)">
     <defs>
      <path id="DejaVuSans-61" d="M 2194 1759 
Q 1497 1759 1228 1600 
Q 959 1441 959 1056 
Q 959 750 1161 570 
Q 1363 391 1709 391 
Q 2188 391 2477 730 
Q 2766 1069 2766 1631 
L 2766 1759 
L 2194 1759 
z
M 3341 1997 
L 3341 0 
L 2766 0 
L 2766 531 
Q 2569 213 2275 61 
Q 1981 -91 1556 -91 
Q 1019 -91 701 211 
Q 384 513 384 1019 
Q 384 1609 779 1909 
Q 1175 2209 1959 2209 
L 2766 2209 
L 2766 2266 
Q 2766 2663 2505 2880 
Q 2244 3097 1772 3097 
Q 1472 3097 1187 3025 
Q 903 2953 641 2809 
L 641 3341 
Q 956 3463 1253 3523 
Q 1550 3584 1831 3584 
Q 2591 3584 2966 3190 
Q 3341 2797 3341 1997 
z
" transform="scale(0.015625)"/>
      <path id="DejaVuSans-74" d="M 1172 4494 
L 1172 3500 
L 2356 3500 
L 2356 3053 
L 1172 3053 
L 1172 1153 
Q 1172 725 1289 603 
Q 1406 481 1766 481 
L 2356 481 
L 2356 0 
L 1766 0 
Q 1100 0 847 248 
Q 594 497 594 1153 
L 594 3053 
L 172 3053 
L 172 3500 
L 594 3500 
L 594 4494 
L 1172 4494 
z
" transform="scale(0.015625)"/>
      <path id="DejaVuSans-68" d="M 3513 2113 
L 3513 0 
L 2938 0 
L 2938 2094 
Q 2938 2591 2744 2837 
Q 2550 3084 2163 3084 
Q 1697 3084 1428 2787 
Q 1159 2491 1159 1978 
L 1159 0 
L 581 0 
L 581 4863 
L 1159 4863 
L 1159 2956 
Q 1366 3272 1645 3428 
Q 1925 3584 2291 3584 
Q 2894 3584 3203 3211 
Q 3513 2838 3513 2113 
z
" transform="scale(0.015625)"/>
      <path id="DejaVuSans-66" d="M 2375 4863 
L 2375 4384 
L 1825 4384 
Q 1516 4384 1395 4259 
Q 1275 4134 1275 3809 
L 1275 3500 
L 2222 3500 
L 2222 3053 
L 1275 3053 
L 1275 0 
L 697 0 
L 697 3053 
L 147 3053 
L 147 3500 
L 697 3500 
L 697 3744 
Q 697 4328 969 4595 
Q 1241 4863 1831 4863 
L 2375 4863 
z
" transform="scale(0.015625)"/>
     </defs>
     <use xlink:href="#DejaVuSans-54"/>
     <use xlink:href="#DejaVuSans-6f" x="44.083984"/>
     <use xlink:href="#DejaVuSans-72" x="105.265625"/>
     <use xlink:href="#DejaVuSans-71" x="144.628906"/>
     <use xlink:href="#DejaVuSans-75" x="208.105469"/>
     <use xlink:href="#DejaVuSans-65" x="271.484375"/>
     <use xlink:href="#DejaVuSans-20" x="333.007812"/>
     <use xlink:href="#DejaVuSans-61" x="364.794922"/>
     <use xlink:href="#DejaVuSans-74" x="426.074219"/>
     <use xlink:href="#DejaVuSans-20" x="465.283203"/>
     <use xlink:href="#DejaVuSans-73" x="497.070312"/>
     <use xlink:href="#DejaVuSans-68" x="549.169922"/>
     <use xlink:href="#DejaVuSans-61" x="612.548828"/>
     <use xlink:href="#DejaVuSans-66" x="673.828125"/>
     <use xlink:href="#DejaVuSans-74" x="707.283203"/>
     <use xlink:href="#DejaVuSans-20" x="746.492188"/>
     <use xlink:href="#DejaVuSans-31" x="778.279297"/>
    </g>
   </g>
  </g>
  <g id="axes_2">
   <g id="patch_7">
    <path d="M 65.54 251.44 
L 565.2 251.44 
L 565.2 168.18 
L 65.54 168.18 
z
" style="fill: #ffffff"/>
   </g>
   <g id="matplotlib.axis_3">
    <g id="xtick_7">
     <g id="line2d_11">
      <g>
       <use xlink:href="#m5505b4800d" x="88.251818" y="251.44" style="stroke: #000000; stroke-width: 0.8"/>
      </g>
     </g>
     <g id="text_13">
      <!-- 0.0 -->
      <g transform="translate(80.300256 266.038438) scale(0.1 -0.1)">
       <use xlink:href="#DejaVuSans-30"/>
       <use xlink:href="#DejaVuSans-2e" x="63.623047"/>
       <use xlink:href="#DejaVuSans-30" x="95.410156"/>
      </g>
     </g>
    </g>
    <g id="xtick_8">
     <g id="line2d_12">
      <g>
       <use xlink:href="#m5505b4800d" x="179.463939" y="251.44" style="stroke: #000000; stroke-width: 0.8"/>
      </g>
     </g>
     <g id="text_14">
      <!-- 0.1 -->
      <g transform="translate(171.512377 266.038438) scale(0.1 -0.1)">
       <use xlink:href="#DejaVuSans-30"/>
       <use xlink:href="#DejaVuSans-2e" x="63.623047"/>
       <use xlink:href="#DejaVuSans-31" x="95.410156"/>
      </g>
     </g>
    </g>
    <g id="xtick_9">
     <g id="line2d_13">
      <g>
       <use xlink:href="#m5505b4800d" x="270.676061" y="251.44" style="stroke: #000000; stroke-width: 0.8"/>
      </g>
     </g>
     <g id="text_15">
      <!-- 0.2 -->
      <g transform="translate(262.724498 266.038438) scale(0.1 -0.1)">
       <use xlink:href="#DejaVuSans-30"/>
       <use xlink:href="#DejaVuSans-2e" x="63.623047"/>
       <use xlink:href="#DejaVuSans-32" x="95.410156"/>
      </g>
     </g>
    </g>
    <g id="xtick_10">
     <g id="line2d_14">
      <g>
       <use xlink:href="#m5505b4800d" x="361.888182" y="251.44" style="stroke: #000000; stroke-width: 0.8"/>
      </g>
     </g>
     <g id="text_16">
      <!-- 0.3 -->
      <g transform="translate(353.936619 266.038438) scale(0.1 -0.1)">
       <use xlink:href="#DejaVuSans-30"/>
       <use xlink:href="#DejaVuSans-2e" x="63.623047"/>
       <use xlink:href="#DejaVuSans-33" x="95.410156"/>
      </g>
     </g>
    </g>
    <g id="xtick_11">
     <g id="line2d_15">
      <g>
       <use xlink:href="#m5505b4800d" x="453.100303" y="251.44" style="stroke: #000000; stroke-width: 0.8"/>
      </g>
     </g>
     <g id="text_17">
      <!-- 0.4 -->
      <g transform="translate(445.148741 266.038438) scale(0.1 -0.1)">
       <use xlink:href="#DejaVuSans-30"/>
       <use xlink:href="#DejaVuSans-2e" x="63.623047"/>
       <use xlink:href="#DejaVuSans-34" x="95.410156"/>
      </g>
     </g>
    </g>
    <g id="xtick_12">
     <g id="line2d_16">
      <g>
       <use xlink:href="#m5505b4800d" x="544.312424" y="251.44" style="stroke: #000000; stroke-width: 0.8"/>
      </g>
     </g>
     <g id="text_18">
      <!-- 0.5 -->
      <g transform="translate(536.360862 266.038438) scale(0.1 -0.1)">
       <use xlink:href="#DejaVuSans-30"/>
       <use xlink:href="#DejaVuSans-2e" x="63.623047"/>
       <use xlink:href="#DejaVuSans-35" x="95.410156"/>
      </g>
     </g>
    </g>
    <g id="text_19">
     <!-- Time (s) -->
     <g transform="translate(295.041094 279.716563) scale(0.1 -0.1)">
      <use xlink:href="#DejaVuSans-54"/>
      <use xlink:href="#DejaVuSans-69" x="57.958984"/>
      <use xlink:href="#DejaVuSans-6d" x="85.742188"/>
      <use xlink:href="#DejaVuSans-65" x="183.154297"/>
      <use xlink:href="#DejaVuSans-20" x="244.677734"/>
      <use xlink:href="#DejaVuSans-28" x="276.464844"/>
      <use xlink:href="#DejaVuSans-73" x="315.478516"/>
      <use xlink:href="#DejaVuSans-29" x="367.578125"/>
     </g>
    </g>
   </g>
   <g id="matplotlib.axis_4">
    <g id="ytick_4">
     <g id="line2d_17">
      <g>
       <use xlink:href="#m97679091fe" x="65.54" y="236.22705" style="stroke: #000000; stroke-width: 0.8"/>
      </g>
     </g>
     <g id="text_20">
      <!-- −1000 -->
      <g transform="translate(24.710313 240.026268) scale(0.1 -0.1)">
       <use xlink:href="#DejaVuSans-2212"/>
       <use xlink:href="#DejaVuSans-31" x="83.789062"/>
       <use xlink:href="#DejaVuSans-30" x="147.412109"/>
       <use xlink:href="#DejaVuSans-30" x="211.035156"/>
       <use xlink:href="#DejaVuSans-30" x="274.658203"/>
      </g>
     </g>
    </g>
    <g id="ytick_5">
     <g id="line2d_18">
      <g>
       <use xlink:href="#m97679091fe" x="65.54" y="204.958395" style="stroke: #000000; stroke-width: 0.8"/>
      </g>
     </g>
     <g id="text_21">
      <!-- −500 -->
      <g transform="translate(31.072813 208.757614) scale(0.1 -0.1)">
       <use xlink:href="#DejaVuSans-2212"/>
       <use xlink:href="#DejaVuSans-35" x="83.789062"/>
       <use xlink:href="#DejaVuSans-30" x="147.412109"/>
       <use xlink:href="#DejaVuSans-30" x="211.035156"/>
      </g>
     </g>
    </g>
    <g id="ytick_6">
     <g id="line2d_19">
      <g>
       <use xlink:href="#m97679091fe" x="65.54" y="173.689741" style="stroke: #000000; stroke-width: 0.8"/>
      </g>
     </g>
     <g id="text_22">
      <!-- 0 -->
      <g transform="translate(52.1775 177.48896) scale(0.1 -0.1)">
       <use xlink:href="#DejaVuSans-30"/>
      </g>
     </g>
    </g>
    <g id="text_23">
     <!-- Torque (Nm) -->
     <g transform="translate(18.630625 240.562344) rotate(-90) scale(0.1 -0.1)">
      <use xlink:href="#DejaVuSans-54"/>
      <use xlink:href="#DejaVuSans-6f" x="44.083984"/>
      <use xlink:href="#DejaVuSans-72" x="105.265625"/>
      <use xlink:href="#DejaVuSans-71" x="144.628906"/>
      <use xlink:href="#DejaVuSans-75" x="208.105469"/>
      <use xlink:href="#DejaVuSans-65" x="271.484375"/>
      <use xlink:href="#DejaVuSans-20" x="333.007812"/>
      <use xlink:href="#DejaVuSans-28" x="364.794922"/>
      <use xlink:href="#DejaVuSans-4e" x="403.808594"/>
      <use xlink:href="#DejaVuSans-6d" x="478.613281"/>
      <use xlink:href="#DejaVuSans-29" x="576.025391"/>
     </g>
    </g>
   </g>
   <g id="line2d_20">
    <path d="M 88.251818 173.689741 
L 130.209394 173.689741 
L 132.033636 176.752341 
L 133.857879 185.895733 
L 135.682121 199.322847 
L 139.330606 229.59968 
L 141.154848 241.721961 
L 142.979091 247.287428 
L 144.803333 247.655455 
L 146.627576 242.958972 
L 148.451818 231.280284 
L 152.100303 198.824283 
L 153.924545 184.714908 
L 155.748788 175.450668 
L 157.57303 172.557572 
L 159.397273 173.49942 
L 161.221515 174.852808 
L 163.045758 175.312037 
L 164.87 174.726506 
L 168.518485 173.116356 
L 170.342727 172.194307 
L 172.16697 172.127713 
L 175.815455 174.350714 
L 177.639697 174.857918 
L 179.463939 175.07615 
L 181.288182 174.739142 
L 184.936667 172.28135 
L 186.760909 172.235143 
L 190.409394 173.50232 
L 194.057879 175.385951 
L 195.882121 175.048773 
L 197.706364 173.806979 
L 199.530606 172.907015 
L 201.354848 172.479207 
L 203.179091 172.262383 
L 205.003333 172.861808 
L 206.827576 174.276784 
L 208.651818 175.184679 
L 210.476061 175.009319 
L 212.300303 174.450329 
L 214.124545 173.686286 
L 215.948788 172.559947 
L 217.77303 171.967956 
L 219.597273 172.649767 
L 221.421515 173.783033 
L 223.245758 174.52433 
L 225.07 175.051814 
L 226.894242 175.134616 
L 228.718485 174.142555 
L 230.542727 172.766095 
L 232.36697 172.256415 
L 234.191212 172.505208 
L 236.015455 172.968272 
L 237.839697 173.93382 
L 239.663939 175.140418 
L 241.488182 175.337919 
L 245.136667 173.429488 
L 248.785152 172.194418 
L 250.609394 172.343439 
L 254.257879 174.827488 
L 256.082121 175.067405 
L 257.906364 174.812014 
L 259.730606 174.270775 
L 263.379091 172.071606 
L 265.203333 172.247007 
L 267.027576 173.213544 
L 270.676061 174.797303 
L 272.500303 175.308576 
L 274.324545 174.74901 
L 276.148788 173.385902 
L 277.97303 172.508067 
L 279.797273 172.378406 
L 281.621515 172.546483 
L 283.445758 173.313633 
L 285.27 174.66964 
L 287.094242 175.371365 
L 288.918485 174.845205 
L 294.391212 172.368964 
L 296.215455 172.027254 
L 298.039697 172.967367 
L 299.863939 174.300331 
L 301.688182 174.894423 
L 303.512424 174.981933 
L 305.336667 174.773724 
L 307.160909 173.760113 
L 308.985152 172.422149 
L 310.809394 172.076047 
L 314.457879 173.509857 
L 318.106364 175.23007 
L 319.930606 175.194392 
L 323.579091 172.944956 
L 325.403333 172.477867 
L 327.227576 172.309654 
L 329.051818 172.739275 
L 330.876061 174.045467 
L 332.700303 175.146725 
L 334.524545 175.105638 
L 338.17303 173.793314 
L 339.997273 172.7626 
L 341.821515 171.964545 
L 343.645758 172.436573 
L 345.47 173.689661 
L 347.294242 174.522684 
L 349.118485 174.929866 
L 350.942727 175.110513 
L 352.76697 174.408841 
L 354.591212 172.965092 
L 356.415455 172.159965 
L 358.239697 172.425622 
L 360.063939 173.00112 
L 361.888182 173.783698 
L 363.712424 174.907655 
L 365.536667 175.409218 
L 367.360909 174.63239 
L 369.185152 173.493095 
L 371.009394 172.785744 
L 372.833636 172.300046 
L 374.657879 172.303699 
L 376.482121 173.364608 
L 378.306364 174.701602 
L 380.130606 175.131594 
L 381.954848 174.846018 
L 383.779091 174.335369 
L 385.603333 173.315564 
L 387.427576 172.166533 
L 389.251818 172.102899 
L 392.900303 174.016566 
L 396.548788 175.222937 
L 398.37303 174.9551 
L 400.197273 173.615611 
L 402.021515 172.480663 
L 403.845758 172.332387 
L 405.67 172.609116 
L 407.494242 173.187092 
L 409.318485 174.388253 
L 411.142727 175.360486 
L 412.96697 175.065576 
L 414.791212 174.060962 
L 418.439697 172.523241 
L 420.263939 172.079395 
L 422.088182 172.73244 
L 423.912424 174.107242 
L 425.736667 174.923363 
L 427.560909 175.003616 
L 429.385152 174.779775 
L 431.209394 173.940889 
L 433.033636 172.603406 
L 434.857879 172.016929 
L 436.682121 172.609706 
L 442.154848 175.089137 
L 443.979091 175.312532 
L 445.803333 174.271798 
L 447.627576 172.983174 
L 449.451818 172.468855 
L 451.276061 172.401318 
L 453.100303 172.65802 
L 454.924545 173.751018 
L 456.748788 175.057032 
L 458.57303 175.276537 
L 462.221515 173.788198 
L 465.87 172.105526 
L 467.694242 172.24622 
L 469.518485 173.458044 
L 471.342727 174.519793 
L 473.16697 174.93517 
L 474.991212 175.049678 
L 476.815455 174.539188 
L 478.639697 173.209089 
L 480.463939 172.189678 
L 482.288182 172.310073 
L 485.936667 173.681516 
L 487.760909 174.726516 
L 489.585152 175.423192 
L 491.409394 174.83178 
L 493.233636 173.585059 
L 495.057879 172.809623 
L 496.882121 172.413922 
L 498.706364 172.284122 
L 500.530606 173.095233 
L 502.354848 174.547065 
L 504.179091 175.235229 
L 506.003333 174.892839 
L 507.827576 174.313041 
L 509.651818 173.50544 
L 511.476061 172.381084 
L 513.300303 171.980783 
L 515.124545 172.856725 
L 516.948788 173.990575 
L 518.77303 174.652375 
L 520.597273 175.096587 
L 522.421515 175.014805 
L 524.245758 173.890544 
L 526.07 172.590819 
L 527.894242 172.240009 
L 529.718485 172.571039 
L 531.542727 173.131645 
L 535.191212 175.267859 
L 537.015455 175.210061 
L 540.663939 173.294997 
L 542.488182 172.646686 
L 542.488182 172.646686 
" clip-path="url(#p1400eb5b4b)" style="fill: none; stroke: #ff0000; stroke-width: 1.5; stroke-linecap: square"/>
   </g>
   <g id="patch_8">
    <path d="M 65.54 251.44 
L 65.54 168.18 
" style="fill: none; stroke: #000000; stroke-width: 0.8; stroke-linejoin: miter; stroke-linecap: square"/>
   </g>
   <g id="patch_9">
    <path d="M 565.2 251.44 
L 565.2 168.18 
" style="fill: none; stroke: #000000; stroke-width: 0.8; stroke-linejoin: miter; stroke-linecap: square"/>
   </g>
   <g id="patch_10">
    <path d="M 65.54 251.44 
L 565.2 251.44 
" style="fill: none; stroke: #000000; stroke-width: 0.8; stroke-linejoin: miter; stroke-linecap: square"/>
   </g>
   <g id="patch_11">
    <path d="M 65.54 168.18 
L 565.2 168.18 
" style="fill: none; stroke: #000000; stroke-width: 0.8; stroke-linejoin: miter; stroke-linecap: square"/>
   </g>
   <g id="text_24">
    <!-- Torque at shaft 2 -->
    <g transform="translate(264.8575 162.18) scale(0.12 -0.12)">
     <use xlink:href="#DejaVuSans-54"/>
     <use xlink:href="#DejaVuSans-6f" x="44.083984"/>
     <use xlink:href="#DejaVuSans-72" x="105.265625"/>
     <use xlink:href="#DejaVuSans-71" x="144.628906"/>
     <use xlink:href="#DejaVuSans-75" x="208.105469"/>
     <use xlink:href="#DejaVuSans-65" x="271.484375"/>
     <use xlink:href="#DejaVuSans-20" x="333.007812"/>
     <use xlink:href="#DejaVuSans-61" x="364.794922"/>
     <use xlink:href="#DejaVuSans-74" x="426.074219"/>
     <use xlink:href="#DejaVuSans-20" x="465.283203"/>
     <use xlink:href="#DejaVuSans-73" x="497.070312"/>
     <use xlink:href="#DejaVuSans-68" x="549.169922"/>
     <use xlink:href="#DejaVuSans-61" x="612.548828"/>
     <use xlink:href="#DejaVuSans-66" x="673.828125"/>
     <use xlink:href="#DejaVuSans-74" x="707.283203"/>
     <use xlink:href="#DejaVuSans-20" x="746.492188"/>
     <use xlink:href="#DejaVuSans-32" x="778.279297"/>
    </g>
   </g>
  </g>
  <g id="axes_3">
   <g id="patch_12">
    <path d="M 65.54 392.74 
L 565.2 392.74 
L 565.2 309.48 
L 65.54 309.48 
z
" style="fill: #ffffff"/>
   </g>
   <g id="matplotlib.axis_5">
    <g id="xtick_13">
     <g id="line2d_21">
      <g>
       <use xlink:href="#m5505b4800d" x="88.251818" y="392.74" style="stroke: #000000; stroke-width: 0.8"/>
      </g>
     </g>
     <g id="text_25">
      <!-- 0.0 -->
      <g transform="translate(80.300256 407.338437) scale(0.1 -0.1)">
       <use xlink:href="#DejaVuSans-30"/>
       <use xlink:href="#DejaVuSans-2e" x="63.623047"/>
       <use xlink:href="#DejaVuSans-30" x="95.410156"/>
      </g>
     </g>
    </g>
    <g id="xtick_14">
     <g id="line2d_22">
      <g>
       <use xlink:href="#m5505b4800d" x="179.463939" y="392.74" style="stroke: #000000; stroke-width: 0.8"/>
      </g>
     </g>
     <g id="text_26">
      <!-- 0.1 -->
      <g transform="translate(171.512377 407.338437) scale(0.1 -0.1)">
       <use xlink:href="#DejaVuSans-30"/>
       <use xlink:href="#DejaVuSans-2e" x="63.623047"/>
       <use xlink:href="#DejaVuSans-31" x="95.410156"/>
      </g>
     </g>
    </g>
    <g id="xtick_15">
     <g id="line2d_23">
      <g>
       <use xlink:href="#m5505b4800d" x="270.676061" y="392.74" style="stroke: #000000; stroke-width: 0.8"/>
      </g>
     </g>
     <g id="text_27">
      <!-- 0.2 -->
      <g transform="translate(262.724498 407.338437) scale(0.1 -0.1)">
       <use xlink:href="#DejaVuSans-30"/>
       <use xlink:href="#DejaVuSans-2e" x="63.623047"/>
       <use xlink:href="#DejaVuSans-32" x="95.410156"/>
      </g>
     </g>
    </g>
    <g id="xtick_16">
     <g id="line2d_24">
      <g>
       <use xlink:href="#m5505b4800d" x="361.888182" y="392.74" style="stroke: #000000; stroke-width: 0.8"/>
      </g>
     </g>
     <g id="text_28">
      <!-- 0.3 -->
      <g transform="translate(353.936619 407.338437) scale(0.1 -0.1)">
       <use xlink:href="#DejaVuSans-30"/>
       <use xlink:href="#DejaVuSans-2e" x="63.623047"/>
       <use xlink:href="#DejaVuSans-33" x="95.410156"/>
      </g>
     </g>
    </g>
    <g id="xtick_17">
     <g id="line2d_25">
      <g>
       <use xlink:href="#m5505b4800d" x="453.100303" y="392.74" style="stroke: #000000; stroke-width: 0.8"/>
      </g>
     </g>
     <g id="text_29">
      <!-- 0.4 -->
      <g transform="translate(445.148741 407.338437) scale(0.1 -0.1)">
       <use xlink:href="#DejaVuSans-30"/>
       <use xlink:href="#DejaVuSans-2e" x="63.623047"/>
       <use xlink:href="#DejaVuSans-34" x="95.410156"/>
      </g>
     </g>
    </g>
    <g id="xtick_18">
     <g id="line2d_26">
      <g>
       <use xlink:href="#m5505b4800d" x="544.312424" y="392.74" style="stroke: #000000; stroke-width: 0.8"/>
      </g>
     </g>
     <g id="text_30">
      <!-- 0.5 -->
      <g transform="translate(536.360862 407.338437) scale(0.1 -0.1)">
       <use xlink:href="#DejaVuSans-30"/>
       <use xlink:href="#DejaVuSans-2e" x="63.623047"/>
       <use xlink:href="#DejaVuSans-35" x="95.410156"/>
      </g>
     </g>
    </g>
    <g id="text_31">
     <!-- Time (s) -->
     <g transform="translate(295.041094 421.016562) scale(0.1 -0.1)">
      <use xlink:href="#DejaVuSans-54"/>
      <use xlink:href="#DejaVuSans-69" x="57.958984"/>
      <use xlink:href="#DejaVuSans-6d" x="85.742188"/>
      <use xlink:href="#DejaVuSans-65" x="183.154297"/>
      <use xlink:href="#DejaVuSans-20" x="244.677734"/>
      <use xlink:href="#DejaVuSans-28" x="276.464844"/>
      <use xlink:href="#DejaVuSans-73" x="315.478516"/>
      <use xlink:href="#DejaVuSans-29" x="367.578125"/>
     </g>
    </g>
   </g>
   <g id="matplotlib.axis_6">
    <g id="ytick_7">
     <g id="line2d_27">
      <g>
       <use xlink:href="#m97679091fe" x="65.54" y="386.121887" style="stroke: #000000; stroke-width: 0.8"/>
      </g>
     </g>
     <g id="text_32">
      <!-- −750 -->
      <g transform="translate(31.072813 389.921105) scale(0.1 -0.1)">
       <defs>
        <path id="DejaVuSans-37" d="M 525 4666 
L 3525 4666 
L 3525 4397 
L 1831 0 
L 1172 0 
L 2766 4134 
L 525 4134 
L 525 4666 
z
" transform="scale(0.015625)"/>
       </defs>
       <use xlink:href="#DejaVuSans-2212"/>
       <use xlink:href="#DejaVuSans-37" x="83.789062"/>
       <use xlink:href="#DejaVuSans-35" x="147.412109"/>
       <use xlink:href="#DejaVuSans-30" x="211.035156"/>
      </g>
     </g>
    </g>
    <g id="ytick_8">
     <g id="line2d_28">
      <g>
       <use xlink:href="#m97679091fe" x="65.54" y="362.665223" style="stroke: #000000; stroke-width: 0.8"/>
      </g>
     </g>
     <g id="text_33">
      <!-- −500 -->
      <g transform="translate(31.072813 366.464442) scale(0.1 -0.1)">
       <use xlink:href="#DejaVuSans-2212"/>
       <use xlink:href="#DejaVuSans-35" x="83.789062"/>
       <use xlink:href="#DejaVuSans-30" x="147.412109"/>
       <use xlink:href="#DejaVuSans-30" x="211.035156"/>
      </g>
     </g>
    </g>
    <g id="ytick_9">
     <g id="line2d_29">
      <g>
       <use xlink:href="#m97679091fe" x="65.54" y="339.208559" style="stroke: #000000; stroke-width: 0.8"/>
      </g>
     </g>
     <g id="text_34">
      <!-- −250 -->
      <g transform="translate(31.072813 343.007778) scale(0.1 -0.1)">
       <use xlink:href="#DejaVuSans-2212"/>
       <use xlink:href="#DejaVuSans-32" x="83.789062"/>
       <use xlink:href="#DejaVuSans-35" x="147.412109"/>
       <use xlink:href="#DejaVuSans-30" x="211.035156"/>
      </g>
     </g>
    </g>
    <g id="ytick_10">
     <g id="line2d_30">
      <g>
       <use xlink:href="#m97679091fe" x="65.54" y="315.751896" style="stroke: #000000; stroke-width: 0.8"/>
      </g>
     </g>
     <g id="text_35">
      <!-- 0 -->
      <g transform="translate(52.1775 319.551114) scale(0.1 -0.1)">
       <use xlink:href="#DejaVuSans-30"/>
      </g>
     </g>
    </g>
    <g id="text_36">
     <!-- Torque (Nm) -->
     <g transform="translate(24.993125 381.862344) rotate(-90) scale(0.1 -0.1)">
      <use xlink:href="#DejaVuSans-54"/>
      <use xlink:href="#DejaVuSans-6f" x="44.083984"/>
      <use xlink:href="#DejaVuSans-72" x="105.265625"/>
      <use xlink:href="#DejaVuSans-71" x="144.628906"/>
      <use xlink:href="#DejaVuSans-75" x="208.105469"/>
      <use xlink:href="#DejaVuSans-65" x="271.484375"/>
      <use xlink:href="#DejaVuSans-20" x="333.007812"/>
      <use xlink:href="#DejaVuSans-28" x="364.794922"/>
      <use xlink:href="#DejaVuSans-4e" x="403.808594"/>
      <use xlink:href="#DejaVuSans-6d" x="478.613281"/>
      <use xlink:href="#DejaVuSans-29" x="576.025391"/>
     </g>
    </g>
   </g>
   <g id="line2d_31">
    <path d="M 88.251818 315.751896 
L 130.209394 315.751896 
L 132.033636 316.104559 
L 133.857879 321.118898 
L 135.682121 336.235587 
L 137.506364 357.694102 
L 139.330606 375.154967 
L 141.154848 384.376447 
L 142.979091 388.394473 
L 144.803333 388.955455 
L 146.627576 386.172743 
L 148.451818 377.503846 
L 150.276061 358.867909 
L 152.100303 335.560023 
L 153.924545 319.487403 
L 155.748788 314.230452 
L 157.57303 314.100639 
L 159.397273 315.503621 
L 161.221515 317.447675 
L 163.045758 318.037978 
L 164.87 317.176815 
L 168.518485 314.985123 
L 170.342727 313.627171 
L 172.16697 313.488034 
L 175.815455 316.73797 
L 177.639697 317.419228 
L 179.463939 317.670217 
L 181.288182 317.225359 
L 184.936667 313.774165 
L 186.760909 313.638744 
L 188.585152 314.518056 
L 190.409394 315.534611 
L 192.233636 316.932186 
L 194.057879 318.11131 
L 195.882121 317.648355 
L 197.706364 315.963416 
L 199.530606 314.675725 
L 201.354848 313.992168 
L 203.179091 313.690001 
L 205.003333 314.615292 
L 206.827576 316.623432 
L 208.651818 317.839692 
L 210.476061 317.583783 
L 212.300303 316.858995 
L 214.124545 315.789341 
L 215.948788 314.126882 
L 217.77303 313.264545 
L 219.597273 314.292022 
L 221.421515 315.930637 
L 223.245758 316.926597 
L 225.07 317.636098 
L 226.894242 317.805451 
L 228.718485 316.444799 
L 230.542727 314.44361 
L 232.36697 313.666039 
L 234.191212 314.063692 
L 236.015455 314.781594 
L 237.839697 316.110343 
L 239.663939 317.756226 
L 241.488182 318.074275 
L 245.136667 315.402428 
L 246.960909 314.410234 
L 248.785152 313.607183 
L 250.609394 313.892419 
L 254.257879 317.318457 
L 256.082121 317.677853 
L 257.906364 317.388169 
L 259.730606 316.607994 
L 261.554848 314.890265 
L 263.379091 313.421274 
L 265.203333 313.738828 
L 267.027576 315.114025 
L 270.676061 317.282322 
L 272.500303 318.071619 
L 274.324545 317.299319 
L 276.148788 315.303616 
L 277.97303 314.027526 
L 279.797273 313.903067 
L 281.621515 314.180447 
L 283.445758 315.21139 
L 285.27 317.088991 
L 287.094242 318.140251 
L 288.918485 317.446575 
L 290.742727 316.176689 
L 294.391212 313.872274 
L 296.215455 313.44945 
L 298.039697 314.736026 
L 299.863939 316.562669 
L 301.688182 317.448692 
L 303.512424 317.639103 
L 305.336667 317.305927 
L 307.160909 315.800832 
L 308.985152 313.933738 
L 310.809394 313.50954 
L 314.457879 315.453583 
L 318.106364 317.975898 
L 319.930606 317.918683 
L 323.579091 314.658826 
L 325.403333 314.061144 
L 327.227576 313.834424 
L 329.051818 314.379187 
L 330.876061 316.211695 
L 332.700303 317.838894 
L 334.524545 317.809629 
L 338.17303 315.84698 
L 339.997273 314.448156 
L 341.821515 313.358237 
L 343.645758 313.96561 
L 345.47 315.696179 
L 347.294242 316.938414 
L 349.118485 317.567481 
L 350.942727 317.766719 
L 352.76697 316.716889 
L 354.591212 314.721061 
L 356.415455 313.635044 
L 358.239697 313.964912 
L 360.063939 314.723491 
L 361.888182 315.874142 
L 363.712424 317.528251 
L 365.536667 318.207502 
L 367.360909 317.044659 
L 369.185152 315.451919 
L 371.009394 314.510227 
L 372.833636 313.806348 
L 374.657879 313.748049 
L 376.482121 315.258907 
L 378.306364 317.221095 
L 380.130606 317.834616 
L 381.954848 317.362612 
L 383.779091 316.626246 
L 385.603333 315.247541 
L 387.427576 313.63661 
L 389.251818 313.476964 
L 392.900303 316.235875 
L 394.724545 317.183637 
L 396.548788 317.910264 
L 398.37303 317.493697 
L 400.197273 315.660425 
L 402.021515 314.090536 
L 403.845758 313.815938 
L 405.67 314.164753 
L 407.494242 315.044571 
L 409.318485 316.795709 
L 411.142727 318.121266 
L 412.96697 317.653155 
L 414.791212 316.274715 
L 418.439697 314.106251 
L 420.263939 313.42082 
L 422.088182 314.378175 
L 423.912424 316.387854 
L 425.736667 317.523745 
L 427.560909 317.575143 
L 429.385152 317.271085 
L 431.209394 316.146788 
L 433.033636 314.243642 
L 434.857879 313.342169 
L 436.682121 314.181133 
L 438.506364 315.461991 
L 442.154848 317.705956 
L 443.979091 318.008106 
L 445.803333 316.606782 
L 447.627576 314.798385 
L 449.451818 313.993438 
L 451.276061 313.872989 
L 453.100303 314.310812 
L 454.924545 315.890474 
L 456.748788 317.673028 
L 458.57303 317.951658 
L 462.221515 315.942833 
L 465.87 313.453744 
L 467.694242 313.707123 
L 469.518485 315.472293 
L 471.342727 316.932403 
L 473.16697 317.471145 
L 474.991212 317.672324 
L 476.815455 317.003798 
L 478.639697 315.085537 
L 480.463939 313.578039 
L 482.288182 313.772409 
L 485.936667 315.767922 
L 487.760909 317.179882 
L 489.585152 318.178593 
L 491.409394 317.414094 
L 493.233636 315.640677 
L 495.057879 314.462953 
L 496.882121 313.900744 
L 498.706364 313.795552 
L 500.530606 314.951985 
L 502.354848 316.932929 
L 504.179091 317.899204 
L 506.003333 317.491019 
L 507.827576 316.683135 
L 509.651818 315.462468 
L 511.476061 313.847473 
L 513.300303 313.350104 
L 515.124545 314.617882 
L 516.948788 316.161275 
L 518.77303 317.069654 
L 520.597273 317.759425 
L 522.421515 317.680241 
L 524.245758 316.031916 
L 526.07 314.144308 
L 527.894242 313.693185 
L 529.718485 314.213068 
L 531.542727 314.968195 
L 535.191212 317.976747 
L 537.015455 317.957829 
L 540.663939 315.143157 
L 542.488182 314.246969 
L 542.488182 314.246969 
" clip-path="url(#p6722d16474)" style="fill: none; stroke: #ff0000; stroke-width: 1.5; stroke-linecap: square"/>
   </g>
   <g id="patch_13">
    <path d="M 65.54 392.74 
L 65.54 309.48 
" style="fill: none; stroke: #000000; stroke-width: 0.8; stroke-linejoin: miter; stroke-linecap: square"/>
   </g>
   <g id="patch_14">
    <path d="M 565.2 392.74 
L 565.2 309.48 
" style="fill: none; stroke: #000000; stroke-width: 0.8; stroke-linejoin: miter; stroke-linecap: square"/>
   </g>
   <g id="patch_15">
    <path d="M 65.54 392.74 
L 565.2 392.74 
" style="fill: none; stroke: #000000; stroke-width: 0.8; stroke-linejoin: miter; stroke-linecap: square"/>
   </g>
   <g id="patch_16">
    <path d="M 65.54 309.48 
L 565.2 309.48 
" style="fill: none; stroke: #000000; stroke-width: 0.8; stroke-linejoin: miter; stroke-linecap: square"/>
   </g>
   <g id="text_37">
    <!-- Torque at shaft 3 -->
    <g transform="translate(264.8575 303.48) scale(0.12 -0.12)">
     <use xlink:href="#DejaVuSans-54"/>
     <use xlink:href="#DejaVuSans-6f" x="44.083984"/>
     <use xlink:href="#DejaVuSans-72" x="105.265625"/>
     <use xlink:href="#DejaVuSans-71" x="144.628906"/>
     <use xlink:href="#DejaVuSans-75" x="208.105469"/>
     <use xlink:href="#DejaVuSans-65" x="271.484375"/>
     <use xlink:href="#DejaVuSans-20" x="333.007812"/>
     <use xlink:href="#DejaVuSans-61" x="364.794922"/>
     <use xlink:href="#DejaVuSans-74" x="426.074219"/>
     <use xlink:href="#DejaVuSans-20" x="465.283203"/>
     <use xlink:href="#DejaVuSans-73" x="497.070312"/>
     <use xlink:href="#DejaVuSans-68" x="549.169922"/>
     <use xlink:href="#DejaVuSans-61" x="612.548828"/>
     <use xlink:href="#DejaVuSans-66" x="673.828125"/>
     <use xlink:href="#DejaVuSans-74" x="707.283203"/>
     <use xlink:href="#DejaVuSans-20" x="746.492188"/>
     <use xlink:href="#DejaVuSans-33" x="778.279297"/>
    </g>
   </g>
  </g>
  <g id="axes_4">
   <g id="patch_17">
    <path d="M 65.54 534.04 
L 565.2 534.04 
L 565.2 450.78 
L 65.54 450.78 
z
" style="fill: #ffffff"/>
   </g>
   <g id="matplotlib.axis_7">
    <g id="xtick_19">
     <g id="line2d_32">
      <g>
       <use xlink:href="#m5505b4800d" x="88.251818" y="534.04" style="stroke: #000000; stroke-width: 0.8"/>
      </g>
     </g>
     <g id="text_38">
      <!-- 0.0 -->
      <g transform="translate(80.300256 548.638438) scale(0.1 -0.1)">
       <use xlink:href="#DejaVuSans-30"/>
       <use xlink:href="#DejaVuSans-2e" x="63.623047"/>
       <use xlink:href="#DejaVuSans-30" x="95.410156"/>
      </g>
     </g>
    </g>
    <g id="xtick_20">
     <g id="line2d_33">
      <g>
       <use xlink:href="#m5505b4800d" x="179.463939" y="534.04" style="stroke: #000000; stroke-width: 0.8"/>
      </g>
     </g>
     <g id="text_39">
      <!-- 0.1 -->
      <g transform="translate(171.512377 548.638438) scale(0.1 -0.1)">
       <use xlink:href="#DejaVuSans-30"/>
       <use xlink:href="#DejaVuSans-2e" x="63.623047"/>
       <use xlink:href="#DejaVuSans-31" x="95.410156"/>
      </g>
     </g>
    </g>
    <g id="xtick_21">
     <g id="line2d_34">
      <g>
       <use xlink:href="#m5505b4800d" x="270.676061" y="534.04" style="stroke: #000000; stroke-width: 0.8"/>
      </g>
     </g>
     <g id="text_40">
      <!-- 0.2 -->
      <g transform="translate(262.724498 548.638438) scale(0.1 -0.1)">
       <use xlink:href="#DejaVuSans-30"/>
       <use xlink:href="#DejaVuSans-2e" x="63.623047"/>
       <use xlink:href="#DejaVuSans-32" x="95.410156"/>
      </g>
     </g>
    </g>
    <g id="xtick_22">
     <g id="line2d_35">
      <g>
       <use xlink:href="#m5505b4800d" x="361.888182" y="534.04" style="stroke: #000000; stroke-width: 0.8"/>
      </g>
     </g>
     <g id="text_41">
      <!-- 0.3 -->
      <g transform="translate(353.936619 548.638438) scale(0.1 -0.1)">
       <use xlink:href="#DejaVuSans-30"/>
       <use xlink:href="#DejaVuSans-2e" x="63.623047"/>
       <use xlink:href="#DejaVuSans-33" x="95.410156"/>
      </g>
     </g>
    </g>
    <g id="xtick_23">
     <g id="line2d_36">
      <g>
       <use xlink:href="#m5505b4800d" x="453.100303" y="534.04" style="stroke: #000000; stroke-width: 0.8"/>
      </g>
     </g>
     <g id="text_42">
      <!-- 0.4 -->
      <g transform="translate(445.148741 548.638438) scale(0.1 -0.1)">
       <use xlink:href="#DejaVuSans-30"/>
       <use xlink:href="#DejaVuSans-2e" x="63.623047"/>
       <use xlink:href="#DejaVuSans-34" x="95.410156"/>
      </g>
     </g>
    </g>
    <g id="xtick_24">
     <g id="line2d_37">
      <g>
       <use xlink:href="#m5505b4800d" x="544.312424" y="534.04" style="stroke: #000000; stroke-width: 0.8"/>
      </g>
     </g>
     <g id="text_43">
      <!-- 0.5 -->
      <g transform="translate(536.360862 548.638438) scale(0.1 -0.1)">
       <use xlink:href="#DejaVuSans-30"/>
       <use xlink:href="#DejaVuSans-2e" x="63.623047"/>
       <use xlink:href="#DejaVuSans-35" x="95.410156"/>
      </g>
     </g>
    </g>
    <g id="text_44">
     <!-- Time (s) -->
     <g transform="translate(295.041094 562.316562) scale(0.1 -0.1)">
      <use xlink:href="#DejaVuSans-54"/>
      <use xlink:href="#DejaVuSans-69" x="57.958984"/>
      <use xlink:href="#DejaVuSans-6d" x="85.742188"/>
      <use xlink:href="#DejaVuSans-65" x="183.154297"/>
      <use xlink:href="#DejaVuSans-20" x="244.677734"/>
      <use xlink:href="#DejaVuSans-28" x="276.464844"/>
      <use xlink:href="#DejaVuSans-73" x="315.478516"/>
      <use xlink:href="#DejaVuSans-29" x="367.578125"/>
     </g>
    </g>
   </g>
   <g id="matplotlib.axis_8">
    <g id="ytick_11">
     <g id="line2d_38">
      <g>
       <use xlink:href="#m97679091fe" x="65.54" y="520.260788" style="stroke: #000000; stroke-width: 0.8"/>
      </g>
     </g>
     <g id="text_45">
      <!-- −600 -->
      <g transform="translate(31.072813 524.060006) scale(0.1 -0.1)">
       <defs>
        <path id="DejaVuSans-36" d="M 2113 2584 
Q 1688 2584 1439 2293 
Q 1191 2003 1191 1497 
Q 1191 994 1439 701 
Q 1688 409 2113 409 
Q 2538 409 2786 701 
Q 3034 994 3034 1497 
Q 3034 2003 2786 2293 
Q 2538 2584 2113 2584 
z
M 3366 4563 
L 3366 3988 
Q 3128 4100 2886 4159 
Q 2644 4219 2406 4219 
Q 1781 4219 1451 3797 
Q 1122 3375 1075 2522 
Q 1259 2794 1537 2939 
Q 1816 3084 2150 3084 
Q 2853 3084 3261 2657 
Q 3669 2231 3669 1497 
Q 3669 778 3244 343 
Q 2819 -91 2113 -91 
Q 1303 -91 875 529 
Q 447 1150 447 2328 
Q 447 3434 972 4092 
Q 1497 4750 2381 4750 
Q 2619 4750 2861 4703 
Q 3103 4656 3366 4563 
z
" transform="scale(0.015625)"/>
       </defs>
       <use xlink:href="#DejaVuSans-2212"/>
       <use xlink:href="#DejaVuSans-36" x="83.789062"/>
       <use xlink:href="#DejaVuSans-30" x="147.412109"/>
       <use xlink:href="#DejaVuSans-30" x="211.035156"/>
      </g>
     </g>
    </g>
    <g id="ytick_12">
     <g id="line2d_39">
      <g>
       <use xlink:href="#m97679091fe" x="65.54" y="499.236844" style="stroke: #000000; stroke-width: 0.8"/>
      </g>
     </g>
     <g id="text_46">
      <!-- −400 -->
      <g transform="translate(31.072813 503.036063) scale(0.1 -0.1)">
       <use xlink:href="#DejaVuSans-2212"/>
       <use xlink:href="#DejaVuSans-34" x="83.789062"/>
       <use xlink:href="#DejaVuSans-30" x="147.412109"/>
       <use xlink:href="#DejaVuSans-30" x="211.035156"/>
      </g>
     </g>
    </g>
    <g id="ytick_13">
     <g id="line2d_40">
      <g>
       <use xlink:href="#m97679091fe" x="65.54" y="478.2129" style="stroke: #000000; stroke-width: 0.8"/>
      </g>
     </g>
     <g id="text_47">
      <!-- −200 -->
      <g transform="translate(31.072813 482.012119) scale(0.1 -0.1)">
       <use xlink:href="#DejaVuSans-2212"/>
       <use xlink:href="#DejaVuSans-32" x="83.789062"/>
       <use xlink:href="#DejaVuSans-30" x="147.412109"/>
       <use xlink:href="#DejaVuSans-30" x="211.035156"/>
      </g>
     </g>
    </g>
    <g id="ytick_14">
     <g id="line2d_41">
      <g>
       <use xlink:href="#m97679091fe" x="65.54" y="457.188957" style="stroke: #000000; stroke-width: 0.8"/>
      </g>
     </g>
     <g id="text_48">
      <!-- 0 -->
      <g transform="translate(52.1775 460.988176) scale(0.1 -0.1)">
       <use xlink:href="#DejaVuSans-30"/>
      </g>
     </g>
    </g>
    <g id="text_49">
     <!-- Torque (Nm) -->
     <g transform="translate(24.993125 523.162344) rotate(-90) scale(0.1 -0.1)">
      <use xlink:href="#DejaVuSans-54"/>
      <use xlink:href="#DejaVuSans-6f" x="44.083984"/>
      <use xlink:href="#DejaVuSans-72" x="105.265625"/>
      <use xlink:href="#DejaVuSans-71" x="144.628906"/>
      <use xlink:href="#DejaVuSans-75" x="208.105469"/>
      <use xlink:href="#DejaVuSans-65" x="271.484375"/>
      <use xlink:href="#DejaVuSans-20" x="333.007812"/>
      <use xlink:href="#DejaVuSans-28" x="364.794922"/>
      <use xlink:href="#DejaVuSans-4e" x="403.808594"/>
      <use xlink:href="#DejaVuSans-6d" x="478.613281"/>
      <use xlink:href="#DejaVuSans-29" x="576.025391"/>
     </g>
    </g>
   </g>
   <g id="line2d_42">
    <path d="M 88.251818 457.188957 
L 132.033636 457.266803 
L 133.857879 461.62287 
L 135.682121 476.619764 
L 137.506364 499.216869 
L 139.330606 517.676805 
L 141.154848 526.173118 
L 142.979091 529.177677 
L 144.803333 530.255455 
L 146.627576 528.354456 
L 148.451818 519.519695 
L 150.276061 500.374835 
L 152.100303 476.573041 
L 153.924545 459.741066 
L 155.748788 454.684792 
L 157.57303 455.864218 
L 159.397273 457.431171 
L 163.045758 459.262043 
L 164.87 459.387289 
L 166.694242 457.693719 
L 168.518485 455.641431 
L 170.342727 455.10631 
L 172.16697 455.5175 
L 173.991212 456.132204 
L 175.815455 457.650038 
L 177.639697 459.469819 
L 179.463939 459.576643 
L 181.288182 458.086258 
L 183.112424 456.763868 
L 186.760909 454.882987 
L 188.585152 455.281328 
L 190.409394 457.281997 
L 192.233636 458.905836 
L 194.057879 459.156838 
L 195.882121 458.88889 
L 197.706364 458.025444 
L 199.530606 456.111963 
L 201.354848 454.699042 
L 203.179091 455.227518 
L 205.003333 456.596694 
L 206.827576 457.678723 
L 208.651818 458.905393 
L 210.476061 459.70729 
L 212.300303 458.625975 
L 214.124545 456.516629 
L 215.948788 455.437418 
L 217.77303 455.325809 
L 219.597273 455.475705 
L 221.421515 456.692857 
L 223.245758 458.81949 
L 225.07 459.709263 
L 226.894242 458.768925 
L 228.718485 457.561561 
L 230.542727 456.487794 
L 232.36697 455.125603 
L 234.191212 454.737189 
L 236.015455 456.295402 
L 237.839697 458.181661 
L 239.663939 458.94448 
L 241.488182 459.146064 
L 243.312424 458.797377 
L 245.136667 457.092542 
L 246.960909 455.168183 
L 248.785152 454.914374 
L 252.433636 456.88812 
L 256.082121 459.642248 
L 257.906364 459.3375 
L 259.730606 457.474923 
L 261.554848 456.048373 
L 263.379091 455.461304 
L 265.203333 455.090002 
L 267.027576 455.791436 
L 268.851818 457.919641 
L 270.676061 459.454447 
L 272.500303 459.176655 
L 276.148788 457.320256 
L 277.97303 455.705123 
L 279.797273 454.564545 
L 281.621515 455.457989 
L 283.445758 457.319175 
L 285.27 458.435815 
L 287.094242 459.070505 
L 288.918485 459.328798 
L 290.742727 458.098177 
L 292.56697 455.940705 
L 294.391212 454.96751 
L 296.215455 455.399629 
L 298.039697 456.138157 
L 299.863939 457.408423 
L 301.688182 459.197082 
L 303.512424 459.71832 
L 305.336667 458.364973 
L 307.160909 456.834546 
L 310.809394 455.043575 
L 312.633636 455.089309 
L 316.282121 458.857766 
L 318.106364 459.247551 
L 319.930606 458.816218 
L 321.754848 458.153399 
L 325.403333 454.790351 
L 327.227576 454.897223 
L 329.051818 456.461197 
L 330.876061 457.719966 
L 334.524545 459.528467 
L 336.348788 458.974371 
L 338.17303 456.895149 
L 339.997273 455.369449 
L 341.821515 455.230192 
L 343.645758 455.558936 
L 345.47 456.504797 
L 347.294242 458.435423 
L 349.118485 459.711273 
L 350.942727 459.049693 
L 352.76697 457.662923 
L 356.415455 455.351017 
L 358.239697 454.701486 
L 360.063939 455.94649 
L 361.888182 458.016564 
L 363.712424 458.976493 
L 365.536667 459.060872 
L 367.360909 458.848087 
L 369.185152 457.487893 
L 371.009394 455.380491 
L 372.833636 454.69737 
L 376.482121 456.918845 
L 378.306364 458.001723 
L 380.130606 459.35863 
L 381.954848 459.585027 
L 385.603333 456.048195 
L 387.427576 455.398239 
L 389.251818 455.252029 
L 391.076061 455.687424 
L 394.724545 459.321119 
L 396.548788 459.425745 
L 400.197273 457.35572 
L 403.845758 454.693708 
L 405.67 455.176038 
L 407.494242 457.066152 
L 409.318485 458.415689 
L 411.142727 458.979117 
L 412.96697 459.284696 
L 414.791212 458.413091 
L 416.615455 456.245407 
L 418.439697 454.884474 
L 420.263939 455.287234 
L 422.088182 456.168888 
L 423.912424 457.178707 
L 425.736667 458.839621 
L 427.560909 459.833564 
L 429.385152 458.746124 
L 431.209394 456.889875 
L 433.033636 455.872273 
L 434.857879 455.272962 
L 436.682121 455.090283 
L 438.506364 456.455857 
L 440.330606 458.611437 
L 442.154848 459.439166 
L 443.979091 458.906176 
L 445.803333 458.124007 
L 447.627576 456.806923 
L 449.451818 455.071152 
L 451.276061 454.716018 
L 454.924545 457.663474 
L 458.57303 459.385104 
L 460.397273 459.165493 
L 464.045758 455.422313 
L 465.87 455.152736 
L 467.694242 455.598796 
L 469.518485 456.33449 
L 473.16697 459.68029 
L 474.991212 459.358234 
L 476.815455 457.75556 
L 478.639697 456.568587 
L 480.463939 455.623659 
L 482.288182 454.815108 
L 484.112424 455.543792 
L 485.936667 457.693847 
L 487.760909 459.095409 
L 489.585152 459.117458 
L 491.409394 458.744116 
L 493.233636 457.728067 
L 495.057879 455.779181 
L 496.882121 454.63625 
L 498.706364 455.435506 
L 500.530606 456.847222 
L 504.179091 459.12651 
L 506.003333 459.624354 
L 507.827576 458.244178 
L 509.651818 456.220757 
L 511.476061 455.359653 
L 513.300303 455.30609 
L 515.124545 455.608495 
L 516.948788 457.10118 
L 518.77303 459.14929 
L 520.597273 459.626493 
L 526.07 456.252163 
L 527.894242 454.912518 
L 529.718485 454.876321 
L 533.36697 458.458298 
L 535.191212 458.995422 
L 537.015455 459.106989 
L 538.839697 458.585881 
L 542.488182 454.946242 
L 542.488182 454.946242 
" clip-path="url(#p3f88c6d3e7)" style="fill: none; stroke: #ff0000; stroke-width: 1.5; stroke-linecap: square"/>
   </g>
   <g id="patch_18">
    <path d="M 65.54 534.04 
L 65.54 450.78 
" style="fill: none; stroke: #000000; stroke-width: 0.8; stroke-linejoin: miter; stroke-linecap: square"/>
   </g>
   <g id="patch_19">
    <path d="M 565.2 534.04 
L 565.2 450.78 
" style="fill: none; stroke: #000000; stroke-width: 0.8; stroke-linejoin: miter; stroke-linecap: square"/>
   </g>
   <g id="patch_20">
    <path d="M 65.54 534.04 
L 565.2 534.04 
" style="fill: none; stroke: #000000; stroke-width: 0.8; stroke-linejoin: miter; stroke-linecap: square"/>
   </g>
   <g id="patch_21">
    <path d="M 65.54 450.78 
L 565.2 450.78 
" style="fill: none; stroke: #000000; stroke-width: 0.8; stroke-linejoin: miter; stroke-linecap: square"/>
   </g>
   <g id="text_50">
    <!-- Torque at shaft 4 -->
    <g transform="translate(264.8575 444.78) scale(0.12 -0.12)">
     <use xlink:href="#DejaVuSans-54"/>
     <use xlink:href="#DejaVuSans-6f" x="44.083984"/>
     <use xlink:href="#DejaVuSans-72" x="105.265625"/>
     <use xlink:href="#DejaVuSans-71" x="144.628906"/>
     <use xlink:href="#DejaVuSans-75" x="208.105469"/>
     <use xlink:href="#DejaVuSans-65" x="271.484375"/>
     <use xlink:href="#DejaVuSans-20" x="333.007812"/>
     <use xlink:href="#DejaVuSans-61" x="364.794922"/>
     <use xlink:href="#DejaVuSans-74" x="426.074219"/>
     <use xlink:href="#DejaVuSans-20" x="465.283203"/>
     <use xlink:href="#DejaVuSans-73" x="497.070312"/>
     <use xlink:href="#DejaVuSans-68" x="549.169922"/>
     <use xlink:href="#DejaVuSans-61" x="612.548828"/>
     <use xlink:href="#DejaVuSans-66" x="673.828125"/>
     <use xlink:href="#DejaVuSans-74" x="707.283203"/>
     <use xlink:href="#DejaVuSans-20" x="746.492188"/>
     <use xlink:href="#DejaVuSans-34" x="778.279297"/>
    </g>
   </g>
  </g>
 </g>
 <defs>
  <clipPath id="p305f4883f8">
   <rect x="65.54" y="26.88" width="499.66" height="83.26"/>
  </clipPath>
  <clipPath id="p1400eb5b4b">
   <rect x="65.54" y="168.18" width="499.66" height="83.26"/>
  </clipPath>
  <clipPath id="p6722d16474">
   <rect x="65.54" y="309.48" width="499.66" height="83.26"/>
  </clipPath>
  <clipPath id="p3f88c6d3e7">
   <rect x="65.54" y="450.78" width="499.66" height="83.26"/>
  </clipPath>
 </defs>
</svg>
